<?xml version="1.0" encoding="utf-8" standalone="no"?>
<!DOCTYPE svg PUBLIC "-//W3C//DTD SVG 1.1//EN"
  "http://www.w3.org/Graphics/SVG/1.1/DTD/svg11.dtd">
<svg xmlns:xlink="http://www.w3.org/1999/xlink" width="460.8pt" height="345.6pt" viewBox="0 0 460.8 345.6" xmlns="http://www.w3.org/2000/svg" version="1.1">
 <metadata>
  <rdf:RDF xmlns:dc="http://purl.org/dc/elements/1.1/" xmlns:cc="http://creativecommons.org/ns#" xmlns:rdf="http://www.w3.org/1999/02/22-rdf-syntax-ns#">
   <cc:Work>
    <dc:type rdf:resource="http://purl.org/dc/dcmitype/StillImage"/>
    <dc:date>2023-06-28T14:10:13.243263</dc:date>
    <dc:format>image/svg+xml</dc:format>
    <dc:creator>
     <cc:Agent>
      <dc:title>Matplotlib v3.5.2, https://matplotlib.org/</dc:title>
     </cc:Agent>
    </dc:creator>
   </cc:Work>
  </rdf:RDF>
 </metadata>
 <defs>
  <style type="text/css">*{stroke-linejoin: round; stroke-linecap: butt}</style>
 </defs>
 <g id="figure_1">
  <g id="patch_1">
   <path d="M 0 345.6 
L 460.8 345.6 
L 460.8 0 
L 0 0 
z
" style="fill: #ffffff"/>
  </g>
  <g id="axes_1">
   <g id="patch_2">
    <path d="M 217.676054 279.355664 
C 241.67583 283.587472 266.415982 279.451631 287.734412 267.643925 
C 309.052843 255.836218 325.683046 237.058129 334.827282 214.468742 
L 236.16 174.528 
L 217.676054 279.355664 
z
" style="fill: #ffc0cb"/>
   </g>
   <g id="patch_3">
    <path d="M 334.827282 214.468742 
C 340.17313 201.26267 342.813633 187.116741 342.591909 172.871416 
C 342.370184 158.626091 339.290712 144.569192 333.536455 131.53589 
L 236.16 174.528 
L 334.827282 214.468742 
z
" style="fill: #deb887"/>
   </g>
   <g id="patch_4">
    <path d="M 333.536455 131.53589 
C 328.360874 119.813282 321.110742 109.12102 312.13569 99.97473 
C 303.160637 90.828441 292.607293 83.377549 280.984582 77.981367 
L 236.16 174.528 
L 333.536455 131.53589 
z
" style="fill: #daa520"/>
   </g>
   <g id="patch_5">
    <path d="M 280.984582 77.981367 
C 270.659098 73.187461 259.631104 70.080885 248.321574 68.780227 
C 237.012045 67.479569 225.566742 68.001592 214.42257 70.32637 
L 236.16 174.528 
L 280.984582 77.981367 
z
" style="fill: #800080"/>
   </g>
   <g id="patch_6">
    <path d="M 214.42257 70.32637 
C 203.278398 72.651148 192.578988 76.748718 182.732769 82.462662 
C 172.886551 88.176606 164.020428 95.43328 156.472848 103.955674 
L 236.16 174.528 
L 214.42257 70.32637 
z
" style="fill: #d8bfd8"/>
   </g>
   <g id="patch_7">
    <path d="M 156.472848 103.955674 
C 149.39881 111.943365 143.565816 120.94948 139.169733 130.671604 
C 134.773649 140.393727 131.864238 150.721808 130.539195 161.30904 
L 236.16 174.528 
L 156.472848 103.955674 
z
" style="fill: #ffff00"/>
   </g>
   <g id="patch_8">
    <path d="M 130.539195 161.30904 
C 129.479872 169.773133 129.441805 178.333958 130.425813 186.807137 
C 131.409822 195.280315 133.40879 203.604576 136.379665 211.600633 
L 236.16 174.528 
L 130.539195 161.30904 
z
" style="fill: #00bfff"/>
   </g>
   <g id="patch_9">
    <path d="M 136.379665 211.600633 
C 139.102446 218.928951 142.624297 225.935056 146.88144 232.492076 
C 151.138583 239.049096 156.105165 245.11721 161.691246 250.586531 
L 236.16 174.528 
L 136.379665 211.600633 
z
" style="fill: #f08080"/>
   </g>
   <g id="patch_10">
    <path d="M 161.691246 250.586531 
C 167.277327 256.055852 173.448984 260.893165 180.094454 265.010871 
C 186.739924 269.128578 193.81885 272.501671 201.203039 275.069068 
L 236.16 174.528 
L 161.691246 250.586531 
z
" style="fill: #40e0d0"/>
   </g>
   <g id="patch_11">
    <path d="M 201.203039 275.069068 
C 203.885852 276.001851 206.604926 276.826879 209.35373 277.542171 
C 212.102535 278.257463 214.878869 278.862445 217.676064 279.355666 
L 236.16 174.528 
L 201.203039 275.069068 
z
" style="fill: #808080"/>
   </g>
   <g id="matplotlib.axis_1"/>
   <g id="matplotlib.axis_2"/>
   <g id="text_1">
    <!-- 미디어 사용 -->
    <g transform="translate(292.891854 280.015673)scale(0.1 -0.1)">
     <defs>
      <path id="AppleGothic-bbf8" d="M 3053 1600 
L 3053 3872 
L 2125 3885 
L 1261 3872 
L 1261 1594 
L 2125 1581 
L 3053 1600 
z
M 5466 5158 
Q 5466 5139 5437 5049 
Q 5408 4960 5408 4890 
L 5408 2291 
Q 5408 1702 5408 1292 
Q 5408 883 5414 659 
Q 5414 429 5420 230 
Q 5427 32 5430 -112 
Q 5434 -256 5440 -339 
Q 5446 -422 5446 -422 
L 4947 -442 
Q 4954 -301 4963 211 
Q 4973 723 4973 1670 
L 4973 2272 
Q 4973 2790 4969 3174 
Q 4966 3558 4960 3827 
Q 4954 4096 4950 4339 
Q 4947 4582 4934 4806 
Q 4928 5254 4915 5254 
L 4947 5254 
Q 5139 5254 5302 5235 
Q 5466 5216 5466 5158 
z
M 3520 1171 
L 2342 1190 
L 781 1165 
Q 781 1254 781 1459 
Q 781 1664 787 1984 
Q 794 2304 797 2483 
Q 800 2662 800 2707 
Q 800 3053 800 3296 
Q 800 3539 794 3693 
Q 794 3846 790 3996 
Q 787 4147 781 4282 
Q 896 4275 1056 4275 
Q 1216 4275 1421 4269 
Q 1626 4262 1754 4262 
Q 1882 4262 1946 4262 
L 3520 4288 
L 3501 2842 
L 3520 1171 
z
" transform="scale(0.015625)"/>
      <path id="AppleGothic-b514" d="M 5466 5056 
Q 5466 5043 5434 4902 
Q 5421 4838 5414 4793 
Q 5408 4749 5408 4717 
L 5402 2342 
L 5427 -499 
L 4947 -518 
L 4960 2227 
Q 4960 3520 4941 4051 
Q 4934 4320 4931 4601 
Q 4928 4883 4915 5190 
L 5088 5197 
Q 5254 5197 5360 5171 
Q 5466 5146 5466 5056 
z
M 4410 1133 
L 2810 922 
Q 2362 864 1869 832 
Q 1376 800 877 800 
L 800 800 
Q 806 960 806 1155 
Q 806 1350 813 1587 
Q 819 1830 822 2035 
Q 826 2240 826 2413 
L 806 4525 
L 2490 4499 
Q 2861 4499 3206 4505 
Q 3552 4512 3834 4525 
L 3834 4128 
L 2534 4141 
L 1261 4134 
L 1248 2432 
L 1254 1216 
Q 1606 1229 1805 1235 
Q 2106 1248 2355 1264 
Q 2605 1280 2810 1306 
Q 3014 1331 3286 1366 
Q 3558 1402 3904 1446 
Q 4000 1459 4121 1472 
Q 4243 1485 4390 1504 
L 4410 1133 
z
" transform="scale(0.015625)"/>
      <path id="AppleGothic-c5b4" d="M 3136 2592 
Q 3136 3392 2816 3789 
Q 2541 4141 2067 4141 
Q 1581 4141 1318 3750 
Q 1056 3360 1056 2586 
Q 1056 1862 1395 1408 
Q 1709 998 2131 998 
Q 2541 998 2822 1389 
Q 3136 1824 3136 2592 
z
M 5434 5062 
Q 5434 5037 5414 4969 
Q 5395 4902 5395 4851 
L 5376 2579 
L 5376 1344 
Q 5382 979 5382 652 
Q 5382 326 5389 38 
Q 5395 -538 5402 -538 
L 4896 -570 
L 4928 2413 
L 3731 2413 
L 3731 2822 
L 4915 2822 
L 4922 4429 
Q 4922 4621 4922 4752 
Q 4922 4883 4915 4947 
Q 4915 5018 4912 5078 
Q 4909 5139 4902 5190 
Q 5139 5190 5286 5158 
Q 5434 5126 5434 5062 
z
M 3597 2605 
Q 3597 1773 3270 1254 
Q 2886 640 2086 640 
Q 1338 640 934 1254 
Q 589 1798 589 2618 
Q 589 3450 941 3955 
Q 1331 4518 2080 4518 
Q 2816 4518 3213 3968 
Q 3597 3450 3597 2605 
z
" transform="scale(0.015625)"/>
      <path id="AppleGothic-20" transform="scale(0.015625)"/>
      <path id="AppleGothic-c0ac" d="M 6093 2061 
L 5139 2061 
L 5133 1024 
Q 5133 640 5139 240 
Q 5146 -160 5158 -493 
L 4685 -538 
Q 4685 -397 4685 -73 
Q 4685 250 4691 755 
Q 4698 1274 4701 1651 
Q 4704 2029 4704 2285 
Q 4704 2874 4697 3478 
Q 4691 4083 4685 4704 
Q 4685 4877 4675 4992 
Q 4666 5107 4653 5190 
Q 4877 5190 5037 5158 
Q 5197 5126 5197 5069 
Q 5152 4954 5152 4870 
L 5133 3955 
L 5139 2477 
L 6093 2477 
L 6093 2061 
z
M 3923 1331 
Q 3917 1312 3898 1293 
Q 3878 1267 3852 1244 
Q 3827 1222 3782 1197 
L 3584 1018 
Q 3533 1050 3491 1078 
Q 3450 1107 3418 1133 
Q 3014 1446 2675 1946 
Q 2605 2042 2541 2170 
Q 2477 2298 2406 2451 
Q 2336 2605 2291 2736 
Q 2246 2867 2221 2976 
Q 2106 2438 1581 1786 
Q 1312 1466 1059 1245 
Q 806 1024 544 896 
Q 518 909 476 941 
Q 435 973 371 1030 
Q 211 1165 211 1184 
Q 250 1222 256 1235 
Q 301 1235 557 1421 
Q 922 1683 1203 2010 
Q 1606 2477 1818 3078 
Q 1933 3405 1993 3830 
Q 2054 4256 2054 4640 
Q 2106 4640 2186 4630 
Q 2266 4621 2368 4595 
Q 2573 4550 2573 4486 
Q 2560 4454 2521 4361 
Q 2483 4269 2490 4173 
L 2432 3750 
Q 2458 3648 2474 3574 
Q 2490 3501 2502 3437 
Q 2598 3053 2829 2547 
Q 3072 2061 3494 1677 
Q 3565 1613 3657 1539 
Q 3750 1466 3872 1389 
Q 3885 1376 3897 1360 
Q 3910 1344 3923 1331 
z
" transform="scale(0.015625)"/>
      <path id="AppleGothic-c6a9" d="M 4858 448 
Q 4858 774 4365 922 
Q 4173 973 3878 998 
Q 3584 1024 3194 1024 
Q 2246 1024 1882 870 
Q 1555 723 1555 448 
Q 1555 77 2074 -77 
Q 2470 -186 3194 -186 
Q 3674 -186 4003 -144 
Q 4333 -102 4525 -13 
Q 4858 141 4858 448 
z
M 3821 2643 
L 3808 3008 
Q 3674 2995 3510 2988 
Q 3347 2982 3194 2982 
Q 2803 2982 2624 3014 
L 2611 2637 
L 2624 2285 
L 3808 2278 
L 3821 2643 
z
M 4858 3974 
Q 4858 4352 4378 4518 
Q 3981 4659 3162 4659 
Q 2490 4659 2086 4550 
Q 1485 4384 1485 3974 
Q 1485 3654 1933 3494 
Q 2381 3334 3168 3334 
Q 4006 3334 4403 3475 
Q 4858 3642 4858 3974 
z
M 5306 448 
Q 5306 13 4915 -243 
Q 4397 -589 3328 -589 
L 3194 -589 
Q 2093 -589 1555 -275 
Q 1114 -19 1114 454 
Q 1114 954 1690 1197 
Q 2195 1408 3200 1408 
Q 4134 1408 4634 1229 
Q 5306 998 5306 448 
z
M 6022 1926 
Q 5690 1939 5341 1945 
Q 4992 1952 4621 1958 
Q 4256 1965 3917 1968 
Q 3578 1971 3264 1971 
Q 2438 1971 1728 1958 
Q 1018 1946 378 1926 
L 378 2317 
Q 480 2310 605 2304 
Q 730 2298 890 2291 
Q 1043 2285 1145 2285 
Q 1248 2285 1312 2285 
L 2163 2285 
L 2176 2675 
L 2157 3066 
Q 1971 3098 1830 3139 
Q 1690 3181 1600 3226 
Q 1037 3494 1037 3987 
Q 1037 4243 1184 4435 
Q 1331 4627 1603 4755 
Q 1875 4883 2268 4947 
Q 2662 5011 3162 5011 
Q 3642 5011 4010 4960 
Q 4378 4909 4646 4813 
Q 5312 4563 5312 3974 
Q 5312 3494 4794 3238 
Q 4704 3194 4576 3155 
Q 4448 3117 4269 3072 
L 4269 2272 
L 5082 2278 
L 6022 2310 
L 6022 1926 
z
" transform="scale(0.015625)"/>
     </defs>
     <use xlink:href="#AppleGothic-bbf8"/>
     <use xlink:href="#AppleGothic-b514" x="99.999985"/>
     <use xlink:href="#AppleGothic-c5b4" x="199.999969"/>
     <use xlink:href="#AppleGothic-20" x="299.999954"/>
     <use xlink:href="#AppleGothic-c0ac" x="331.999939"/>
     <use xlink:href="#AppleGothic-c6a9" x="431.999924"/>
    </g>
   </g>
   <g id="text_2">
    <!-- 21.7% -->
    <g transform="translate(250.179647 233.457711)scale(0.1 -0.1)">
     <defs>
      <path id="AppleGothic-32" d="M 1101 429 
L 3942 429 
L 3942 0 
L 653 0 
L 653 205 
Q 653 1018 1344 1664 
Q 1670 1894 1990 2124 
Q 2310 2355 2637 2592 
Q 3334 3098 3334 3597 
Q 3334 3994 3014 4218 
Q 2867 4326 2694 4377 
Q 2522 4429 2317 4429 
Q 2016 4429 1741 4352 
Q 1325 4224 883 3910 
L 883 4435 
Q 1325 4659 1667 4758 
Q 2010 4858 2317 4858 
Q 2963 4858 3405 4525 
Q 3840 4198 3840 3622 
Q 3840 2995 3168 2438 
Q 2848 2214 2531 2000 
Q 2214 1786 1894 1562 
Q 1178 1024 1101 429 
z
" transform="scale(0.015625)"/>
      <path id="AppleGothic-31" d="M 2342 4774 
L 2752 4774 
L 2752 0 
L 2285 0 
L 2285 3526 
L 1158 3526 
L 1158 3885 
L 1414 3885 
Q 1990 3885 2214 4205 
Q 2342 4410 2342 4774 
z
" transform="scale(0.015625)"/>
      <path id="AppleGothic-2e" d="M 915 -19 
Q 762 -19 653 109 
Q 544 237 544 422 
Q 544 614 656 745 
Q 768 877 915 877 
Q 1056 877 1168 758 
Q 1280 640 1280 435 
Q 1280 243 1171 112 
Q 1062 -19 915 -19 
z
" transform="scale(0.015625)"/>
      <path id="AppleGothic-37" d="M 595 4774 
L 3802 4774 
L 3802 4410 
L 1734 0 
L 1235 0 
L 3277 4352 
L 595 4352 
L 595 4774 
z
" transform="scale(0.015625)"/>
      <path id="AppleGothic-25" d="M 4896 -45 
Q 4320 -45 3949 339 
Q 3590 717 3590 1274 
Q 3590 1856 3962 2227 
Q 4333 2598 4877 2598 
Q 5402 2598 5779 2234 
Q 6150 1869 6150 1286 
Q 6150 691 5760 307 
Q 5389 -45 4896 -45 
z
M 4864 378 
Q 5024 378 5168 442 
Q 5312 506 5421 624 
Q 5530 742 5594 905 
Q 5658 1069 5658 1267 
Q 5658 1658 5427 1920 
Q 5190 2176 4883 2176 
Q 4582 2176 4352 1958 
Q 4090 1696 4090 1286 
Q 4090 883 4320 634 
Q 4550 378 4864 378 
z
M 4557 5370 
L 5030 5370 
L 2016 -333 
L 1549 -333 
L 4045 4378 
L 4026 4397 
Q 3930 4333 3776 4278 
Q 3622 4224 3456 4224 
Q 3347 4224 3177 4259 
Q 3008 4294 2835 4371 
Q 2867 4301 2886 4240 
Q 2906 4179 2918 4128 
Q 2970 3936 2970 3750 
Q 2970 3187 2598 2810 
Q 2227 2438 1690 2438 
Q 1146 2438 781 2810 
Q 422 3187 422 3763 
Q 422 4339 787 4717 
Q 1158 5101 1690 5101 
Q 1952 5101 2522 4870 
Q 2803 4755 3024 4700 
Q 3245 4646 3411 4646 
Q 3802 4646 4077 4819 
Q 4403 5018 4557 5370 
z
M 1683 2854 
Q 2003 2854 2240 3110 
Q 2470 3366 2470 3770 
Q 2470 3974 2406 4144 
Q 2342 4314 2236 4432 
Q 2131 4550 1990 4614 
Q 1850 4678 1690 4678 
Q 1530 4678 1392 4614 
Q 1254 4550 1148 4432 
Q 1043 4314 982 4144 
Q 922 3974 922 3770 
Q 922 3334 1171 3078 
Q 1382 2854 1683 2854 
z
" transform="scale(0.015625)"/>
     </defs>
     <use xlink:href="#AppleGothic-32"/>
     <use xlink:href="#AppleGothic-31" x="67.999985"/>
     <use xlink:href="#AppleGothic-2e" x="135.999969"/>
     <use xlink:href="#AppleGothic-37" x="170.499954"/>
     <use xlink:href="#AppleGothic-25" x="238.499939"/>
    </g>
   </g>
   <g id="text_3">
    <!-- 집안일 -->
    <g transform="translate(353.2351 175.765914)scale(0.1 -0.1)">
     <defs>
      <path id="AppleGothic-c9d1" d="M 4960 358 
L 4954 704 
L 1856 698 
L 1843 378 
L 1856 -70 
Q 1946 -70 2125 -70 
Q 2304 -70 2592 -77 
Q 2880 -83 3053 -86 
Q 3226 -90 3277 -90 
Q 3878 -90 4268 -83 
Q 4659 -77 4954 -70 
L 4960 358 
z
M 5466 1690 
Q 5466 1664 5434 1587 
Q 5402 1510 5402 1472 
Q 5402 1293 5405 1001 
Q 5408 710 5414 288 
Q 5421 -134 5424 -352 
Q 5427 -570 5427 -602 
L 4928 -602 
L 4922 -435 
L 3309 -416 
L 1843 -435 
L 1850 -621 
L 1376 -627 
L 1395 634 
L 1389 928 
Q 1389 1114 1389 1245 
Q 1389 1376 1382 1466 
Q 1382 1549 1379 1629 
Q 1376 1709 1370 1786 
Q 1536 1786 1722 1766 
Q 1901 1747 1901 1690 
Q 1850 1574 1850 1530 
L 1843 1050 
L 4960 1050 
L 4947 1805 
Q 5018 1805 5101 1798 
Q 5184 1792 5274 1779 
Q 5466 1747 5466 1690 
z
M 4186 2400 
Q 4186 2387 4141 2342 
Q 4122 2323 4106 2307 
Q 4090 2291 4067 2268 
Q 4045 2246 4003 2211 
Q 3962 2176 3891 2118 
Q 3878 2112 3868 2099 
Q 3859 2086 3846 2074 
Q 3795 2099 3750 2121 
Q 3706 2144 3674 2163 
Q 3462 2278 3270 2425 
Q 3078 2573 2906 2739 
Q 2784 2854 2681 2995 
Q 2579 3136 2490 3315 
Q 2438 3411 2355 3616 
Q 2323 3526 2291 3452 
Q 2259 3379 2234 3328 
Q 2048 2970 1779 2701 
Q 1613 2534 1421 2380 
Q 1229 2227 998 2086 
Q 915 2035 806 1984 
Q 768 2016 739 2038 
Q 710 2061 685 2074 
Q 557 2176 509 2201 
Q 461 2227 435 2266 
L 422 2272 
Q 422 2298 448 2304 
Q 474 2317 496 2329 
Q 518 2342 544 2355 
Q 608 2355 960 2579 
Q 1165 2720 1334 2864 
Q 1504 3008 1632 3162 
Q 1779 3334 1881 3510 
Q 1984 3686 2035 3872 
Q 2112 4122 2112 4403 
L 602 4384 
L 602 4794 
L 2618 4774 
L 3475 4774 
Q 3629 4781 3779 4784 
Q 3930 4787 4077 4794 
L 4077 4390 
L 3290 4403 
L 2650 4403 
Q 2637 4371 2630 4329 
Q 2624 4288 2624 4198 
Q 2624 4032 2694 3840 
Q 2765 3648 2918 3398 
Q 3142 3040 3558 2765 
Q 3578 2752 3693 2685 
Q 3808 2618 4032 2502 
Q 4077 2477 4128 2448 
Q 4179 2419 4186 2400 
z
M 5446 5101 
Q 5446 5075 5430 5020 
Q 5414 4966 5414 4947 
L 5402 3936 
L 5434 2131 
L 4947 2118 
L 4960 3597 
L 4973 4013 
Q 4973 4531 4954 4774 
Q 4947 4902 4940 5004 
Q 4934 5107 4922 5190 
L 5075 5190 
Q 5242 5190 5344 5174 
Q 5446 5158 5446 5101 
z
" transform="scale(0.015625)"/>
      <path id="AppleGothic-c548" d="M 3213 3200 
Q 3213 3654 2893 3904 
Q 2611 4134 2182 4134 
Q 1741 4134 1421 3891 
Q 1062 3629 1062 3206 
Q 1062 2854 1338 2592 
Q 1651 2310 2176 2310 
Q 2598 2310 2906 2547 
Q 3213 2784 3213 3200 
z
M 5402 -339 
L 1581 -390 
Q 1594 -314 1600 -182 
Q 1606 -51 1606 262 
L 1606 416 
Q 1606 634 1606 784 
Q 1606 934 1600 1011 
Q 1594 1094 1590 1161 
Q 1587 1229 1574 1280 
L 1658 1280 
Q 1824 1280 1955 1264 
Q 2086 1248 2086 1197 
Q 2086 1184 2067 1107 
Q 2048 1030 2048 960 
L 2048 0 
L 2624 -6 
Q 3072 -6 3661 13 
Q 4358 38 4793 48 
Q 5229 58 5402 58 
L 5402 -339 
z
M 6035 2630 
Q 5843 2630 5510 2611 
Q 5344 2605 5251 2601 
Q 5158 2598 5126 2598 
L 5126 858 
L 4666 851 
Q 4678 1101 4684 1529 
Q 4691 1958 4691 2534 
L 4691 3104 
Q 4691 3712 4684 4169 
Q 4678 4627 4666 4941 
Q 4666 5056 4646 5190 
L 4749 5190 
Q 4941 5190 5056 5171 
Q 5171 5152 5171 5082 
Q 5171 5062 5145 4992 
Q 5120 4922 5120 4870 
L 5114 3008 
L 5510 2989 
L 6035 3008 
L 6035 2630 
z
M 3654 3187 
Q 3654 2630 3213 2278 
Q 2778 1939 2170 1939 
Q 1830 1939 1561 2012 
Q 1293 2086 1088 2246 
Q 646 2579 646 3194 
Q 646 3802 1075 4154 
Q 1510 4512 2170 4512 
Q 2835 4512 3238 4147 
Q 3654 3795 3654 3187 
z
" transform="scale(0.015625)"/>
      <path id="AppleGothic-c77c" d="M 3379 3494 
Q 3379 3910 3027 4160 
Q 2701 4390 2246 4390 
Q 1792 4390 1478 4166 
Q 1139 3923 1139 3482 
Q 1139 3104 1459 2867 
Q 1786 2637 2202 2637 
Q 2694 2637 3021 2848 
Q 3379 3085 3379 3494 
z
M 5504 -435 
Q 5331 -429 5091 -429 
Q 4851 -429 4544 -422 
Q 4237 -416 4051 -416 
Q 3866 -416 3795 -416 
L 1549 -416 
L 1562 166 
L 1555 864 
Q 1651 864 1859 861 
Q 2067 858 2394 851 
Q 2720 845 2947 845 
Q 3174 845 3302 845 
L 4237 845 
Q 4410 851 4579 854 
Q 4749 858 4922 864 
L 4922 1414 
L 4634 1414 
Q 3565 1434 3462 1434 
L 3232 1434 
Q 2803 1434 2339 1421 
Q 1875 1408 1485 1395 
L 1485 1760 
Q 1606 1754 1795 1754 
Q 1984 1754 2253 1747 
Q 2515 1741 2761 1741 
Q 3008 1741 3245 1741 
L 4467 1741 
Q 4698 1747 4931 1750 
Q 5165 1754 5395 1760 
L 5389 1146 
L 5408 544 
L 2035 518 
L 2035 -77 
Q 2202 -83 2387 -83 
Q 2573 -83 2784 -83 
Q 2995 -90 3171 -90 
Q 3347 -90 3482 -90 
Q 3923 -90 4246 -86 
Q 4570 -83 4781 -77 
Q 4992 -70 5174 -64 
Q 5357 -58 5504 -45 
L 5504 -435 
z
M 3821 3494 
Q 3821 3194 3702 2973 
Q 3584 2752 3354 2586 
Q 2931 2298 2266 2298 
Q 1536 2298 1107 2682 
Q 710 3027 710 3520 
Q 710 4000 1082 4339 
Q 1491 4710 2202 4710 
Q 2573 4710 2873 4627 
Q 3174 4544 3385 4390 
Q 3597 4237 3709 4009 
Q 3821 3782 3821 3494 
z
M 5434 5075 
Q 5434 5056 5414 4982 
Q 5395 4909 5395 4858 
L 5382 3680 
Q 5382 3283 5388 2854 
Q 5395 2426 5408 2061 
L 4928 2061 
L 4941 3686 
Q 4941 4051 4937 4451 
Q 4934 4851 4922 5190 
L 4947 5190 
Q 5210 5190 5322 5161 
Q 5434 5133 5434 5075 
z
" transform="scale(0.015625)"/>
     </defs>
     <use xlink:href="#AppleGothic-c9d1"/>
     <use xlink:href="#AppleGothic-c548" x="99.999985"/>
     <use xlink:href="#AppleGothic-c77c" x="199.999969"/>
    </g>
   </g>
   <g id="text_4">
    <!-- 12.7% -->
    <g transform="translate(283.094145 176.594206)scale(0.1 -0.1)">
     <use xlink:href="#AppleGothic-31"/>
     <use xlink:href="#AppleGothic-32" x="67.999985"/>
     <use xlink:href="#AppleGothic-2e" x="135.999969"/>
     <use xlink:href="#AppleGothic-37" x="170.499954"/>
     <use xlink:href="#AppleGothic-25" x="238.499939"/>
    </g>
   </g>
   <g id="text_5">
    <!-- 음식 -->
    <g transform="translate(319.733259 95.57956)scale(0.1 -0.1)">
     <defs>
      <path id="AppleGothic-c74c" d="M 4723 -90 
L 4723 966 
L 1619 960 
L 1619 -77 
L 3232 -90 
L 4723 -90 
z
M 4819 3949 
Q 4819 4339 4314 4512 
Q 3891 4666 3194 4666 
Q 2317 4666 1914 4474 
Q 1542 4307 1542 3974 
Q 1542 3571 2125 3392 
Q 2560 3264 3149 3264 
Q 3923 3264 4371 3437 
Q 4819 3610 4819 3949 
z
M 5210 -621 
L 4730 -627 
L 4704 -461 
L 1626 -461 
L 1581 -602 
L 1146 -602 
L 1165 403 
L 1158 1357 
L 2976 1338 
L 5203 1357 
L 5197 525 
L 5210 -621 
z
M 6016 1952 
L 5370 1952 
Q 5171 1952 4918 1955 
Q 4666 1958 4381 1964 
Q 4096 1971 3785 1974 
Q 3475 1978 3168 1978 
Q 2854 1978 2537 1978 
Q 2221 1978 1907 1971 
Q 1594 1971 1354 1968 
Q 1114 1965 931 1961 
Q 749 1958 614 1955 
Q 480 1952 384 1952 
L 384 2362 
Q 589 2355 857 2348 
Q 1126 2342 1472 2336 
Q 1824 2330 2153 2330 
Q 2483 2330 2810 2330 
L 3174 2330 
Q 3821 2330 4281 2330 
Q 4742 2330 5030 2336 
Q 5318 2342 5564 2345 
Q 5811 2349 6016 2362 
L 6016 1952 
z
M 5248 3955 
Q 5248 3437 4729 3158 
Q 4211 2880 3290 2880 
L 3142 2880 
Q 2131 2880 1542 3213 
Q 1075 3482 1075 3936 
Q 1075 4518 1683 4787 
Q 2227 5024 3174 5024 
Q 4122 5024 4646 4800 
Q 5248 4531 5248 3955 
z
" transform="scale(0.015625)"/>
      <path id="AppleGothic-c2dd" d="M 5414 -454 
L 4954 -480 
L 4954 1286 
L 1440 1242 
L 1440 1632 
L 3290 1632 
Q 3526 1632 3782 1635 
Q 4038 1638 4326 1645 
Q 4614 1651 4880 1657 
Q 5146 1664 5389 1670 
L 5395 435 
L 5414 -454 
z
M 4179 2464 
Q 4179 2445 4032 2304 
Q 3878 2170 3866 2157 
Q 3789 2208 3725 2246 
Q 3661 2285 3610 2323 
Q 3302 2554 3040 2816 
Q 2739 3130 2534 3456 
Q 2477 3558 2400 3725 
Q 2387 3680 2368 3645 
Q 2349 3610 2336 3578 
Q 2246 3392 2108 3197 
Q 1971 3002 1786 2803 
Q 1549 2534 1184 2278 
Q 1120 2240 1043 2189 
Q 966 2138 870 2074 
Q 851 2086 832 2105 
Q 813 2125 794 2138 
Q 698 2214 646 2246 
Q 506 2310 506 2336 
Q 531 2381 557 2394 
Q 800 2502 934 2592 
Q 1370 2880 1693 3334 
Q 2016 3789 2150 4422 
Q 2176 4531 2192 4659 
Q 2208 4787 2221 4954 
L 2522 4902 
Q 2765 4845 2765 4774 
Q 2765 4755 2742 4723 
Q 2720 4691 2694 4646 
Q 2669 4602 2646 4544 
Q 2624 4486 2624 4422 
Q 2624 4211 2822 3834 
Q 2976 3552 3168 3315 
Q 3315 3130 3507 2960 
Q 3699 2790 3942 2624 
Q 3987 2592 4038 2560 
Q 4090 2528 4160 2496 
L 4179 2464 
z
M 5446 5050 
Q 5446 5030 5420 4956 
Q 5395 4883 5395 4832 
L 5389 3245 
L 5389 2483 
Q 5395 2214 5408 1965 
L 4947 1946 
L 4966 3578 
Q 4966 4013 4956 4358 
Q 4947 4704 4934 4973 
Q 4934 5024 4934 5075 
Q 4934 5126 4922 5190 
Q 5146 5190 5296 5152 
Q 5446 5114 5446 5050 
z
" transform="scale(0.015625)"/>
     </defs>
     <use xlink:href="#AppleGothic-c74c"/>
     <use xlink:href="#AppleGothic-c2dd" x="99.999985"/>
    </g>
   </g>
   <g id="text_6">
    <!-- 11.5% -->
    <g transform="translate(264.820414 132.856194)scale(0.1 -0.1)">
     <defs>
      <path id="AppleGothic-35" d="M 621 4768 
L 3488 4768 
L 3488 4339 
L 1088 4339 
L 1088 2707 
Q 1184 2771 1293 2819 
Q 1402 2867 1510 2912 
Q 1862 3040 2259 3040 
Q 2989 3040 3424 2605 
Q 3827 2202 3827 1581 
Q 3827 870 3296 397 
Q 2765 -83 2010 -83 
Q 1651 -83 1248 45 
Q 1158 77 1001 137 
Q 845 198 621 301 
L 621 838 
Q 928 640 1203 525 
Q 1408 435 1613 390 
Q 1818 346 2010 346 
Q 2528 346 2906 666 
Q 3322 1011 3322 1536 
Q 3322 1990 3021 2291 
Q 2701 2611 2144 2611 
Q 1856 2611 1587 2528 
Q 1318 2445 1088 2272 
L 621 2272 
L 621 4768 
z
" transform="scale(0.015625)"/>
     </defs>
     <use xlink:href="#AppleGothic-31"/>
     <use xlink:href="#AppleGothic-31" x="67.999985"/>
     <use xlink:href="#AppleGothic-2e" x="135.999969"/>
     <use xlink:href="#AppleGothic-35" x="170.499954"/>
     <use xlink:href="#AppleGothic-25" x="238.499939"/>
    </g>
   </g>
   <g id="text_7">
    <!-- 공부/업무 -->
    <g transform="translate(249.537732 61.265606)scale(0.1 -0.1)">
     <defs>
      <path id="AppleGothic-acf5" d="M 4870 570 
Q 4870 960 4352 1165 
Q 3904 1325 3187 1325 
Q 2387 1325 1961 1120 
Q 1536 915 1536 608 
Q 1536 186 2144 6 
Q 2349 -58 2611 -86 
Q 2874 -115 3200 -115 
Q 4051 -115 4460 41 
Q 4870 198 4870 570 
z
M 5357 576 
Q 5357 314 5213 112 
Q 5069 -90 4800 -227 
Q 4531 -365 4147 -435 
Q 3763 -506 3277 -506 
Q 2362 -506 1779 -288 
Q 1050 -13 1050 608 
Q 1050 1158 1734 1453 
Q 2304 1690 3168 1690 
Q 3629 1690 4000 1619 
Q 4371 1549 4678 1414 
Q 5357 1101 5357 576 
z
M 6042 2195 
Q 5971 2195 5811 2195 
Q 5651 2195 5389 2202 
Q 5126 2208 4838 2211 
Q 4550 2214 4211 2221 
Q 3885 2227 3645 2230 
Q 3405 2234 3251 2234 
L 3110 2234 
Q 2637 2234 2288 2234 
Q 1939 2234 1715 2227 
Q 1261 2221 899 2211 
Q 538 2202 352 2195 
L 352 2650 
L 1453 2605 
L 2765 2598 
L 2752 3616 
L 2790 3616 
Q 2995 3616 3145 3600 
Q 3296 3584 3296 3514 
Q 3296 3482 3267 3398 
Q 3238 3315 3238 3270 
L 3238 2592 
L 4704 2605 
Q 5107 2605 5424 2611 
Q 5741 2618 6042 2637 
L 6042 2195 
z
M 5382 4877 
Q 5370 4691 5363 4570 
Q 5350 4422 5324 4227 
Q 5299 4032 5261 3776 
Q 5248 3667 5222 3545 
Q 5197 3424 5165 3277 
Q 5152 3226 5139 3165 
Q 5126 3104 5101 3027 
L 4666 3053 
L 4794 3674 
Q 4826 3846 4851 4076 
Q 4877 4307 4877 4461 
Q 4506 4474 4054 4480 
Q 3603 4486 3168 4486 
L 909 4480 
L 909 4902 
Q 1299 4890 1772 4883 
Q 2246 4877 2714 4877 
L 5382 4877 
z
" transform="scale(0.015625)"/>
      <path id="AppleGothic-bd80" d="M 4563 3130 
L 4563 4038 
L 1760 4045 
L 1760 3123 
L 4563 3130 
z
M 6010 1613 
Q 5798 1613 5472 1619 
Q 5146 1626 4704 1638 
Q 4269 1651 3942 1657 
Q 3616 1664 3392 1664 
L 3392 -589 
L 2931 -589 
Q 2938 -538 2947 -355 
Q 2957 -173 2957 224 
L 2950 1664 
L 1914 1670 
Q 1549 1670 1145 1664 
Q 742 1658 397 1645 
L 397 2042 
Q 512 2035 611 2035 
Q 710 2035 800 2029 
Q 2016 1990 2957 1990 
L 3187 1990 
Q 3654 1990 4000 1990 
Q 4346 1990 4576 1997 
Q 5037 2003 5421 2009 
Q 5805 2016 6010 2022 
L 6010 1613 
z
M 5043 5011 
Q 4992 4890 4992 4794 
L 4986 4109 
L 5005 2816 
L 3878 2829 
L 1318 2816 
L 1325 4749 
Q 1325 4902 1321 4976 
Q 1318 5050 1306 5114 
L 1677 5082 
Q 1792 5082 1792 5011 
Q 1792 4986 1776 4925 
Q 1760 4864 1760 4851 
L 1760 4352 
L 3130 4333 
L 4563 4352 
L 4557 5082 
L 4902 5075 
Q 5043 5075 5043 5011 
z
" transform="scale(0.015625)"/>
      <path id="AppleGothic-2f" d="M 1965 5018 
L 2368 5018 
L 493 -672 
L 90 -672 
L 1965 5018 
z
" transform="scale(0.015625)"/>
      <path id="AppleGothic-c5c5" d="M 4928 26 
L 4928 800 
Q 4819 794 4729 794 
Q 4640 794 4570 794 
Q 4070 781 3731 774 
Q 3392 768 3200 768 
Q 2771 768 2489 761 
Q 2208 755 1965 736 
L 1965 -32 
L 3283 -45 
Q 3507 -45 3769 -35 
Q 4032 -26 4346 -13 
Q 4550 -6 4928 26 
z
M 3187 3392 
Q 3187 3846 2861 4128 
Q 2566 4371 2144 4371 
Q 1715 4371 1414 4128 
Q 1082 3846 1082 3392 
Q 1082 2963 1363 2720 
Q 1645 2477 2106 2477 
Q 2630 2477 2918 2765 
Q 3187 3014 3187 3392 
z
M 5395 1651 
Q 5395 1613 5389 1600 
Q 5357 1485 5357 1453 
L 5382 -461 
L 4947 -499 
L 4922 -365 
L 3296 -365 
Q 2848 -365 2550 -371 
Q 2253 -378 1990 -397 
L 1958 -525 
L 1523 -557 
Q 1530 -410 1533 -176 
Q 1536 58 1536 474 
Q 1536 800 1536 1021 
Q 1536 1242 1530 1357 
Q 1523 1472 1520 1568 
Q 1517 1664 1504 1734 
L 1683 1741 
Q 1830 1741 1916 1725 
Q 2003 1709 2003 1658 
Q 2003 1651 1984 1584 
Q 1965 1517 1965 1478 
L 1965 1101 
Q 2035 1094 2150 1094 
Q 2266 1094 2413 1088 
Q 2566 1082 2700 1082 
Q 2835 1082 2944 1082 
L 4928 1120 
L 4915 1734 
Q 4992 1734 5072 1734 
Q 5152 1734 5229 1728 
Q 5395 1715 5395 1651 
z
M 3616 3386 
Q 3616 2816 3238 2477 
Q 2829 2099 2106 2099 
Q 1382 2099 979 2534 
Q 640 2893 640 3386 
Q 640 3968 1056 4346 
Q 1472 4723 2106 4723 
Q 2790 4723 3206 4358 
Q 3616 3994 3616 3386 
z
M 5414 5082 
Q 5414 5075 5382 4988 
Q 5350 4902 5350 4806 
L 5357 3366 
L 5357 2541 
Q 5363 2426 5366 2320 
Q 5370 2214 5376 2112 
L 4915 2074 
Q 4915 2214 4918 2380 
Q 4922 2547 4928 2752 
Q 4934 2957 4937 3075 
Q 4941 3194 4941 3226 
L 4352 3238 
Q 4224 3238 4083 3232 
Q 3942 3226 3827 3213 
L 3827 3616 
Q 3872 3610 3942 3610 
Q 4013 3610 4109 3603 
L 4397 3603 
Q 4640 3603 4752 3606 
Q 4864 3610 4928 3622 
L 4928 4762 
L 4915 5190 
Q 4998 5190 5088 5187 
Q 5178 5184 5248 5171 
Q 5318 5158 5366 5139 
Q 5414 5120 5414 5082 
z
" transform="scale(0.015625)"/>
      <path id="AppleGothic-bb34" d="M 4563 3962 
L 4550 4602 
Q 4230 4602 3974 4602 
Q 3718 4602 3520 4608 
Q 2733 4621 2304 4627 
Q 1875 4634 1798 4634 
Q 1786 4467 1779 4268 
Q 1773 4070 1773 3878 
L 1786 3270 
L 3213 3258 
L 4550 3277 
L 4563 3962 
z
M 6035 1715 
Q 5888 1722 5776 1725 
Q 5664 1728 5574 1734 
Q 4947 1754 4723 1754 
L 3475 1747 
L 3475 -429 
L 2970 -435 
L 2989 813 
L 2982 1747 
L 1651 1754 
Q 1286 1754 969 1741 
Q 653 1728 365 1715 
L 365 2157 
Q 435 2157 604 2153 
Q 774 2150 1043 2144 
Q 1312 2138 1609 2134 
Q 1907 2131 2246 2125 
Q 2579 2118 2816 2118 
Q 3053 2118 3200 2118 
Q 3501 2118 3795 2118 
Q 4090 2118 4390 2125 
Q 4685 2131 4960 2131 
Q 5235 2131 5485 2138 
Q 5741 2144 5875 2147 
Q 6010 2150 6035 2150 
L 6035 1715 
z
M 5037 4998 
L 5018 3981 
L 5018 2886 
L 2938 2899 
Q 2630 2899 2393 2899 
Q 2157 2899 1984 2893 
Q 1805 2893 1635 2889 
Q 1466 2886 1299 2880 
L 1312 3936 
L 1306 5011 
L 3200 4986 
L 5037 4998 
z
" transform="scale(0.015625)"/>
     </defs>
     <use xlink:href="#AppleGothic-acf5"/>
     <use xlink:href="#AppleGothic-bd80" x="99.999985"/>
     <use xlink:href="#AppleGothic-2f" x="199.999969"/>
     <use xlink:href="#AppleGothic-c5c5" x="249.999954"/>
     <use xlink:href="#AppleGothic-bb34" x="349.999939"/>
    </g>
   </g>
   <g id="text_8">
    <!-- 10.2% -->
    <g transform="translate(226.531945 114.139492)scale(0.1 -0.1)">
     <defs>
      <path id="AppleGothic-30" d="M 2227 -83 
Q 1414 -83 934 576 
Q 461 1229 461 2387 
Q 461 3552 973 4218 
Q 1453 4858 2221 4858 
Q 3027 4858 3482 4173 
Q 3955 3494 3955 2394 
Q 3955 1248 3462 582 
Q 2976 -83 2227 -83 
z
M 2176 346 
Q 2861 346 3200 992 
Q 3462 1536 3462 2400 
Q 3462 3315 3162 3859 
Q 2822 4429 2214 4429 
Q 1574 4429 1248 3821 
Q 960 3283 960 2374 
Q 960 1478 1248 941 
Q 1574 346 2176 346 
z
" transform="scale(0.015625)"/>
     </defs>
     <use xlink:href="#AppleGothic-31"/>
     <use xlink:href="#AppleGothic-30" x="67.999985"/>
     <use xlink:href="#AppleGothic-2e" x="135.999969"/>
     <use xlink:href="#AppleGothic-32" x="170.499954"/>
     <use xlink:href="#AppleGothic-25" x="238.499939"/>
    </g>
   </g>
   <g id="text_9">
    <!-- 개인위생 -->
    <g transform="translate(137.390046 76.316284)scale(0.1 -0.1)">
     <defs>
      <path id="AppleGothic-ac1c" d="M 5658 5101 
Q 5658 5094 5648 5065 
Q 5638 5037 5626 4973 
Q 5594 4845 5594 4806 
L 5587 -467 
L 5158 -506 
L 5171 2163 
L 4256 2138 
L 4256 -186 
L 3853 -224 
Q 3853 19 3853 393 
Q 3853 768 3859 1274 
Q 3866 1786 3866 2301 
Q 3866 2816 3872 3354 
Q 3878 3898 3881 4211 
Q 3885 4525 3885 4634 
Q 3885 4883 3866 5050 
L 3898 5050 
Q 4051 5050 4188 5034 
Q 4326 5018 4326 4966 
Q 4326 4954 4294 4874 
Q 4262 4794 4262 4717 
Q 4262 4704 4262 4592 
Q 4262 4480 4256 4275 
Q 4250 4070 4250 3910 
Q 4250 3750 4250 3642 
L 4256 2483 
L 5178 2502 
L 5190 4250 
L 5190 4717 
Q 5190 4902 5187 4998 
Q 5184 5094 5171 5190 
L 5248 5190 
Q 5478 5190 5568 5171 
Q 5658 5152 5658 5101 
z
M 2989 4410 
Q 2989 4205 2966 4009 
Q 2944 3814 2899 3610 
Q 2829 3264 2691 2931 
Q 2554 2598 2362 2266 
Q 2074 1760 1651 1350 
Q 1338 1056 1011 845 
Q 774 685 730 685 
Q 704 698 691 707 
Q 678 717 666 723 
Q 634 749 608 771 
Q 582 794 563 819 
Q 525 870 457 905 
Q 390 941 390 954 
L 403 986 
Q 448 986 666 1114 
Q 992 1293 1280 1549 
Q 1485 1722 1657 1930 
Q 1830 2138 1978 2381 
Q 2291 2893 2464 3526 
Q 2490 3629 2515 3760 
Q 2541 3891 2560 4051 
L 1696 4058 
L 627 4026 
L 627 4403 
Q 723 4397 838 4397 
Q 954 4397 1082 4390 
L 1491 4390 
L 2989 4410 
z
" transform="scale(0.015625)"/>
      <path id="AppleGothic-c778" d="M 3347 3251 
Q 3347 3686 3014 3936 
Q 2714 4160 2266 4160 
Q 1805 4160 1491 3930 
Q 1146 3680 1146 3245 
Q 1146 2854 1459 2605 
Q 1773 2368 2246 2368 
Q 2714 2368 3027 2586 
Q 3347 2822 3347 3251 
z
M 5587 -13 
L 5562 -410 
L 4634 -403 
Q 4269 -403 3821 -406 
Q 3373 -410 2816 -416 
Q 1722 -435 1562 -435 
L 1568 230 
L 1542 1274 
L 1664 1274 
Q 1850 1274 1965 1254 
Q 2080 1235 2080 1184 
Q 2080 1165 2054 1081 
Q 2029 998 2029 941 
L 2029 -32 
L 2893 -45 
Q 2950 -45 3043 -45 
Q 3136 -45 3270 -38 
Q 3398 -32 3497 -32 
Q 3597 -32 3667 -32 
L 5587 -13 
z
M 5453 5062 
Q 5453 5024 5421 4944 
Q 5389 4864 5389 4832 
L 5389 3040 
Q 5389 2362 5398 1770 
Q 5408 1178 5421 762 
L 4934 749 
L 4947 3187 
L 4915 5190 
L 4979 5190 
Q 5190 5190 5321 5171 
Q 5453 5152 5453 5062 
z
M 3789 3264 
Q 3789 2694 3328 2330 
Q 2893 1997 2259 1997 
Q 1619 1997 1190 2304 
Q 710 2650 710 3194 
Q 710 3814 1171 4192 
Q 1600 4544 2234 4544 
Q 2906 4544 3347 4192 
Q 3789 3846 3789 3264 
z
" transform="scale(0.015625)"/>
      <path id="AppleGothic-c704" d="M 3667 3725 
Q 3667 4038 3430 4250 
Q 3155 4486 2682 4486 
Q 2266 4486 1984 4326 
Q 1645 4128 1645 3731 
Q 1645 3354 1965 3136 
Q 2246 2950 2675 2950 
Q 3130 2950 3398 3164 
Q 3667 3379 3667 3725 
z
M 4794 1850 
Q 4691 1837 4608 1824 
Q 4525 1811 4454 1805 
Q 4237 1779 4061 1766 
Q 3885 1754 3750 1754 
L 2861 1702 
Q 2861 1645 2854 1421 
Q 2848 1197 2848 883 
L 2861 -230 
L 2400 -262 
Q 2406 -186 2406 -80 
Q 2406 26 2413 173 
Q 2419 320 2419 432 
Q 2419 544 2419 634 
Q 2419 922 2419 1110 
Q 2419 1299 2413 1389 
Q 2413 1478 2409 1548 
Q 2406 1619 2400 1683 
L 928 1587 
Q 902 1587 794 1555 
Q 742 1542 730 1542 
Q 678 1542 659 1638 
L 595 1997 
L 678 1997 
Q 1267 2016 1772 2032 
Q 2278 2048 2682 2048 
Q 3046 2048 3414 2070 
Q 3782 2093 4166 2138 
Q 4294 2150 4444 2172 
Q 4595 2195 4774 2227 
L 4794 1850 
z
M 5523 5101 
Q 5523 5088 5497 4998 
Q 5472 4909 5472 4838 
Q 5466 4640 5466 4377 
Q 5466 4115 5466 3782 
L 5466 2534 
L 5466 1203 
Q 5466 858 5466 566 
Q 5466 275 5472 26 
Q 5478 -474 5485 -474 
L 5011 -506 
L 5030 3200 
Q 5030 3699 5030 4025 
Q 5030 4352 5024 4512 
Q 5018 4678 5011 4844 
Q 5005 5011 4992 5190 
Q 5203 5190 5363 5177 
Q 5523 5165 5523 5101 
z
M 4096 3731 
Q 4096 3238 3693 2912 
Q 3290 2586 2688 2586 
Q 2010 2586 1616 2880 
Q 1222 3174 1222 3718 
Q 1222 4250 1683 4570 
Q 2093 4858 2682 4858 
Q 3245 4858 3648 4582 
Q 4096 4269 4096 3731 
z
" transform="scale(0.015625)"/>
      <path id="AppleGothic-c0dd" d="M 5651 480 
Q 5651 -6 5164 -246 
Q 4678 -486 3738 -486 
L 3546 -493 
Q 2707 -493 2163 -288 
Q 1485 -38 1485 493 
Q 1485 1043 2163 1274 
Q 2688 1459 3590 1459 
Q 4070 1459 4451 1392 
Q 4832 1325 5097 1200 
Q 5363 1075 5507 892 
Q 5651 710 5651 480 
z
M 3552 2266 
Q 3539 2240 3539 2240 
Q 3514 2195 3482 2176 
L 3264 1978 
Q 3110 2074 3021 2163 
Q 2720 2406 2496 2701 
Q 2355 2880 2214 3162 
Q 2189 3213 2163 3273 
Q 2138 3334 2106 3405 
Q 2074 3328 2042 3264 
Q 2010 3200 1990 3149 
Q 1907 2995 1811 2848 
Q 1715 2701 1606 2554 
Q 1523 2451 1401 2326 
Q 1280 2202 1114 2048 
Q 1062 1997 982 1933 
Q 902 1869 806 1786 
Q 742 1818 557 1984 
Q 448 2074 448 2093 
Q 448 2112 480 2131 
Q 531 2163 538 2176 
Q 1171 2566 1600 3334 
Q 2029 4096 2029 4851 
Q 2131 4851 2310 4806 
Q 2515 4768 2515 4723 
Q 2502 4691 2489 4668 
Q 2477 4646 2470 4627 
L 2387 4262 
Q 2387 4154 2393 4054 
Q 2400 3955 2413 3872 
Q 2464 3565 2598 3309 
Q 2688 3142 2816 2976 
Q 2944 2810 3110 2643 
Q 3226 2534 3418 2374 
L 3552 2266 
z
M 5670 5069 
Q 5670 5043 5651 4944 
Q 5632 4845 5632 4762 
L 5626 3142 
L 5638 1542 
L 5184 1517 
L 5184 2848 
L 4378 2842 
L 4371 2490 
L 4390 1760 
L 3923 1734 
Q 3930 1875 3930 2083 
Q 3930 2291 3936 2573 
Q 3942 2861 3942 3085 
Q 3942 3309 3942 3475 
Q 3942 3558 3942 3689 
Q 3942 3821 3936 4006 
Q 3930 4192 3930 4339 
Q 3930 4486 3930 4595 
L 3910 5043 
Q 4077 5043 4243 5024 
Q 4416 5005 4416 4941 
Q 4403 4870 4390 4812 
Q 4378 4755 4378 4678 
L 4365 3891 
L 4378 3206 
L 5184 3206 
L 5197 3808 
Q 5197 3923 5193 4118 
Q 5190 4314 5184 4595 
Q 5178 4870 5174 5020 
Q 5171 5171 5171 5190 
L 5203 5190 
Q 5402 5190 5536 5168 
Q 5670 5146 5670 5069 
z
M 5184 506 
Q 5184 813 4723 960 
Q 4269 1114 3578 1114 
Q 2758 1114 2352 976 
Q 1946 838 1946 512 
Q 1946 198 2458 26 
Q 2912 -134 3590 -134 
Q 3917 -134 4189 -99 
Q 4461 -64 4678 19 
Q 5184 192 5184 506 
z
" transform="scale(0.015625)"/>
     </defs>
     <use xlink:href="#AppleGothic-ac1c"/>
     <use xlink:href="#AppleGothic-c778" x="99.999985"/>
     <use xlink:href="#AppleGothic-c704" x="199.999969"/>
     <use xlink:href="#AppleGothic-c0dd" x="299.999954"/>
    </g>
   </g>
   <g id="text_10">
    <!-- 10.2% -->
    <g transform="translate(187.178662 122.348953)scale(0.1 -0.1)">
     <use xlink:href="#AppleGothic-31"/>
     <use xlink:href="#AppleGothic-30" x="67.999985"/>
     <use xlink:href="#AppleGothic-2e" x="135.999969"/>
     <use xlink:href="#AppleGothic-32" x="170.499954"/>
     <use xlink:href="#AppleGothic-25" x="238.499939"/>
    </g>
   </g>
   <g id="text_11">
    <!-- 수면 -->
    <g transform="translate(109.470706 129.34612)scale(0.1 -0.1)">
     <defs>
      <path id="AppleGothic-c218" d="M 6022 1952 
L 3411 1952 
L 3424 896 
L 3462 -582 
L 2982 -582 
L 2982 1952 
Q 2912 1952 2774 1949 
Q 2637 1946 2419 1939 
Q 2208 1933 2086 1933 
Q 1965 1933 1933 1933 
L 378 1894 
L 378 2304 
L 3206 2298 
Q 3706 2298 4202 2307 
Q 4698 2317 5184 2330 
Q 5536 2342 6022 2368 
L 6022 1952 
z
M 5792 3482 
Q 5792 3450 5747 3402 
Q 5702 3354 5658 3315 
L 5523 3117 
Q 5453 3123 5395 3126 
Q 5338 3130 5286 3142 
Q 4685 3251 4090 3610 
Q 3699 3846 3411 4250 
Q 3360 4320 3312 4409 
Q 3264 4499 3206 4621 
Q 3149 4512 3097 4422 
Q 3046 4333 2995 4262 
Q 2688 3846 2208 3552 
Q 2054 3450 1875 3370 
Q 1696 3290 1498 3219 
Q 1382 3181 1232 3142 
Q 1082 3104 896 3072 
Q 896 3072 873 3101 
Q 851 3130 828 3162 
Q 806 3194 780 3226 
Q 755 3258 749 3270 
Q 736 3290 678 3347 
Q 621 3405 621 3424 
L 640 3443 
Q 730 3450 810 3453 
Q 890 3456 954 3469 
Q 1338 3526 1674 3676 
Q 2010 3827 2298 4077 
Q 2605 4326 2790 4659 
Q 2842 4755 2886 4880 
Q 2931 5005 2970 5171 
L 3411 5133 
Q 3475 5133 3475 5075 
Q 3475 5056 3472 5037 
Q 3469 5018 3462 4992 
Q 3462 4973 3443 4947 
Q 3482 4832 3520 4755 
Q 3738 4301 4230 3974 
Q 4659 3686 5261 3571 
Q 5363 3552 5488 3536 
Q 5613 3520 5766 3507 
Q 5786 3507 5792 3482 
z
" transform="scale(0.015625)"/>
      <path id="AppleGothic-ba74" d="M 3008 3091 
L 2995 4064 
L 2176 4077 
L 1344 4058 
L 1325 3130 
L 1344 2266 
L 2995 2291 
L 3008 3091 
z
M 5587 -435 
L 1453 -454 
L 1459 198 
L 1434 1216 
Q 1677 1216 1827 1200 
Q 1978 1184 1978 1139 
Q 1978 1120 1949 1037 
Q 1920 954 1920 883 
L 1920 -64 
L 3558 -70 
Q 3955 -70 4364 -60 
Q 4774 -51 5203 -38 
Q 5363 -38 5587 -19 
L 5587 -435 
z
M 5459 5094 
Q 5459 5069 5427 4995 
Q 5395 4922 5395 4870 
L 5408 666 
L 4934 653 
L 4947 1491 
L 4947 2189 
L 3757 2170 
L 3757 2573 
L 4378 2560 
L 4947 2579 
L 4947 3456 
L 3718 3450 
L 3718 3866 
L 4378 3853 
L 4947 3866 
Q 4947 3974 4944 4137 
Q 4941 4301 4934 4525 
Q 4915 4966 4915 5190 
L 5030 5190 
Q 5216 5190 5337 5171 
Q 5459 5152 5459 5094 
z
M 3456 1926 
L 890 1901 
L 902 3104 
L 877 4442 
L 2061 4429 
Q 2406 4429 2774 4435 
Q 3142 4442 3456 4454 
L 3443 3123 
L 3456 1926 
z
" transform="scale(0.015625)"/>
     </defs>
     <use xlink:href="#AppleGothic-c218"/>
     <use xlink:href="#AppleGothic-ba74" x="99.999985"/>
    </g>
   </g>
   <g id="text_12">
    <!-- 9.6% -->
    <g transform="translate(164.44084 151.274319)scale(0.1 -0.1)">
     <defs>
      <path id="AppleGothic-39" d="M 928 211 
L 928 762 
Q 1050 672 1155 601 
Q 1261 531 1363 480 
Q 1702 320 2016 320 
Q 2291 320 2541 435 
Q 2739 525 2908 675 
Q 3078 826 3213 1037 
Q 3456 1408 3552 1843 
Q 3616 2144 3616 2573 
Q 3315 2272 3066 2125 
Q 2605 1850 2093 1850 
Q 1459 1850 1037 2214 
Q 589 2598 589 3270 
Q 589 3987 1082 4416 
Q 1549 4832 2234 4832 
Q 2970 4832 3494 4301 
Q 4122 3661 4122 2528 
Q 4122 1325 3475 582 
Q 2874 -109 2035 -109 
Q 1722 -109 1357 19 
Q 1254 51 1148 102 
Q 1043 154 928 211 
z
M 3578 3066 
Q 3462 3718 3053 4077 
Q 2675 4403 2227 4403 
Q 1715 4403 1402 4083 
Q 1082 3750 1082 3302 
Q 1082 2861 1370 2566 
Q 1658 2278 2125 2278 
Q 2573 2278 2915 2473 
Q 3258 2669 3578 3066 
z
" transform="scale(0.015625)"/>
      <path id="AppleGothic-36" d="M 3699 4557 
L 3699 4013 
Q 3584 4102 3475 4163 
Q 3366 4224 3258 4275 
Q 3085 4358 2918 4393 
Q 2752 4429 2586 4429 
Q 2470 4429 2352 4409 
Q 2234 4390 2118 4339 
Q 1670 4154 1395 3738 
Q 1011 3149 1011 2189 
Q 1312 2490 1568 2656 
Q 2022 2931 2534 2931 
Q 3162 2931 3584 2566 
Q 4038 2163 4038 1491 
Q 4038 806 3558 358 
Q 3078 -83 2394 -83 
Q 1670 -83 1146 454 
Q 518 1088 518 2253 
Q 518 3411 1120 4134 
Q 1715 4858 2605 4858 
Q 2938 4858 3226 4762 
Q 3309 4730 3427 4682 
Q 3546 4634 3699 4557 
z
M 1062 1702 
Q 1152 1152 1498 768 
Q 1882 346 2419 346 
Q 2899 346 3213 659 
Q 3539 973 3539 1459 
Q 3539 1920 3226 2214 
Q 2918 2502 2496 2502 
Q 1990 2502 1542 2176 
Q 1414 2080 1292 1965 
Q 1171 1850 1062 1702 
z
" transform="scale(0.015625)"/>
     </defs>
     <use xlink:href="#AppleGothic-39"/>
     <use xlink:href="#AppleGothic-2e" x="67.999985"/>
     <use xlink:href="#AppleGothic-36" x="102.499969"/>
     <use xlink:href="#AppleGothic-25" x="170.499954"/>
    </g>
   </g>
   <g id="text_13">
    <!-- 자기관리 -->
    <g transform="translate(79.852395 191.095207)scale(0.1 -0.1)">
     <defs>
      <path id="AppleGothic-c790" d="M 6010 2067 
L 5139 2067 
L 5126 1037 
L 5139 -531 
L 4653 -531 
L 4672 4717 
Q 4672 4960 4665 5056 
Q 4659 5152 4646 5190 
L 4832 5197 
Q 4966 5197 5078 5174 
Q 5190 5152 5190 5101 
Q 5190 5075 5164 4998 
Q 5139 4922 5139 4883 
L 5126 3968 
L 5139 2470 
L 6010 2483 
L 6010 2067 
z
M 4218 1158 
Q 4211 1120 4195 1107 
Q 4179 1094 4144 1072 
Q 4109 1050 4057 1008 
Q 4006 966 3930 883 
Q 3923 870 3885 832 
Q 3814 877 3760 909 
Q 3706 941 3661 973 
Q 3392 1158 3174 1369 
Q 2957 1581 2790 1818 
Q 2720 1914 2643 2045 
Q 2566 2176 2477 2349 
Q 2445 2406 2406 2486 
Q 2368 2566 2317 2662 
Q 2285 2592 2259 2534 
Q 2234 2477 2208 2426 
Q 2061 2157 1901 1926 
Q 1741 1696 1568 1510 
Q 1446 1382 1289 1235 
Q 1133 1088 928 922 
Q 858 864 736 768 
Q 685 819 666 832 
Q 582 915 531 934 
Q 326 1011 326 1050 
Q 326 1056 358 1088 
Q 371 1101 387 1110 
Q 403 1120 416 1133 
Q 538 1222 627 1292 
Q 717 1363 787 1414 
Q 1197 1741 1402 2003 
Q 1766 2458 1942 2922 
Q 2118 3386 2118 3936 
L 2106 4218 
L 1568 4224 
L 646 4198 
L 646 4640 
Q 960 4627 1347 4620 
Q 1734 4614 2144 4614 
L 2330 4614 
Q 2803 4614 3212 4627 
Q 3622 4640 4000 4659 
L 4000 4230 
L 3296 4237 
L 2592 4218 
Q 2579 4122 2576 4042 
Q 2573 3962 2566 3898 
Q 2554 3712 2547 3561 
Q 2541 3411 2541 3296 
Q 2592 2995 2778 2656 
Q 2861 2502 2969 2342 
Q 3078 2182 3213 2003 
Q 3334 1850 3472 1715 
Q 3610 1581 3757 1466 
Q 3808 1434 3872 1389 
Q 3936 1344 4019 1293 
Q 4026 1286 4128 1235 
Q 4218 1184 4218 1158 
z
" transform="scale(0.015625)"/>
      <path id="AppleGothic-ae30" d="M 5427 5094 
Q 5427 5069 5408 4982 
Q 5389 4896 5389 4832 
L 5363 2362 
L 5382 -493 
L 4909 -518 
Q 4915 -371 4915 -195 
Q 4915 -19 4922 198 
Q 4934 646 4941 1299 
Q 4947 1632 4950 1872 
Q 4954 2112 4954 2259 
Q 4954 3808 4934 4346 
Q 4934 4614 4928 4822 
Q 4922 5030 4915 5184 
L 5114 5190 
Q 5261 5190 5344 5174 
Q 5427 5158 5427 5094 
z
M 3578 4486 
Q 3565 4051 3478 3635 
Q 3392 3219 3209 2819 
Q 3027 2419 2729 2041 
Q 2432 1664 1997 1306 
Q 1786 1139 1555 992 
Q 1325 845 1075 717 
Q 698 525 653 525 
Q 627 557 611 579 
Q 595 602 582 614 
Q 544 653 505 688 
Q 467 723 422 749 
Q 410 762 390 778 
Q 371 794 352 819 
Q 346 826 342 832 
Q 339 838 326 851 
Q 326 877 384 893 
Q 442 909 461 922 
Q 480 922 569 957 
Q 659 992 819 1069 
Q 1043 1171 1238 1283 
Q 1434 1395 1613 1523 
Q 2118 1888 2409 2301 
Q 2701 2714 2886 3187 
Q 2950 3354 2995 3514 
Q 3040 3674 3066 3840 
Q 3072 3898 3078 3962 
Q 3085 4026 3098 4090 
L 1766 4083 
Q 1318 4083 1046 4076 
Q 774 4070 589 4058 
L 589 4474 
Q 685 4467 800 4467 
Q 915 4467 1043 4461 
L 1466 4461 
L 3578 4486 
z
" transform="scale(0.015625)"/>
      <path id="AppleGothic-ad00" d="M 5248 -435 
L 3558 -454 
L 1376 -442 
L 1389 352 
L 1370 992 
Q 1446 992 1526 989 
Q 1606 986 1673 976 
Q 1741 966 1785 947 
Q 1830 928 1830 902 
Q 1830 890 1811 819 
Q 1792 749 1792 678 
L 1792 -77 
L 3341 -96 
L 5248 -83 
L 5248 -435 
z
M 4346 1651 
Q 4333 1651 3680 1613 
Q 3354 1600 2979 1581 
Q 2605 1562 2163 1549 
Q 1722 1536 1363 1526 
Q 1005 1517 717 1517 
Q 685 1517 643 1507 
Q 602 1498 560 1488 
Q 518 1478 486 1472 
Q 454 1466 448 1466 
Q 403 1466 384 1530 
L 326 1907 
Q 435 1888 547 1881 
Q 659 1875 755 1875 
Q 858 1875 989 1878 
Q 1120 1882 1286 1888 
Q 1613 1907 1683 1907 
L 1658 3386 
Q 1882 3386 2003 3363 
Q 2125 3341 2125 3302 
Q 2125 3309 2112 3245 
Q 2080 3130 2080 3066 
L 2074 1914 
Q 2310 1914 2521 1917 
Q 2733 1920 2925 1926 
Q 3590 1952 3942 1961 
Q 4294 1971 4346 1971 
L 4346 1651 
z
M 6112 2240 
Q 6061 2246 5987 2246 
Q 5914 2246 5818 2253 
Q 5728 2259 5667 2259 
Q 5606 2259 5574 2259 
L 5107 2253 
L 5107 518 
L 4659 518 
Q 4659 966 4672 2028 
Q 4685 3091 4685 4832 
Q 4685 5005 4678 5078 
Q 4672 5152 4659 5190 
L 4736 5190 
Q 4909 5190 5043 5174 
Q 5178 5158 5178 5101 
Q 5178 5088 5146 4998 
Q 5114 4909 5114 4838 
L 5101 2637 
L 5568 2618 
L 6112 2630 
L 6112 2240 
z
M 3622 4550 
Q 3616 4480 3616 4425 
Q 3616 4371 3610 4320 
Q 3571 3616 3571 3110 
Q 3571 2976 3561 2841 
Q 3552 2707 3539 2566 
Q 3533 2528 3526 2473 
Q 3520 2419 3507 2349 
L 3091 2362 
Q 3104 2413 3107 2457 
Q 3110 2502 3117 2534 
Q 3174 2944 3174 3283 
Q 3174 3494 3180 3635 
Q 3187 3776 3194 3904 
Q 3194 4051 3190 4105 
Q 3187 4160 3181 4192 
L 2125 4186 
Q 1773 4186 1389 4173 
Q 1005 4160 678 4147 
L 678 4544 
Q 774 4538 908 4538 
Q 1043 4538 1216 4531 
Q 1402 4525 1530 4525 
Q 1658 4525 1747 4525 
L 3622 4550 
z
" transform="scale(0.015625)"/>
      <path id="AppleGothic-b9ac" d="M 5427 5069 
Q 5427 5050 5408 4963 
Q 5389 4877 5389 4813 
L 5382 2342 
L 5395 -493 
L 4922 -499 
Q 4922 -358 4922 -147 
Q 4922 64 4928 352 
Q 4934 640 4934 931 
Q 4934 1222 4941 1530 
Q 4947 1837 4950 2016 
Q 4954 2195 4954 2246 
Q 4954 3507 4934 4045 
Q 4934 4314 4928 4598 
Q 4922 4883 4915 5190 
L 5005 5190 
Q 5171 5190 5299 5168 
Q 5427 5146 5427 5069 
z
M 4461 813 
Q 4333 781 4217 761 
Q 4102 742 4006 730 
Q 3706 685 3405 669 
Q 3104 653 2784 653 
Q 2432 653 2073 640 
Q 1715 627 1344 602 
Q 1216 595 1053 582 
Q 890 570 698 544 
L 717 1523 
L 704 2816 
L 1978 2810 
L 2605 2810 
Q 2720 2816 2829 2819 
Q 2938 2822 3046 2835 
L 3059 3450 
L 3046 4115 
L 2016 4122 
Q 1530 4122 1222 4115 
Q 915 4109 704 4096 
L 704 4512 
Q 1050 4499 1453 4492 
Q 1856 4486 2227 4486 
L 3494 4499 
L 3482 3411 
L 3494 2445 
Q 3373 2438 3213 2438 
Q 3053 2438 2848 2432 
L 2125 2432 
Q 1901 2432 1741 2432 
Q 1581 2432 1478 2426 
Q 1280 2426 1158 2406 
L 1158 979 
L 1408 973 
Q 1414 973 1542 979 
Q 1670 986 1933 998 
Q 2189 1011 2381 1017 
Q 2573 1024 2694 1024 
Q 3046 1024 3369 1046 
Q 3693 1069 3981 1114 
Q 4083 1126 4195 1148 
Q 4307 1171 4435 1203 
L 4461 813 
z
" transform="scale(0.015625)"/>
     </defs>
     <use xlink:href="#AppleGothic-c790"/>
     <use xlink:href="#AppleGothic-ae30" x="99.999985"/>
     <use xlink:href="#AppleGothic-ad00" x="199.999969"/>
     <use xlink:href="#AppleGothic-b9ac" x="299.999954"/>
    </g>
   </g>
   <g id="text_14">
    <!-- 7.6% -->
    <g transform="translate(159.194488 184.955638)scale(0.1 -0.1)">
     <use xlink:href="#AppleGothic-37"/>
     <use xlink:href="#AppleGothic-2e" x="67.999985"/>
     <use xlink:href="#AppleGothic-36" x="102.499969"/>
     <use xlink:href="#AppleGothic-25" x="170.499954"/>
    </g>
   </g>
   <g id="text_15">
    <!-- 휴식 -->
    <g transform="translate(117.953584 241.34864)scale(0.1 -0.1)">
     <defs>
      <path id="AppleGothic-d734" d="M 4365 2963 
Q 4365 3187 4073 3302 
Q 3782 3418 3142 3418 
Q 2432 3418 2150 3258 
Q 1984 3155 1984 2970 
Q 1984 2726 2317 2611 
Q 2490 2554 2704 2528 
Q 2918 2502 3181 2502 
Q 3782 2502 4073 2630 
Q 4365 2758 4365 2963 
z
M 6042 1453 
L 4422 1472 
L 4442 -570 
L 3974 -570 
L 3974 1466 
L 3392 1472 
L 2496 1459 
L 2490 851 
L 2502 -550 
L 2042 -557 
L 2054 1453 
L 1331 1453 
Q 1062 1453 822 1440 
Q 582 1427 358 1408 
L 358 1805 
Q 448 1805 669 1801 
Q 890 1798 1235 1792 
Q 1587 1786 1856 1786 
Q 2125 1786 2323 1786 
L 3194 1792 
Q 3840 1792 4291 1795 
Q 4742 1798 5011 1805 
Q 5280 1811 5465 1817 
Q 5651 1824 5747 1830 
Q 5856 1837 5929 1843 
Q 6003 1850 6042 1856 
L 6042 1453 
z
M 4813 2950 
Q 4813 2605 4442 2400 
Q 4230 2291 3916 2236 
Q 3603 2182 3174 2182 
Q 2810 2182 2525 2224 
Q 2240 2266 2035 2342 
Q 1530 2554 1530 2995 
Q 1530 3386 1936 3552 
Q 2342 3718 3136 3718 
Q 4006 3718 4409 3542 
Q 4813 3366 4813 2950 
z
M 5382 3994 
Q 5229 4000 5104 4000 
Q 4979 4000 4883 4000 
Q 4198 4013 3750 4019 
Q 3302 4026 3091 4026 
Q 2400 4026 1894 4013 
Q 1389 4000 960 3981 
L 960 4378 
Q 1363 4365 1884 4358 
Q 2406 4352 3046 4352 
Q 3738 4352 4310 4368 
Q 4883 4384 5382 4403 
L 5382 3994 
z
M 3910 4730 
L 3104 4736 
Q 2880 4736 2739 4736 
Q 2598 4736 2534 4730 
Q 2477 4730 2425 4726 
Q 2374 4723 2330 4717 
L 2330 5126 
Q 2496 5114 2701 5107 
Q 2906 5101 3098 5101 
Q 3302 5101 3513 5107 
Q 3725 5114 3910 5126 
L 3910 4730 
z
" transform="scale(0.015625)"/>
     </defs>
     <use xlink:href="#AppleGothic-d734"/>
     <use xlink:href="#AppleGothic-c2dd" x="99.999985"/>
    </g>
   </g>
   <g id="text_16">
    <!-- 7.0% -->
    <g transform="translate(169.067864 212.366602)scale(0.1 -0.1)">
     <use xlink:href="#AppleGothic-37"/>
     <use xlink:href="#AppleGothic-2e" x="67.999985"/>
     <use xlink:href="#AppleGothic-30" x="102.499969"/>
     <use xlink:href="#AppleGothic-25" x="170.499954"/>
    </g>
   </g>
   <g id="text_17">
    <!-- 외출/귀가 -->
    <g transform="translate(129.4879 277.119315)scale(0.1 -0.1)">
     <defs>
      <path id="AppleGothic-c678" d="M 3552 3552 
Q 3552 3955 3226 4186 
Q 2944 4403 2515 4403 
Q 2067 4403 1766 4186 
Q 1434 3955 1434 3552 
Q 1434 3181 1658 2957 
Q 1926 2669 2483 2669 
Q 2963 2669 3257 2902 
Q 3552 3136 3552 3552 
z
M 5466 5101 
Q 5466 5088 5440 4982 
Q 5414 4877 5414 4781 
L 5395 736 
Q 5395 237 5388 -32 
Q 5382 -301 5370 -474 
L 4909 -499 
Q 4928 -83 4941 582 
Q 4954 1248 4954 2202 
L 4954 3053 
Q 4954 3622 4954 3987 
Q 4954 4352 4947 4518 
Q 4941 4691 4937 4857 
Q 4934 5024 4922 5190 
L 5107 5197 
Q 5242 5197 5354 5174 
Q 5466 5152 5466 5101 
z
M 4672 1203 
Q 4525 1184 4377 1165 
Q 4230 1146 4083 1126 
Q 3341 1030 2669 973 
Q 1696 896 986 896 
Q 947 896 899 886 
Q 851 877 803 864 
Q 755 851 713 841 
Q 672 832 659 832 
Q 589 832 576 902 
L 512 1254 
Q 774 1254 1030 1260 
Q 1286 1267 1542 1280 
Q 1805 1293 2000 1315 
Q 2195 1338 2330 1370 
L 2349 1824 
Q 2349 1990 2342 2108 
Q 2336 2227 2323 2285 
Q 2182 2285 1990 2342 
Q 1600 2445 1350 2688 
Q 1005 3014 1005 3552 
Q 1005 4013 1350 4371 
Q 1754 4774 2483 4774 
Q 3200 4774 3616 4397 
Q 4000 4038 4000 3539 
Q 4000 2861 3405 2515 
Q 3309 2458 3158 2403 
Q 3008 2349 2803 2298 
L 2797 1830 
L 2803 1414 
Q 2950 1414 3184 1433 
Q 3418 1453 3731 1485 
Q 4352 1562 4646 1562 
L 4672 1203 
z
" transform="scale(0.015625)"/>
      <path id="AppleGothic-cd9c" d="M 5946 2099 
L 4666 2125 
Q 4627 2125 4560 2125 
Q 4493 2125 4403 2131 
Q 4314 2138 4243 2138 
Q 4173 2138 4122 2138 
L 3398 2125 
L 3398 1510 
L 4243 1510 
L 5088 1542 
L 5075 979 
L 5088 442 
L 2778 461 
Q 2432 461 2189 454 
Q 1946 448 1773 435 
L 1773 -58 
Q 1997 -70 2294 -76 
Q 2592 -83 2976 -83 
L 5203 -64 
L 5203 -422 
Q 5069 -416 4957 -416 
Q 4845 -416 4755 -416 
Q 3526 -397 3226 -397 
Q 2733 -397 2256 -403 
Q 1779 -410 1306 -422 
L 1325 198 
Q 1325 448 1321 557 
Q 1318 666 1306 755 
L 3091 730 
L 3347 730 
L 4141 730 
Q 4269 736 4390 739 
Q 4512 742 4627 749 
L 4627 1216 
L 3379 1229 
L 1306 1210 
L 1306 1542 
L 2112 1510 
L 2950 1510 
L 2950 2138 
L 1677 2125 
Q 1370 2125 1043 2118 
Q 717 2112 435 2099 
L 435 2490 
Q 557 2483 752 2480 
Q 947 2477 1229 2464 
Q 1798 2451 2243 2444 
Q 2688 2438 3142 2438 
Q 3379 2438 3606 2438 
Q 3834 2438 4058 2445 
Q 4506 2458 5101 2464 
Q 5402 2477 5610 2480 
Q 5818 2483 5946 2490 
L 5946 2099 
z
M 5421 3021 
Q 5414 3002 5414 2989 
Q 5402 2957 5370 2925 
Q 5363 2912 5340 2877 
Q 5318 2842 5286 2784 
Q 5274 2771 5261 2742 
Q 5248 2714 5229 2682 
Q 4992 2714 4858 2739 
Q 4634 2784 4416 2867 
Q 4198 2950 4000 3056 
Q 3802 3162 3632 3283 
Q 3462 3405 3341 3526 
Q 3302 3571 3260 3616 
Q 3219 3661 3174 3725 
Q 2989 3501 2822 3373 
Q 2541 3155 2202 3002 
Q 1811 2822 1440 2733 
Q 1325 2707 1139 2675 
L 947 2938 
Q 928 2970 915 3002 
Q 915 3014 909 3021 
Q 909 3034 947 3043 
Q 986 3053 1040 3059 
Q 1094 3066 1148 3069 
Q 1203 3072 1242 3072 
Q 1658 3142 2074 3328 
Q 2560 3533 2803 3802 
Q 2880 3878 2970 4026 
L 2086 4026 
L 1037 3987 
L 1037 4365 
L 3155 4339 
L 3450 4339 
Q 4070 4339 4518 4345 
Q 4966 4352 5299 4365 
L 5299 3987 
Q 5062 4000 4947 4006 
Q 4717 4019 4566 4025 
Q 4416 4032 4352 4032 
L 3354 4026 
Q 3629 3622 4179 3360 
Q 4448 3283 4710 3206 
Q 4973 3130 5242 3053 
Q 5421 3053 5421 3021 
z
M 3846 4806 
Q 3699 4819 3523 4825 
Q 3347 4832 3181 4832 
Q 3014 4832 2838 4825 
Q 2662 4819 2509 4806 
L 2509 5171 
L 3162 5152 
Q 3405 5152 3581 5161 
Q 3757 5171 3846 5184 
L 3846 4806 
z
" transform="scale(0.015625)"/>
      <path id="AppleGothic-adc0" d="M 4563 2214 
L 2688 2074 
L 2694 -186 
L 2259 -224 
L 2259 2048 
Q 2170 2042 2099 2038 
Q 2029 2035 1971 2035 
Q 1606 2022 1312 2012 
Q 1018 2003 774 2003 
Q 710 2003 604 1987 
Q 499 1971 467 1971 
Q 403 1971 403 2003 
L 371 2381 
L 749 2381 
Q 1101 2381 1373 2387 
Q 1645 2394 1888 2400 
L 3130 2464 
Q 3200 2669 3296 3264 
Q 3341 3571 3363 3769 
Q 3386 3968 3386 4077 
L 787 4038 
L 787 4429 
L 2304 4416 
L 3859 4429 
Q 3859 4166 3744 3488 
Q 3693 3149 3645 2902 
Q 3597 2656 3558 2490 
Q 3661 2490 3753 2493 
Q 3846 2496 3930 2502 
Q 4230 2528 4387 2534 
Q 4544 2541 4563 2541 
L 4563 2214 
z
M 5427 5082 
Q 5402 4998 5379 4912 
Q 5357 4826 5357 4755 
L 5357 -454 
L 4915 -480 
Q 4915 -301 4915 -64 
Q 4915 173 4922 474 
Q 4928 781 4928 1152 
Q 4928 1523 4934 1984 
Q 4934 2438 4937 2908 
Q 4941 3379 4941 3878 
L 4941 4742 
Q 4941 4947 4934 5046 
Q 4928 5146 4915 5190 
L 4979 5190 
Q 5165 5190 5296 5171 
Q 5427 5152 5427 5082 
z
" transform="scale(0.015625)"/>
      <path id="AppleGothic-ac00" d="M 6189 1965 
L 5133 1965 
L 5133 -538 
L 4685 -538 
L 4691 3232 
Q 4691 3750 4691 4086 
Q 4691 4422 4685 4576 
Q 4678 4730 4675 4883 
Q 4672 5037 4659 5190 
L 4800 5190 
Q 4966 5190 5065 5174 
Q 5165 5158 5165 5094 
Q 5165 5075 5149 4998 
Q 5133 4922 5133 4890 
L 5133 2355 
L 6189 2368 
L 6189 1965 
z
M 3264 4205 
Q 3264 3802 3162 3392 
Q 3008 2733 2630 2131 
Q 2253 1530 1728 1069 
Q 1530 902 1331 764 
Q 1133 627 928 512 
Q 627 352 576 352 
L 262 717 
Q 301 717 570 845 
Q 960 1030 1286 1280 
Q 1760 1645 2106 2138 
Q 2253 2349 2368 2569 
Q 2483 2790 2573 3027 
Q 2637 3194 2681 3350 
Q 2726 3507 2752 3667 
Q 2758 3738 2764 3802 
Q 2771 3866 2784 3930 
L 1690 3930 
Q 1421 3930 1225 3930 
Q 1030 3930 902 3923 
Q 774 3917 675 3913 
Q 576 3910 499 3904 
L 499 4352 
Q 704 4339 992 4326 
Q 1280 4314 1702 4314 
L 1843 4314 
Q 2406 4314 2729 4320 
Q 3053 4326 3258 4339 
L 3264 4205 
z
" transform="scale(0.015625)"/>
     </defs>
     <use xlink:href="#AppleGothic-c678"/>
     <use xlink:href="#AppleGothic-cd9c" x="99.999985"/>
     <use xlink:href="#AppleGothic-2f" x="199.999969"/>
     <use xlink:href="#AppleGothic-adc0" x="249.999954"/>
     <use xlink:href="#AppleGothic-ac00" x="349.999939"/>
    </g>
   </g>
   <g id="text_18">
    <!-- 7.0% -->
    <g transform="translate(188.995672 231.877879)scale(0.1 -0.1)">
     <use xlink:href="#AppleGothic-37"/>
     <use xlink:href="#AppleGothic-2e" x="67.999985"/>
     <use xlink:href="#AppleGothic-30" x="102.499969"/>
     <use xlink:href="#AppleGothic-25" x="170.499954"/>
    </g>
   </g>
   <g id="text_19">
    <!-- 기타 -->
    <g transform="translate(186.673103 290.903744)scale(0.1 -0.1)">
     <defs>
      <path id="AppleGothic-d0c0" d="M 6022 2618 
L 6016 2202 
L 5146 2202 
L 5152 -493 
L 4653 -493 
Q 4653 -378 4653 -205 
Q 4653 -32 4659 198 
Q 4666 429 4666 720 
Q 4666 1011 4672 1357 
Q 4678 1709 4681 1968 
Q 4685 2227 4685 2400 
Q 4685 3238 4685 3763 
Q 4685 4288 4678 4518 
Q 4666 4979 4659 5190 
L 4762 5190 
Q 4934 5190 5068 5164 
Q 5203 5139 5203 5075 
Q 5203 5043 5180 4963 
Q 5158 4883 5158 4838 
L 5152 2611 
L 6022 2618 
z
M 4288 1222 
L 2605 1024 
Q 2278 992 1948 966 
Q 1619 941 1274 928 
Q 1037 915 710 909 
L 742 2714 
L 730 4538 
L 2253 4512 
L 3859 4525 
L 3859 4134 
L 2470 4154 
L 1190 4141 
L 1190 3034 
Q 1389 3021 1747 3014 
Q 1933 3008 2096 3008 
Q 2259 3008 2406 3008 
L 3744 3027 
L 3744 2630 
Q 3456 2643 3107 2649 
Q 2758 2656 2432 2656 
Q 2150 2656 1833 2646 
Q 1517 2637 1190 2630 
L 1190 1325 
Q 1344 1331 1465 1334 
Q 1587 1338 1690 1344 
Q 2259 1376 2682 1421 
Q 2893 1446 3174 1478 
Q 3456 1510 3821 1555 
Q 3910 1568 4028 1581 
Q 4147 1594 4288 1613 
L 4288 1222 
z
" transform="scale(0.015625)"/>
     </defs>
     <use xlink:href="#AppleGothic-ae30"/>
     <use xlink:href="#AppleGothic-d0c0" x="99.999985"/>
    </g>
   </g>
   <g id="text_20">
    <!-- 2.5% -->
    <g transform="translate(206.551238 239.396659)scale(0.1 -0.1)">
     <use xlink:href="#AppleGothic-32"/>
     <use xlink:href="#AppleGothic-2e" x="67.999985"/>
     <use xlink:href="#AppleGothic-35" x="102.499969"/>
     <use xlink:href="#AppleGothic-25" x="170.499954"/>
    </g>
   </g>
   <g id="text_21">
    <!-- Light-직전 상황-157개 -->
    <g transform="translate(173.176875 35.472)scale(0.12 -0.12)">
     <defs>
      <path id="AppleGothic-4c" d="M 333 5018 
L 838 5018 
L 838 442 
L 3315 442 
L 3315 0 
L 333 0 
L 333 5018 
z
" transform="scale(0.015625)"/>
      <path id="AppleGothic-69" d="M 256 3424 
L 717 3424 
L 717 0 
L 256 0 
L 256 3424 
z
M 480 4870 
Q 614 4870 704 4780 
Q 794 4691 794 4525 
Q 794 4358 710 4268 
Q 627 4179 480 4179 
Q 333 4179 253 4281 
Q 173 4384 173 4518 
Q 173 4730 269 4800 
Q 365 4870 480 4870 
z
" transform="scale(0.015625)"/>
      <path id="AppleGothic-67" d="M 2822 3040 
L 2950 3424 
L 3290 3424 
L 3290 326 
Q 3290 -474 2899 -890 
Q 2509 -1306 1690 -1306 
Q 1357 -1306 1059 -1187 
Q 762 -1069 435 -819 
L 435 -256 
Q 640 -448 838 -579 
Q 1037 -710 1229 -781 
Q 1453 -864 1690 -864 
Q 2195 -864 2477 -634 
Q 2822 -352 2822 269 
L 2822 691 
Q 2579 288 2221 122 
Q 1978 6 1683 6 
Q 1050 6 621 512 
Q 198 1030 198 1709 
Q 198 2387 595 2906 
Q 1056 3501 1773 3501 
Q 2131 3501 2451 3328 
Q 2547 3270 2640 3200 
Q 2733 3130 2822 3040 
z
M 2822 1658 
L 2822 2598 
Q 2714 2720 2602 2803 
Q 2490 2886 2381 2950 
Q 2253 3021 2118 3053 
Q 1984 3085 1843 3085 
Q 1363 3085 1050 2746 
Q 698 2362 698 1734 
Q 698 1165 992 794 
Q 1280 429 1741 429 
Q 2195 429 2509 781 
Q 2822 1120 2822 1658 
z
" transform="scale(0.015625)"/>
      <path id="AppleGothic-68" d="M 288 5018 
L 749 5018 
L 749 2810 
Q 909 3066 1139 3238 
Q 1491 3501 1926 3501 
Q 2195 3501 2409 3424 
Q 2624 3347 2803 3200 
Q 3181 2867 3181 2266 
L 3181 0 
L 2714 0 
L 2714 2202 
Q 2714 2573 2477 2829 
Q 2240 3085 1901 3085 
Q 1408 3085 1082 2694 
Q 749 2291 749 1773 
L 749 0 
L 288 0 
L 288 5018 
z
" transform="scale(0.015625)"/>
      <path id="AppleGothic-74" d="M 691 4435 
L 1114 4435 
L 1114 3430 
L 2016 3430 
L 2016 3014 
L 1114 3014 
L 1114 838 
Q 1114 570 1213 454 
Q 1312 339 1555 339 
Q 1696 339 1795 371 
Q 1894 403 2016 454 
L 2016 38 
Q 1914 6 1770 -22 
Q 1626 -51 1478 -51 
Q 1094 -51 883 122 
Q 646 301 646 698 
L 646 3014 
L 70 3014 
L 70 3430 
L 646 3430 
L 691 4435 
z
" transform="scale(0.015625)"/>
      <path id="AppleGothic-2d" d="M 256 1958 
L 2349 1958 
L 2349 1491 
L 256 1491 
L 256 1958 
z
" transform="scale(0.015625)"/>
      <path id="AppleGothic-c9c1" d="M 5421 -397 
Q 5421 -499 5318 -525 
Q 5248 -531 5206 -531 
Q 5165 -531 5133 -538 
Q 4922 -538 4922 -454 
L 4934 390 
L 4934 1139 
L 1286 1107 
L 1286 1517 
L 3424 1504 
L 5414 1523 
L 5408 499 
L 5421 -397 
z
M 4346 2374 
Q 4339 2368 4339 2362 
Q 4326 2336 4269 2278 
L 4032 2042 
Q 3923 2106 3843 2154 
Q 3763 2202 3699 2246 
Q 3296 2515 3033 2800 
Q 2771 3085 2605 3424 
Q 2592 3456 2576 3491 
Q 2560 3526 2541 3571 
Q 2509 3482 2470 3408 
Q 2432 3334 2400 3283 
Q 2208 2957 1897 2662 
Q 1587 2368 1184 2144 
Q 1114 2106 1030 2064 
Q 947 2022 838 1978 
L 493 2240 
Q 454 2266 442 2285 
Q 435 2285 429 2291 
Q 442 2304 448 2304 
Q 486 2330 499 2336 
Q 1229 2541 1734 3085 
Q 2278 3674 2278 4403 
L 826 4403 
L 826 4794 
Q 922 4794 1146 4790 
Q 1370 4787 1715 4781 
Q 2061 4774 2249 4774 
Q 2438 4774 2477 4774 
L 4141 4794 
L 4141 4403 
L 2746 4403 
Q 2778 4179 2803 4070 
Q 2899 3706 3123 3379 
Q 3411 2982 3866 2675 
Q 3942 2624 4041 2569 
Q 4141 2515 4269 2445 
Q 4269 2445 4320 2413 
Q 4346 2406 4346 2374 
z
M 5459 5062 
Q 5459 5037 5436 4969 
Q 5414 4902 5414 4877 
Q 5402 4627 5395 4288 
Q 5389 3949 5389 3475 
L 5402 1920 
Q 5402 1882 5395 1856 
Q 5389 1830 5363 1814 
Q 5338 1798 5283 1785 
Q 5229 1773 5126 1766 
Q 4922 1766 4922 1837 
L 4947 3565 
Q 4947 3878 4947 4121 
Q 4947 4365 4941 4538 
Q 4934 4717 4934 4880 
Q 4934 5043 4922 5190 
L 4979 5190 
Q 5190 5190 5324 5168 
Q 5459 5146 5459 5062 
z
" transform="scale(0.015625)"/>
      <path id="AppleGothic-c804" d="M 3981 2138 
L 3648 1830 
Q 3616 1850 3587 1869 
Q 3558 1888 3533 1901 
Q 3226 2112 2854 2522 
Q 2643 2739 2496 3066 
Q 2445 3162 2381 3334 
Q 2304 3142 2246 3027 
Q 2144 2842 2022 2666 
Q 1901 2490 1741 2323 
Q 1504 2067 1146 1798 
Q 1088 1754 1011 1706 
Q 934 1658 838 1594 
Q 832 1613 557 1792 
Q 429 1882 429 1901 
Q 1126 2195 1626 2842 
Q 2170 3546 2170 4256 
Q 2138 4262 2102 4265 
Q 2067 4269 2035 4269 
Q 1786 4288 1530 4288 
L 806 4269 
L 806 4672 
Q 992 4659 1328 4646 
Q 1664 4634 2163 4634 
L 2336 4634 
Q 2662 4634 2902 4637 
Q 3142 4640 3309 4646 
Q 3475 4653 3606 4659 
Q 3738 4666 3846 4666 
L 3846 4269 
L 3264 4282 
Q 3046 4282 2758 4262 
Q 2733 4262 2697 4259 
Q 2662 4256 2611 4250 
Q 2611 3917 2675 3667 
Q 2771 3270 3024 2960 
Q 3277 2650 3558 2426 
Q 3635 2355 3737 2294 
Q 3840 2234 3968 2163 
L 3981 2138 
z
M 5587 -13 
L 5562 -410 
L 4634 -403 
Q 4256 -403 3792 -406 
Q 3328 -410 2752 -416 
Q 1619 -435 1440 -435 
L 1446 230 
L 1421 1274 
L 1536 1274 
Q 1722 1274 1840 1254 
Q 1958 1235 1958 1184 
Q 1958 1165 1932 1081 
Q 1907 998 1907 941 
L 1907 -32 
L 2893 -45 
Q 2950 -45 3043 -45 
Q 3136 -45 3270 -38 
Q 3398 -32 3497 -32 
Q 3597 -32 3667 -32 
L 5587 -13 
z
M 5421 5075 
Q 5421 5056 5401 4995 
Q 5382 4934 5382 4883 
L 5370 2893 
Q 5370 2566 5370 2288 
Q 5370 2010 5376 1763 
Q 5382 1517 5385 1296 
Q 5389 1075 5402 864 
L 4928 864 
L 4941 2042 
L 4941 3059 
L 3757 3059 
L 3757 3475 
L 4218 3462 
L 4941 3482 
L 4941 4698 
Q 4941 5088 4915 5190 
L 4941 5190 
Q 5139 5190 5280 5171 
Q 5421 5152 5421 5075 
z
" transform="scale(0.015625)"/>
      <path id="AppleGothic-c0c1" d="M 5312 538 
Q 5312 -26 4698 -237 
Q 4237 -403 3264 -403 
Q 2381 -403 1837 -173 
Q 1235 77 1235 538 
Q 1235 1120 1843 1363 
Q 2074 1453 2426 1497 
Q 2778 1542 3258 1542 
Q 3686 1542 4019 1500 
Q 4352 1459 4595 1382 
Q 5312 1146 5312 538 
z
M 3942 2413 
Q 3942 2394 3866 2330 
Q 3648 2170 3635 2144 
Q 3546 2195 3469 2240 
Q 3392 2285 3334 2323 
Q 2970 2566 2717 2848 
Q 2464 3130 2278 3456 
Q 2253 3507 2221 3574 
Q 2189 3642 2144 3731 
Q 2093 3616 2051 3517 
Q 2010 3418 1971 3341 
Q 1843 3117 1692 2918 
Q 1542 2720 1357 2534 
Q 1229 2406 1094 2297 
Q 960 2189 819 2086 
Q 768 2054 713 2019 
Q 659 1984 589 1939 
Q 538 1965 416 2042 
Q 365 2093 291 2125 
Q 218 2157 218 2176 
L 230 2202 
Q 307 2246 364 2278 
Q 422 2310 474 2342 
Q 762 2534 1014 2777 
Q 1267 3021 1472 3322 
Q 1613 3514 1709 3718 
Q 1805 3923 1869 4141 
Q 1952 4435 1952 4736 
L 1946 4909 
Q 2016 4909 2099 4902 
Q 2182 4896 2278 4883 
Q 2477 4858 2477 4794 
Q 2477 4774 2419 4713 
Q 2362 4653 2362 4506 
Q 2362 4371 2403 4211 
Q 2445 4051 2573 3770 
Q 2746 3386 3091 3040 
Q 3213 2918 3353 2809 
Q 3494 2701 3661 2592 
Q 3910 2438 3930 2438 
L 3942 2413 
z
M 6010 2784 
L 5933 2784 
Q 5606 2803 5530 2803 
L 5114 2771 
L 5107 2342 
Q 5107 2080 5110 1949 
Q 5114 1818 5120 1734 
L 4653 1722 
Q 4666 1914 4672 2272 
Q 4678 2630 4678 3046 
Q 4678 3482 4678 3808 
Q 4678 4134 4672 4358 
Q 4672 4582 4669 4790 
Q 4666 4998 4659 5190 
L 4730 5190 
Q 4915 5190 5046 5171 
Q 5178 5152 5178 5094 
Q 5158 5030 5139 4969 
Q 5120 4909 5120 4845 
L 5107 4294 
L 5120 3162 
L 5504 3149 
Q 5690 3149 5814 3155 
Q 5939 3162 6010 3174 
L 6010 2784 
z
M 4858 544 
Q 4858 928 4333 1094 
Q 4141 1158 3872 1184 
Q 3603 1210 3258 1210 
Q 2464 1210 2118 1088 
Q 1683 928 1683 544 
Q 1715 282 2121 122 
Q 2528 -38 3270 -38 
Q 4058 -38 4416 70 
Q 4858 192 4858 544 
z
" transform="scale(0.015625)"/>
      <path id="AppleGothic-d669" d="M 4749 416 
Q 4749 742 4192 870 
Q 4032 902 3814 918 
Q 3597 934 3322 934 
Q 1914 934 1914 416 
Q 1914 102 2464 -13 
Q 2611 -45 2825 -61 
Q 3040 -77 3322 -77 
Q 3923 -77 4205 -13 
Q 4749 102 4749 416 
z
M 3200 3046 
Q 3200 3290 2854 3366 
Q 2650 3418 2349 3418 
Q 1990 3418 1818 3373 
Q 1459 3296 1459 3046 
Q 1459 2842 1728 2765 
Q 1901 2714 2208 2714 
L 2496 2714 
Q 2778 2714 2950 2765 
Q 3200 2829 3200 3046 
z
M 5178 416 
Q 5178 -102 4461 -314 
Q 4237 -384 3952 -413 
Q 3667 -442 3322 -442 
Q 2982 -442 2704 -410 
Q 2426 -378 2202 -307 
Q 1472 -83 1472 429 
Q 1472 947 2195 1152 
Q 2624 1267 3322 1267 
Q 3674 1267 3955 1235 
Q 4237 1203 4461 1146 
Q 5178 934 5178 416 
z
M 4371 1798 
Q 4192 1773 4048 1757 
Q 3904 1741 3782 1728 
Q 3392 1683 3033 1664 
Q 2675 1645 2330 1645 
Q 1798 1645 1050 1587 
Q 979 1581 892 1574 
Q 806 1568 698 1555 
Q 646 1555 560 1526 
Q 474 1498 454 1498 
Q 416 1498 390 1539 
Q 365 1581 352 1645 
Q 339 1709 332 1785 
Q 326 1862 326 1939 
L 2144 1971 
L 2138 2406 
Q 1920 2419 1737 2457 
Q 1555 2496 1402 2566 
Q 1062 2733 1062 3046 
Q 1062 3482 1568 3622 
Q 1824 3706 2349 3706 
Q 2874 3706 3123 3622 
Q 3610 3482 3610 3046 
Q 3610 2650 3110 2496 
Q 2976 2470 2841 2451 
Q 2707 2432 2566 2406 
L 2560 2010 
Q 2752 2022 2960 2035 
Q 3168 2048 3411 2074 
L 4320 2163 
L 4371 1798 
z
M 6010 2682 
L 5530 2701 
L 5126 2694 
L 5126 1421 
L 4685 1389 
L 4698 3149 
Q 4698 3699 4698 4054 
Q 4698 4410 4691 4570 
Q 4685 4736 4681 4886 
Q 4678 5037 4666 5184 
L 4755 5184 
Q 4966 5184 5059 5152 
Q 5152 5120 5152 5062 
Q 5152 5037 5129 4963 
Q 5107 4890 5107 4858 
L 5107 4141 
L 5107 3398 
Q 5114 3302 5117 3219 
Q 5120 3136 5126 3066 
L 5523 3059 
Q 5875 3059 6010 3078 
L 6010 2682 
z
M 4083 3949 
Q 3974 3955 3888 3955 
Q 3802 3955 3731 3955 
Q 3232 3968 2877 3974 
Q 2522 3981 2291 3981 
L 2163 3981 
Q 1664 3981 1312 3974 
Q 960 3968 640 3949 
L 640 4333 
Q 909 4320 1254 4307 
Q 1600 4294 2016 4294 
L 2259 4294 
Q 2771 4294 3238 4307 
Q 3706 4320 4083 4333 
L 4083 3949 
z
M 3053 4646 
L 2336 4659 
L 1677 4646 
L 1677 4998 
L 2310 4986 
L 3053 4998 
L 3053 4646 
z
" transform="scale(0.015625)"/>
     </defs>
     <use xlink:href="#AppleGothic-4c"/>
     <use xlink:href="#AppleGothic-69" x="55.199997"/>
     <use xlink:href="#AppleGothic-67" x="71.099991"/>
     <use xlink:href="#AppleGothic-68" x="127.299988"/>
     <use xlink:href="#AppleGothic-74" x="179.499985"/>
     <use xlink:href="#AppleGothic-2d" x="213.699982"/>
     <use xlink:href="#AppleGothic-c9c1" x="263.699966"/>
     <use xlink:href="#AppleGothic-c804" x="363.699951"/>
     <use xlink:href="#AppleGothic-20" x="463.699936"/>
     <use xlink:href="#AppleGothic-c0c1" x="495.699921"/>
     <use xlink:href="#AppleGothic-d669" x="595.699905"/>
     <use xlink:href="#AppleGothic-2d" x="695.69989"/>
     <use xlink:href="#AppleGothic-31" x="745.699875"/>
     <use xlink:href="#AppleGothic-35" x="813.69986"/>
     <use xlink:href="#AppleGothic-37" x="881.699844"/>
     <use xlink:href="#AppleGothic-ac1c" x="949.699829"/>
    </g>
   </g>
  </g>
 </g>
</svg>
