<?xml version="1.0" encoding="utf-8" standalone="no"?>
<!DOCTYPE svg PUBLIC "-//W3C//DTD SVG 1.1//EN"
  "http://www.w3.org/Graphics/SVG/1.1/DTD/svg11.dtd">
<svg xmlns:xlink="http://www.w3.org/1999/xlink" width="460.8pt" height="345.6pt" viewBox="0 0 460.8 345.6" xmlns="http://www.w3.org/2000/svg" version="1.1">
 <metadata>
  <rdf:RDF xmlns:dc="http://purl.org/dc/elements/1.1/" xmlns:cc="http://creativecommons.org/ns#" xmlns:rdf="http://www.w3.org/1999/02/22-rdf-syntax-ns#">
   <cc:Work>
    <dc:type rdf:resource="http://purl.org/dc/dcmitype/StillImage"/>
    <dc:date>2023-06-28T14:10:34.489566</dc:date>
    <dc:format>image/svg+xml</dc:format>
    <dc:creator>
     <cc:Agent>
      <dc:title>Matplotlib v3.5.2, https://matplotlib.org/</dc:title>
     </cc:Agent>
    </dc:creator>
   </cc:Work>
  </rdf:RDF>
 </metadata>
 <defs>
  <style type="text/css">*{stroke-linejoin: round; stroke-linecap: butt}</style>
 </defs>
 <g id="figure_1">
  <g id="patch_1">
   <path d="M 0 345.6 
L 460.8 345.6 
L 460.8 0 
L 0 0 
z
" style="fill: #ffffff"/>
  </g>
  <g id="axes_1">
   <g id="patch_2">
    <path d="M 217.676054 279.355664 
C 233.423746 282.132407 249.596598 281.325254 264.989562 276.994345 
C 280.382525 272.663436 294.60355 264.919078 306.59302 254.338307 
C 318.58249 243.757537 328.035039 230.609839 334.246354 215.874858 
C 340.457668 201.139877 343.269548 185.192904 342.47248 169.222156 
C 341.675412 153.251409 337.289696 137.663653 329.642115 123.620342 
C 321.994533 109.57703 311.279866 97.435839 298.296468 88.101414 
C 285.313071 78.766989 270.391623 72.477074 254.643931 69.700333 
C 238.896239 66.923592 222.723387 67.730748 207.330424 72.061659 
L 236.16 174.528 
L 217.676054 279.355664 
z
" style="fill: #ffc0cb"/>
   </g>
   <g id="patch_3">
    <path d="M 207.330424 72.061659 
C 184.122214 78.591441 163.807068 92.816265 149.733411 112.391536 
C 135.659754 131.966807 128.645766 155.754509 129.84752 179.833854 
L 236.16 174.528 
L 207.330424 72.061659 
z
" style="fill: #f08080"/>
   </g>
   <g id="patch_4">
    <path d="M 129.84752 179.833854 
C 130.244813 187.794342 131.534953 195.685082 133.69366 203.357578 
C 135.852367 211.030075 138.866015 218.435894 142.67789 225.435667 
L 236.16 174.528 
L 129.84752 179.833854 
z
" style="fill: #40e0d0"/>
   </g>
   <g id="patch_5">
    <path d="M 142.67789 225.435667 
C 146.489765 232.43544 151.075805 238.984981 156.349704 244.961033 
C 161.623604 250.937085 167.552071 256.301925 174.02354 260.954592 
L 236.16 174.528 
L 142.67789 225.435667 
z
" style="fill: #ff0000"/>
   </g>
   <g id="patch_6">
    <path d="M 174.02354 260.954592 
C 180.495009 265.607259 187.468627 269.518383 194.813158 272.61436 
C 202.157689 275.710338 209.826771 277.971626 217.676079 279.355669 
L 236.16 174.528 
L 174.02354 260.954592 
z
" style="fill: #800080"/>
   </g>
   <g id="patch_7">
    <path d="M 217.676079 279.355669 
C 217.676079 279.355669 217.676079 279.355669 217.676079 279.355669 
L 236.16 174.528 
L 217.676079 279.355669 
z
" style="fill: #808080"/>
   </g>
   <g id="matplotlib.axis_1"/>
   <g id="matplotlib.axis_2"/>
   <g id="text_1">
    <!-- 미디어 사용 -->
    <g transform="translate(353.103728 171.751728)scale(0.1 -0.1)">
     <defs>
      <path id="AppleGothic-bbf8" d="M 3053 1600 
L 3053 3872 
L 2125 3885 
L 1261 3872 
L 1261 1594 
L 2125 1581 
L 3053 1600 
z
M 5466 5158 
Q 5466 5139 5437 5049 
Q 5408 4960 5408 4890 
L 5408 2291 
Q 5408 1702 5408 1292 
Q 5408 883 5414 659 
Q 5414 429 5420 230 
Q 5427 32 5430 -112 
Q 5434 -256 5440 -339 
Q 5446 -422 5446 -422 
L 4947 -442 
Q 4954 -301 4963 211 
Q 4973 723 4973 1670 
L 4973 2272 
Q 4973 2790 4969 3174 
Q 4966 3558 4960 3827 
Q 4954 4096 4950 4339 
Q 4947 4582 4934 4806 
Q 4928 5254 4915 5254 
L 4947 5254 
Q 5139 5254 5302 5235 
Q 5466 5216 5466 5158 
z
M 3520 1171 
L 2342 1190 
L 781 1165 
Q 781 1254 781 1459 
Q 781 1664 787 1984 
Q 794 2304 797 2483 
Q 800 2662 800 2707 
Q 800 3053 800 3296 
Q 800 3539 794 3693 
Q 794 3846 790 3996 
Q 787 4147 781 4282 
Q 896 4275 1056 4275 
Q 1216 4275 1421 4269 
Q 1626 4262 1754 4262 
Q 1882 4262 1946 4262 
L 3520 4288 
L 3501 2842 
L 3520 1171 
z
" transform="scale(0.015625)"/>
      <path id="AppleGothic-b514" d="M 5466 5056 
Q 5466 5043 5434 4902 
Q 5421 4838 5414 4793 
Q 5408 4749 5408 4717 
L 5402 2342 
L 5427 -499 
L 4947 -518 
L 4960 2227 
Q 4960 3520 4941 4051 
Q 4934 4320 4931 4601 
Q 4928 4883 4915 5190 
L 5088 5197 
Q 5254 5197 5360 5171 
Q 5466 5146 5466 5056 
z
M 4410 1133 
L 2810 922 
Q 2362 864 1869 832 
Q 1376 800 877 800 
L 800 800 
Q 806 960 806 1155 
Q 806 1350 813 1587 
Q 819 1830 822 2035 
Q 826 2240 826 2413 
L 806 4525 
L 2490 4499 
Q 2861 4499 3206 4505 
Q 3552 4512 3834 4525 
L 3834 4128 
L 2534 4141 
L 1261 4134 
L 1248 2432 
L 1254 1216 
Q 1606 1229 1805 1235 
Q 2106 1248 2355 1264 
Q 2605 1280 2810 1306 
Q 3014 1331 3286 1366 
Q 3558 1402 3904 1446 
Q 4000 1459 4121 1472 
Q 4243 1485 4390 1504 
L 4410 1133 
z
" transform="scale(0.015625)"/>
      <path id="AppleGothic-c5b4" d="M 3136 2592 
Q 3136 3392 2816 3789 
Q 2541 4141 2067 4141 
Q 1581 4141 1318 3750 
Q 1056 3360 1056 2586 
Q 1056 1862 1395 1408 
Q 1709 998 2131 998 
Q 2541 998 2822 1389 
Q 3136 1824 3136 2592 
z
M 5434 5062 
Q 5434 5037 5414 4969 
Q 5395 4902 5395 4851 
L 5376 2579 
L 5376 1344 
Q 5382 979 5382 652 
Q 5382 326 5389 38 
Q 5395 -538 5402 -538 
L 4896 -570 
L 4928 2413 
L 3731 2413 
L 3731 2822 
L 4915 2822 
L 4922 4429 
Q 4922 4621 4922 4752 
Q 4922 4883 4915 4947 
Q 4915 5018 4912 5078 
Q 4909 5139 4902 5190 
Q 5139 5190 5286 5158 
Q 5434 5126 5434 5062 
z
M 3597 2605 
Q 3597 1773 3270 1254 
Q 2886 640 2086 640 
Q 1338 640 934 1254 
Q 589 1798 589 2618 
Q 589 3450 941 3955 
Q 1331 4518 2080 4518 
Q 2816 4518 3213 3968 
Q 3597 3450 3597 2605 
z
" transform="scale(0.015625)"/>
      <path id="AppleGothic-20" transform="scale(0.015625)"/>
      <path id="AppleGothic-c0ac" d="M 6093 2061 
L 5139 2061 
L 5133 1024 
Q 5133 640 5139 240 
Q 5146 -160 5158 -493 
L 4685 -538 
Q 4685 -397 4685 -73 
Q 4685 250 4691 755 
Q 4698 1274 4701 1651 
Q 4704 2029 4704 2285 
Q 4704 2874 4697 3478 
Q 4691 4083 4685 4704 
Q 4685 4877 4675 4992 
Q 4666 5107 4653 5190 
Q 4877 5190 5037 5158 
Q 5197 5126 5197 5069 
Q 5152 4954 5152 4870 
L 5133 3955 
L 5139 2477 
L 6093 2477 
L 6093 2061 
z
M 3923 1331 
Q 3917 1312 3898 1293 
Q 3878 1267 3852 1244 
Q 3827 1222 3782 1197 
L 3584 1018 
Q 3533 1050 3491 1078 
Q 3450 1107 3418 1133 
Q 3014 1446 2675 1946 
Q 2605 2042 2541 2170 
Q 2477 2298 2406 2451 
Q 2336 2605 2291 2736 
Q 2246 2867 2221 2976 
Q 2106 2438 1581 1786 
Q 1312 1466 1059 1245 
Q 806 1024 544 896 
Q 518 909 476 941 
Q 435 973 371 1030 
Q 211 1165 211 1184 
Q 250 1222 256 1235 
Q 301 1235 557 1421 
Q 922 1683 1203 2010 
Q 1606 2477 1818 3078 
Q 1933 3405 1993 3830 
Q 2054 4256 2054 4640 
Q 2106 4640 2186 4630 
Q 2266 4621 2368 4595 
Q 2573 4550 2573 4486 
Q 2560 4454 2521 4361 
Q 2483 4269 2490 4173 
L 2432 3750 
Q 2458 3648 2474 3574 
Q 2490 3501 2502 3437 
Q 2598 3053 2829 2547 
Q 3072 2061 3494 1677 
Q 3565 1613 3657 1539 
Q 3750 1466 3872 1389 
Q 3885 1376 3897 1360 
Q 3910 1344 3923 1331 
z
" transform="scale(0.015625)"/>
      <path id="AppleGothic-c6a9" d="M 4858 448 
Q 4858 774 4365 922 
Q 4173 973 3878 998 
Q 3584 1024 3194 1024 
Q 2246 1024 1882 870 
Q 1555 723 1555 448 
Q 1555 77 2074 -77 
Q 2470 -186 3194 -186 
Q 3674 -186 4003 -144 
Q 4333 -102 4525 -13 
Q 4858 141 4858 448 
z
M 3821 2643 
L 3808 3008 
Q 3674 2995 3510 2988 
Q 3347 2982 3194 2982 
Q 2803 2982 2624 3014 
L 2611 2637 
L 2624 2285 
L 3808 2278 
L 3821 2643 
z
M 4858 3974 
Q 4858 4352 4378 4518 
Q 3981 4659 3162 4659 
Q 2490 4659 2086 4550 
Q 1485 4384 1485 3974 
Q 1485 3654 1933 3494 
Q 2381 3334 3168 3334 
Q 4006 3334 4403 3475 
Q 4858 3642 4858 3974 
z
M 5306 448 
Q 5306 13 4915 -243 
Q 4397 -589 3328 -589 
L 3194 -589 
Q 2093 -589 1555 -275 
Q 1114 -19 1114 454 
Q 1114 954 1690 1197 
Q 2195 1408 3200 1408 
Q 4134 1408 4634 1229 
Q 5306 998 5306 448 
z
M 6022 1926 
Q 5690 1939 5341 1945 
Q 4992 1952 4621 1958 
Q 4256 1965 3917 1968 
Q 3578 1971 3264 1971 
Q 2438 1971 1728 1958 
Q 1018 1946 378 1926 
L 378 2317 
Q 480 2310 605 2304 
Q 730 2298 890 2291 
Q 1043 2285 1145 2285 
Q 1248 2285 1312 2285 
L 2163 2285 
L 2176 2675 
L 2157 3066 
Q 1971 3098 1830 3139 
Q 1690 3181 1600 3226 
Q 1037 3494 1037 3987 
Q 1037 4243 1184 4435 
Q 1331 4627 1603 4755 
Q 1875 4883 2268 4947 
Q 2662 5011 3162 5011 
Q 3642 5011 4010 4960 
Q 4378 4909 4646 4813 
Q 5312 4563 5312 3974 
Q 5312 3494 4794 3238 
Q 4704 3194 4576 3155 
Q 4448 3117 4269 3072 
L 4269 2272 
L 5082 2278 
L 6022 2310 
L 6022 1926 
z
" transform="scale(0.015625)"/>
     </defs>
     <use xlink:href="#AppleGothic-bbf8"/>
     <use xlink:href="#AppleGothic-b514" x="99.999985"/>
     <use xlink:href="#AppleGothic-c5b4" x="199.999969"/>
     <use xlink:href="#AppleGothic-20" x="299.999954"/>
     <use xlink:href="#AppleGothic-c0ac" x="331.999939"/>
     <use xlink:href="#AppleGothic-c6a9" x="431.999924"/>
    </g>
   </g>
   <g id="text_2">
    <!-- 57.1% -->
    <g transform="translate(283.022488 174.40465)scale(0.1 -0.1)">
     <defs>
      <path id="AppleGothic-35" d="M 621 4768 
L 3488 4768 
L 3488 4339 
L 1088 4339 
L 1088 2707 
Q 1184 2771 1293 2819 
Q 1402 2867 1510 2912 
Q 1862 3040 2259 3040 
Q 2989 3040 3424 2605 
Q 3827 2202 3827 1581 
Q 3827 870 3296 397 
Q 2765 -83 2010 -83 
Q 1651 -83 1248 45 
Q 1158 77 1001 137 
Q 845 198 621 301 
L 621 838 
Q 928 640 1203 525 
Q 1408 435 1613 390 
Q 1818 346 2010 346 
Q 2528 346 2906 666 
Q 3322 1011 3322 1536 
Q 3322 1990 3021 2291 
Q 2701 2611 2144 2611 
Q 1856 2611 1587 2528 
Q 1318 2445 1088 2272 
L 621 2272 
L 621 4768 
z
" transform="scale(0.015625)"/>
      <path id="AppleGothic-37" d="M 595 4774 
L 3802 4774 
L 3802 4410 
L 1734 0 
L 1235 0 
L 3277 4352 
L 595 4352 
L 595 4774 
z
" transform="scale(0.015625)"/>
      <path id="AppleGothic-2e" d="M 915 -19 
Q 762 -19 653 109 
Q 544 237 544 422 
Q 544 614 656 745 
Q 768 877 915 877 
Q 1056 877 1168 758 
Q 1280 640 1280 435 
Q 1280 243 1171 112 
Q 1062 -19 915 -19 
z
" transform="scale(0.015625)"/>
      <path id="AppleGothic-31" d="M 2342 4774 
L 2752 4774 
L 2752 0 
L 2285 0 
L 2285 3526 
L 1158 3526 
L 1158 3885 
L 1414 3885 
Q 1990 3885 2214 4205 
Q 2342 4410 2342 4774 
z
" transform="scale(0.015625)"/>
      <path id="AppleGothic-25" d="M 4896 -45 
Q 4320 -45 3949 339 
Q 3590 717 3590 1274 
Q 3590 1856 3962 2227 
Q 4333 2598 4877 2598 
Q 5402 2598 5779 2234 
Q 6150 1869 6150 1286 
Q 6150 691 5760 307 
Q 5389 -45 4896 -45 
z
M 4864 378 
Q 5024 378 5168 442 
Q 5312 506 5421 624 
Q 5530 742 5594 905 
Q 5658 1069 5658 1267 
Q 5658 1658 5427 1920 
Q 5190 2176 4883 2176 
Q 4582 2176 4352 1958 
Q 4090 1696 4090 1286 
Q 4090 883 4320 634 
Q 4550 378 4864 378 
z
M 4557 5370 
L 5030 5370 
L 2016 -333 
L 1549 -333 
L 4045 4378 
L 4026 4397 
Q 3930 4333 3776 4278 
Q 3622 4224 3456 4224 
Q 3347 4224 3177 4259 
Q 3008 4294 2835 4371 
Q 2867 4301 2886 4240 
Q 2906 4179 2918 4128 
Q 2970 3936 2970 3750 
Q 2970 3187 2598 2810 
Q 2227 2438 1690 2438 
Q 1146 2438 781 2810 
Q 422 3187 422 3763 
Q 422 4339 787 4717 
Q 1158 5101 1690 5101 
Q 1952 5101 2522 4870 
Q 2803 4755 3024 4700 
Q 3245 4646 3411 4646 
Q 3802 4646 4077 4819 
Q 4403 5018 4557 5370 
z
M 1683 2854 
Q 2003 2854 2240 3110 
Q 2470 3366 2470 3770 
Q 2470 3974 2406 4144 
Q 2342 4314 2236 4432 
Q 2131 4550 1990 4614 
Q 1850 4678 1690 4678 
Q 1530 4678 1392 4614 
Q 1254 4550 1148 4432 
Q 1043 4314 982 4144 
Q 922 3974 922 3770 
Q 922 3334 1171 3078 
Q 1382 2854 1683 2854 
z
" transform="scale(0.015625)"/>
     </defs>
     <use xlink:href="#AppleGothic-35"/>
     <use xlink:href="#AppleGothic-37" x="67.999985"/>
     <use xlink:href="#AppleGothic-2e" x="135.999969"/>
     <use xlink:href="#AppleGothic-31" x="170.499954"/>
     <use xlink:href="#AppleGothic-25" x="238.499939"/>
    </g>
   </g>
   <g id="text_3">
    <!-- 휴식 -->
    <g transform="translate(121.090752 109.238046)scale(0.1 -0.1)">
     <defs>
      <path id="AppleGothic-d734" d="M 4365 2963 
Q 4365 3187 4073 3302 
Q 3782 3418 3142 3418 
Q 2432 3418 2150 3258 
Q 1984 3155 1984 2970 
Q 1984 2726 2317 2611 
Q 2490 2554 2704 2528 
Q 2918 2502 3181 2502 
Q 3782 2502 4073 2630 
Q 4365 2758 4365 2963 
z
M 6042 1453 
L 4422 1472 
L 4442 -570 
L 3974 -570 
L 3974 1466 
L 3392 1472 
L 2496 1459 
L 2490 851 
L 2502 -550 
L 2042 -557 
L 2054 1453 
L 1331 1453 
Q 1062 1453 822 1440 
Q 582 1427 358 1408 
L 358 1805 
Q 448 1805 669 1801 
Q 890 1798 1235 1792 
Q 1587 1786 1856 1786 
Q 2125 1786 2323 1786 
L 3194 1792 
Q 3840 1792 4291 1795 
Q 4742 1798 5011 1805 
Q 5280 1811 5465 1817 
Q 5651 1824 5747 1830 
Q 5856 1837 5929 1843 
Q 6003 1850 6042 1856 
L 6042 1453 
z
M 4813 2950 
Q 4813 2605 4442 2400 
Q 4230 2291 3916 2236 
Q 3603 2182 3174 2182 
Q 2810 2182 2525 2224 
Q 2240 2266 2035 2342 
Q 1530 2554 1530 2995 
Q 1530 3386 1936 3552 
Q 2342 3718 3136 3718 
Q 4006 3718 4409 3542 
Q 4813 3366 4813 2950 
z
M 5382 3994 
Q 5229 4000 5104 4000 
Q 4979 4000 4883 4000 
Q 4198 4013 3750 4019 
Q 3302 4026 3091 4026 
Q 2400 4026 1894 4013 
Q 1389 4000 960 3981 
L 960 4378 
Q 1363 4365 1884 4358 
Q 2406 4352 3046 4352 
Q 3738 4352 4310 4368 
Q 4883 4384 5382 4403 
L 5382 3994 
z
M 3910 4730 
L 3104 4736 
Q 2880 4736 2739 4736 
Q 2598 4736 2534 4730 
Q 2477 4730 2425 4726 
Q 2374 4723 2330 4717 
L 2330 5126 
Q 2496 5114 2701 5107 
Q 2906 5101 3098 5101 
Q 3302 5101 3513 5107 
Q 3725 5114 3910 5126 
L 3910 4730 
z
" transform="scale(0.015625)"/>
      <path id="AppleGothic-c2dd" d="M 5414 -454 
L 4954 -480 
L 4954 1286 
L 1440 1242 
L 1440 1632 
L 3290 1632 
Q 3526 1632 3782 1635 
Q 4038 1638 4326 1645 
Q 4614 1651 4880 1657 
Q 5146 1664 5389 1670 
L 5395 435 
L 5414 -454 
z
M 4179 2464 
Q 4179 2445 4032 2304 
Q 3878 2170 3866 2157 
Q 3789 2208 3725 2246 
Q 3661 2285 3610 2323 
Q 3302 2554 3040 2816 
Q 2739 3130 2534 3456 
Q 2477 3558 2400 3725 
Q 2387 3680 2368 3645 
Q 2349 3610 2336 3578 
Q 2246 3392 2108 3197 
Q 1971 3002 1786 2803 
Q 1549 2534 1184 2278 
Q 1120 2240 1043 2189 
Q 966 2138 870 2074 
Q 851 2086 832 2105 
Q 813 2125 794 2138 
Q 698 2214 646 2246 
Q 506 2310 506 2336 
Q 531 2381 557 2394 
Q 800 2502 934 2592 
Q 1370 2880 1693 3334 
Q 2016 3789 2150 4422 
Q 2176 4531 2192 4659 
Q 2208 4787 2221 4954 
L 2522 4902 
Q 2765 4845 2765 4774 
Q 2765 4755 2742 4723 
Q 2720 4691 2694 4646 
Q 2669 4602 2646 4544 
Q 2624 4486 2624 4422 
Q 2624 4211 2822 3834 
Q 2976 3552 3168 3315 
Q 3315 3130 3507 2960 
Q 3699 2790 3942 2624 
Q 3987 2592 4038 2560 
Q 4090 2528 4160 2496 
L 4179 2464 
z
M 5446 5050 
Q 5446 5030 5420 4956 
Q 5395 4883 5395 4832 
L 5389 3245 
L 5389 2483 
Q 5395 2214 5408 1965 
L 4947 1946 
L 4966 3578 
Q 4966 4013 4956 4358 
Q 4947 4704 4934 4973 
Q 4934 5024 4934 5075 
Q 4934 5126 4922 5190 
Q 5146 5190 5296 5152 
Q 5446 5114 5446 5050 
z
" transform="scale(0.015625)"/>
     </defs>
     <use xlink:href="#AppleGothic-d734"/>
     <use xlink:href="#AppleGothic-c2dd" x="99.999985"/>
    </g>
   </g>
   <g id="text_4">
    <!-- 21.4% -->
    <g transform="translate(167.379047 140.306278)scale(0.1 -0.1)">
     <defs>
      <path id="AppleGothic-32" d="M 1101 429 
L 3942 429 
L 3942 0 
L 653 0 
L 653 205 
Q 653 1018 1344 1664 
Q 1670 1894 1990 2124 
Q 2310 2355 2637 2592 
Q 3334 3098 3334 3597 
Q 3334 3994 3014 4218 
Q 2867 4326 2694 4377 
Q 2522 4429 2317 4429 
Q 2016 4429 1741 4352 
Q 1325 4224 883 3910 
L 883 4435 
Q 1325 4659 1667 4758 
Q 2010 4858 2317 4858 
Q 2963 4858 3405 4525 
Q 3840 4198 3840 3622 
Q 3840 2995 3168 2438 
Q 2848 2214 2531 2000 
Q 2214 1786 1894 1562 
Q 1178 1024 1101 429 
z
" transform="scale(0.015625)"/>
      <path id="AppleGothic-34" d="M 2662 4774 
L 3130 4774 
L 3130 1811 
L 4000 1811 
L 4000 1382 
L 3130 1382 
L 3130 0 
L 2662 0 
L 2662 1382 
L 352 1382 
L 352 1811 
L 2662 4774 
z
M 2662 1811 
L 2662 4166 
L 838 1811 
L 2662 1811 
z
" transform="scale(0.015625)"/>
     </defs>
     <use xlink:href="#AppleGothic-32"/>
     <use xlink:href="#AppleGothic-31" x="67.999985"/>
     <use xlink:href="#AppleGothic-2e" x="135.999969"/>
     <use xlink:href="#AppleGothic-34" x="170.499954"/>
     <use xlink:href="#AppleGothic-25" x="238.499939"/>
    </g>
   </g>
   <g id="text_5">
    <!-- 외출/귀가 -->
    <g transform="translate(78.447026 209.300692)scale(0.1 -0.1)">
     <defs>
      <path id="AppleGothic-c678" d="M 3552 3552 
Q 3552 3955 3226 4186 
Q 2944 4403 2515 4403 
Q 2067 4403 1766 4186 
Q 1434 3955 1434 3552 
Q 1434 3181 1658 2957 
Q 1926 2669 2483 2669 
Q 2963 2669 3257 2902 
Q 3552 3136 3552 3552 
z
M 5466 5101 
Q 5466 5088 5440 4982 
Q 5414 4877 5414 4781 
L 5395 736 
Q 5395 237 5388 -32 
Q 5382 -301 5370 -474 
L 4909 -499 
Q 4928 -83 4941 582 
Q 4954 1248 4954 2202 
L 4954 3053 
Q 4954 3622 4954 3987 
Q 4954 4352 4947 4518 
Q 4941 4691 4937 4857 
Q 4934 5024 4922 5190 
L 5107 5197 
Q 5242 5197 5354 5174 
Q 5466 5152 5466 5101 
z
M 4672 1203 
Q 4525 1184 4377 1165 
Q 4230 1146 4083 1126 
Q 3341 1030 2669 973 
Q 1696 896 986 896 
Q 947 896 899 886 
Q 851 877 803 864 
Q 755 851 713 841 
Q 672 832 659 832 
Q 589 832 576 902 
L 512 1254 
Q 774 1254 1030 1260 
Q 1286 1267 1542 1280 
Q 1805 1293 2000 1315 
Q 2195 1338 2330 1370 
L 2349 1824 
Q 2349 1990 2342 2108 
Q 2336 2227 2323 2285 
Q 2182 2285 1990 2342 
Q 1600 2445 1350 2688 
Q 1005 3014 1005 3552 
Q 1005 4013 1350 4371 
Q 1754 4774 2483 4774 
Q 3200 4774 3616 4397 
Q 4000 4038 4000 3539 
Q 4000 2861 3405 2515 
Q 3309 2458 3158 2403 
Q 3008 2349 2803 2298 
L 2797 1830 
L 2803 1414 
Q 2950 1414 3184 1433 
Q 3418 1453 3731 1485 
Q 4352 1562 4646 1562 
L 4672 1203 
z
" transform="scale(0.015625)"/>
      <path id="AppleGothic-cd9c" d="M 5946 2099 
L 4666 2125 
Q 4627 2125 4560 2125 
Q 4493 2125 4403 2131 
Q 4314 2138 4243 2138 
Q 4173 2138 4122 2138 
L 3398 2125 
L 3398 1510 
L 4243 1510 
L 5088 1542 
L 5075 979 
L 5088 442 
L 2778 461 
Q 2432 461 2189 454 
Q 1946 448 1773 435 
L 1773 -58 
Q 1997 -70 2294 -76 
Q 2592 -83 2976 -83 
L 5203 -64 
L 5203 -422 
Q 5069 -416 4957 -416 
Q 4845 -416 4755 -416 
Q 3526 -397 3226 -397 
Q 2733 -397 2256 -403 
Q 1779 -410 1306 -422 
L 1325 198 
Q 1325 448 1321 557 
Q 1318 666 1306 755 
L 3091 730 
L 3347 730 
L 4141 730 
Q 4269 736 4390 739 
Q 4512 742 4627 749 
L 4627 1216 
L 3379 1229 
L 1306 1210 
L 1306 1542 
L 2112 1510 
L 2950 1510 
L 2950 2138 
L 1677 2125 
Q 1370 2125 1043 2118 
Q 717 2112 435 2099 
L 435 2490 
Q 557 2483 752 2480 
Q 947 2477 1229 2464 
Q 1798 2451 2243 2444 
Q 2688 2438 3142 2438 
Q 3379 2438 3606 2438 
Q 3834 2438 4058 2445 
Q 4506 2458 5101 2464 
Q 5402 2477 5610 2480 
Q 5818 2483 5946 2490 
L 5946 2099 
z
M 5421 3021 
Q 5414 3002 5414 2989 
Q 5402 2957 5370 2925 
Q 5363 2912 5340 2877 
Q 5318 2842 5286 2784 
Q 5274 2771 5261 2742 
Q 5248 2714 5229 2682 
Q 4992 2714 4858 2739 
Q 4634 2784 4416 2867 
Q 4198 2950 4000 3056 
Q 3802 3162 3632 3283 
Q 3462 3405 3341 3526 
Q 3302 3571 3260 3616 
Q 3219 3661 3174 3725 
Q 2989 3501 2822 3373 
Q 2541 3155 2202 3002 
Q 1811 2822 1440 2733 
Q 1325 2707 1139 2675 
L 947 2938 
Q 928 2970 915 3002 
Q 915 3014 909 3021 
Q 909 3034 947 3043 
Q 986 3053 1040 3059 
Q 1094 3066 1148 3069 
Q 1203 3072 1242 3072 
Q 1658 3142 2074 3328 
Q 2560 3533 2803 3802 
Q 2880 3878 2970 4026 
L 2086 4026 
L 1037 3987 
L 1037 4365 
L 3155 4339 
L 3450 4339 
Q 4070 4339 4518 4345 
Q 4966 4352 5299 4365 
L 5299 3987 
Q 5062 4000 4947 4006 
Q 4717 4019 4566 4025 
Q 4416 4032 4352 4032 
L 3354 4026 
Q 3629 3622 4179 3360 
Q 4448 3283 4710 3206 
Q 4973 3130 5242 3053 
Q 5421 3053 5421 3021 
z
M 3846 4806 
Q 3699 4819 3523 4825 
Q 3347 4832 3181 4832 
Q 3014 4832 2838 4825 
Q 2662 4819 2509 4806 
L 2509 5171 
L 3162 5152 
Q 3405 5152 3581 5161 
Q 3757 5171 3846 5184 
L 3846 4806 
z
" transform="scale(0.015625)"/>
      <path id="AppleGothic-2f" d="M 1965 5018 
L 2368 5018 
L 493 -672 
L 90 -672 
L 1965 5018 
z
" transform="scale(0.015625)"/>
      <path id="AppleGothic-adc0" d="M 4563 2214 
L 2688 2074 
L 2694 -186 
L 2259 -224 
L 2259 2048 
Q 2170 2042 2099 2038 
Q 2029 2035 1971 2035 
Q 1606 2022 1312 2012 
Q 1018 2003 774 2003 
Q 710 2003 604 1987 
Q 499 1971 467 1971 
Q 403 1971 403 2003 
L 371 2381 
L 749 2381 
Q 1101 2381 1373 2387 
Q 1645 2394 1888 2400 
L 3130 2464 
Q 3200 2669 3296 3264 
Q 3341 3571 3363 3769 
Q 3386 3968 3386 4077 
L 787 4038 
L 787 4429 
L 2304 4416 
L 3859 4429 
Q 3859 4166 3744 3488 
Q 3693 3149 3645 2902 
Q 3597 2656 3558 2490 
Q 3661 2490 3753 2493 
Q 3846 2496 3930 2502 
Q 4230 2528 4387 2534 
Q 4544 2541 4563 2541 
L 4563 2214 
z
M 5427 5082 
Q 5402 4998 5379 4912 
Q 5357 4826 5357 4755 
L 5357 -454 
L 4915 -480 
Q 4915 -301 4915 -64 
Q 4915 173 4922 474 
Q 4928 781 4928 1152 
Q 4928 1523 4934 1984 
Q 4934 2438 4937 2908 
Q 4941 3379 4941 3878 
L 4941 4742 
Q 4941 4947 4934 5046 
Q 4928 5146 4915 5190 
L 4979 5190 
Q 5165 5190 5296 5171 
Q 5427 5152 5427 5082 
z
" transform="scale(0.015625)"/>
      <path id="AppleGothic-ac00" d="M 6189 1965 
L 5133 1965 
L 5133 -538 
L 4685 -538 
L 4691 3232 
Q 4691 3750 4691 4086 
Q 4691 4422 4685 4576 
Q 4678 4730 4675 4883 
Q 4672 5037 4659 5190 
L 4800 5190 
Q 4966 5190 5065 5174 
Q 5165 5158 5165 5094 
Q 5165 5075 5149 4998 
Q 5133 4922 5133 4890 
L 5133 2355 
L 6189 2368 
L 6189 1965 
z
M 3264 4205 
Q 3264 3802 3162 3392 
Q 3008 2733 2630 2131 
Q 2253 1530 1728 1069 
Q 1530 902 1331 764 
Q 1133 627 928 512 
Q 627 352 576 352 
L 262 717 
Q 301 717 570 845 
Q 960 1030 1286 1280 
Q 1760 1645 2106 2138 
Q 2253 2349 2368 2569 
Q 2483 2790 2573 3027 
Q 2637 3194 2681 3350 
Q 2726 3507 2752 3667 
Q 2758 3738 2764 3802 
Q 2771 3866 2784 3930 
L 1690 3930 
Q 1421 3930 1225 3930 
Q 1030 3930 902 3923 
Q 774 3917 675 3913 
Q 576 3910 499 3904 
L 499 4352 
Q 704 4339 992 4326 
Q 1280 4314 1702 4314 
L 1843 4314 
Q 2406 4314 2729 4320 
Q 3053 4326 3258 4339 
L 3264 4205 
z
" transform="scale(0.015625)"/>
     </defs>
     <use xlink:href="#AppleGothic-c678"/>
     <use xlink:href="#AppleGothic-cd9c" x="99.999985"/>
     <use xlink:href="#AppleGothic-2f" x="199.999969"/>
     <use xlink:href="#AppleGothic-adc0" x="249.999954"/>
     <use xlink:href="#AppleGothic-ac00" x="349.999939"/>
    </g>
   </g>
   <g id="text_6">
    <!-- 7.1% -->
    <g transform="translate(161.155196 194.885903)scale(0.1 -0.1)">
     <use xlink:href="#AppleGothic-37"/>
     <use xlink:href="#AppleGothic-2e" x="67.999985"/>
     <use xlink:href="#AppleGothic-31" x="102.499969"/>
     <use xlink:href="#AppleGothic-25" x="170.499954"/>
    </g>
   </g>
   <g id="text_7">
    <!-- 소셜인터랙션 -->
    <g transform="translate(88.368675 255.064492)scale(0.1 -0.1)">
     <defs>
      <path id="AppleGothic-c18c" d="M 5971 262 
L 3277 262 
Q 3027 262 2736 262 
Q 2445 262 2118 256 
Q 1459 250 1065 246 
Q 672 243 429 237 
L 429 666 
L 2938 659 
Q 2950 826 2956 1040 
Q 2963 1254 2963 1510 
Q 2963 1562 2960 1638 
Q 2957 1715 2950 1811 
Q 2944 1914 2941 1990 
Q 2938 2067 2938 2118 
L 3334 2118 
Q 3443 2118 3443 2054 
Q 3443 2042 3430 1981 
Q 3418 1920 3418 1862 
L 3418 646 
Q 3642 646 3878 649 
Q 4115 653 4378 659 
Q 5018 672 5411 678 
Q 5805 685 5971 685 
L 5971 262 
z
M 5850 2701 
Q 5850 2669 5792 2624 
Q 5747 2586 5721 2560 
Q 5696 2534 5683 2522 
L 5549 2349 
Q 5446 2374 5350 2406 
Q 4851 2566 4243 2931 
Q 4019 3059 3827 3228 
Q 3635 3398 3462 3603 
Q 3405 3674 3341 3763 
Q 3277 3853 3200 3962 
Q 3149 3853 3104 3789 
Q 2829 3360 2266 2963 
Q 2048 2810 1814 2682 
Q 1581 2554 1325 2458 
Q 1242 2426 1139 2390 
Q 1037 2355 909 2317 
Q 864 2362 816 2406 
Q 768 2451 717 2502 
Q 691 2528 652 2563 
Q 614 2598 557 2650 
Q 563 2675 582 2675 
Q 672 2688 752 2707 
Q 832 2726 896 2739 
Q 1613 2925 2170 3398 
Q 2573 3744 2800 4134 
Q 3027 4525 3027 4864 
Q 3232 4864 3379 4829 
Q 3526 4794 3526 4736 
Q 3526 4691 3475 4653 
Q 3469 4646 3456 4633 
Q 3443 4621 3424 4608 
Q 3443 4480 3469 4410 
Q 3622 3930 4083 3536 
Q 4544 3142 5222 2899 
Q 5338 2861 5485 2822 
Q 5632 2784 5818 2739 
Q 5837 2720 5850 2701 
z
" transform="scale(0.015625)"/>
      <path id="AppleGothic-c15c" d="M 5434 -403 
L 3354 -390 
L 1600 -403 
L 1619 237 
L 1600 934 
L 4883 928 
L 4883 1466 
L 3341 1472 
Q 2867 1472 2553 1472 
Q 2240 1472 2093 1466 
Q 1946 1466 1818 1466 
Q 1690 1466 1568 1459 
L 1568 1850 
Q 1958 1837 2432 1824 
Q 2906 1811 3341 1811 
L 5350 1830 
L 5338 1152 
L 5350 538 
L 3392 557 
L 2054 544 
L 2054 -13 
L 3411 -19 
Q 3859 -19 4390 -6 
Q 4922 6 5434 26 
L 5434 -403 
z
M 3846 2547 
L 3552 2246 
Q 3462 2298 3388 2346 
Q 3315 2394 3258 2438 
Q 2912 2688 2701 2944 
Q 2598 3059 2515 3196 
Q 2432 3334 2362 3488 
Q 2336 3539 2313 3600 
Q 2291 3661 2266 3738 
Q 2214 3635 2169 3558 
Q 2125 3482 2093 3418 
Q 1984 3232 1865 3069 
Q 1747 2906 1619 2758 
Q 1395 2496 1069 2246 
Q 1018 2202 944 2147 
Q 870 2093 774 2029 
Q 723 2067 678 2099 
Q 634 2131 595 2157 
Q 435 2259 435 2285 
Q 435 2304 476 2323 
Q 518 2342 531 2355 
Q 1197 2720 1658 3443 
Q 2118 4173 2118 4909 
Q 2259 4909 2426 4890 
Q 2586 4870 2586 4813 
Q 2586 4800 2573 4761 
Q 2560 4723 2541 4672 
Q 2522 4621 2509 4560 
Q 2496 4499 2496 4448 
L 2509 4301 
Q 2592 3750 2918 3309 
Q 3027 3149 3171 3017 
Q 3315 2886 3482 2778 
Q 3718 2611 3763 2611 
Q 3770 2605 3808 2586 
Q 3846 2566 3846 2547 
z
M 5382 5126 
Q 5382 5114 5360 5034 
Q 5338 4954 5338 4902 
L 5338 2554 
L 5325 2029 
L 4915 2010 
L 4922 2797 
L 4333 2803 
Q 3891 2803 3744 2778 
L 3744 3130 
L 4333 3123 
Q 4582 3123 4710 3126 
Q 4838 3130 4922 3136 
L 4922 3802 
L 4416 3814 
Q 4250 3814 4070 3808 
Q 3891 3802 3738 3789 
L 3738 4141 
L 4346 4134 
L 4928 4141 
L 4934 4826 
Q 4934 4928 4934 4989 
Q 4934 5050 4931 5088 
Q 4928 5126 4925 5148 
Q 4922 5171 4915 5190 
L 5280 5171 
Q 5382 5171 5382 5126 
z
" transform="scale(0.015625)"/>
      <path id="AppleGothic-c778" d="M 3347 3251 
Q 3347 3686 3014 3936 
Q 2714 4160 2266 4160 
Q 1805 4160 1491 3930 
Q 1146 3680 1146 3245 
Q 1146 2854 1459 2605 
Q 1773 2368 2246 2368 
Q 2714 2368 3027 2586 
Q 3347 2822 3347 3251 
z
M 5587 -13 
L 5562 -410 
L 4634 -403 
Q 4269 -403 3821 -406 
Q 3373 -410 2816 -416 
Q 1722 -435 1562 -435 
L 1568 230 
L 1542 1274 
L 1664 1274 
Q 1850 1274 1965 1254 
Q 2080 1235 2080 1184 
Q 2080 1165 2054 1081 
Q 2029 998 2029 941 
L 2029 -32 
L 2893 -45 
Q 2950 -45 3043 -45 
Q 3136 -45 3270 -38 
Q 3398 -32 3497 -32 
Q 3597 -32 3667 -32 
L 5587 -13 
z
M 5453 5062 
Q 5453 5024 5421 4944 
Q 5389 4864 5389 4832 
L 5389 3040 
Q 5389 2362 5398 1770 
Q 5408 1178 5421 762 
L 4934 749 
L 4947 3187 
L 4915 5190 
L 4979 5190 
Q 5190 5190 5321 5171 
Q 5453 5152 5453 5062 
z
M 3789 3264 
Q 3789 2694 3328 2330 
Q 2893 1997 2259 1997 
Q 1619 1997 1190 2304 
Q 710 2650 710 3194 
Q 710 3814 1171 4192 
Q 1600 4544 2234 4544 
Q 2906 4544 3347 4192 
Q 3789 3846 3789 3264 
z
" transform="scale(0.015625)"/>
      <path id="AppleGothic-d130" d="M 5459 5094 
Q 5459 5043 5453 5024 
Q 5421 4877 5421 4851 
L 5402 2848 
L 5402 1504 
Q 5408 1114 5408 765 
Q 5408 416 5414 102 
Q 5421 -518 5427 -518 
L 4947 -550 
L 4947 890 
L 4966 2330 
L 3750 2310 
L 3750 2720 
L 4358 2707 
L 4966 2720 
L 4947 4666 
Q 4947 4762 4937 4906 
Q 4928 5050 4915 5190 
L 5088 5197 
Q 5235 5197 5347 5174 
Q 5459 5152 5459 5094 
z
M 4134 1171 
Q 4026 1158 3939 1148 
Q 3853 1139 3782 1126 
Q 3322 1062 2995 1020 
Q 2669 979 2464 966 
Q 2061 934 1712 912 
Q 1363 890 1056 877 
Q 998 877 934 877 
Q 870 877 794 870 
L 806 2592 
L 794 4390 
L 1760 4384 
L 3571 4403 
L 3571 4006 
L 2253 4006 
L 1248 3987 
L 1248 2899 
L 2266 2886 
L 3302 2906 
L 3302 2522 
L 2246 2534 
L 1248 2522 
L 1248 1293 
Q 1446 1293 1606 1293 
Q 1766 1293 1888 1299 
Q 2016 1306 2214 1322 
Q 2413 1338 2694 1363 
Q 2976 1389 3232 1417 
Q 3488 1446 3731 1478 
Q 3821 1491 3917 1504 
Q 4013 1517 4134 1542 
L 4134 1171 
z
" transform="scale(0.015625)"/>
      <path id="AppleGothic-b799" d="M 5632 -499 
L 5165 -506 
L 5184 218 
Q 5184 506 5184 710 
Q 5184 915 5171 1043 
L 3501 1050 
Q 3232 1050 2957 1050 
Q 2682 1050 2387 1043 
Q 2099 1037 1833 1033 
Q 1568 1030 1325 1024 
L 1325 1466 
L 3494 1434 
L 5619 1446 
L 5632 -499 
z
M 3558 2118 
Q 3494 2106 3440 2099 
Q 3386 2093 3334 2086 
Q 3008 2035 2685 2000 
Q 2362 1965 2035 1933 
Q 1715 1894 1414 1888 
Q 1114 1882 864 1875 
Q 870 1952 870 2057 
Q 870 2163 877 2304 
Q 883 2451 883 2550 
Q 883 2650 883 2714 
L 864 3558 
L 1805 3539 
L 2675 3546 
L 2675 4333 
L 832 4320 
L 832 4710 
L 2035 4691 
L 3117 4710 
L 3098 3872 
L 3110 3174 
L 1293 3168 
L 1293 2278 
L 1376 2278 
Q 1754 2278 2195 2317 
Q 2502 2349 2755 2377 
Q 3008 2406 3213 2438 
Q 3290 2451 3373 2464 
Q 3456 2477 3558 2496 
L 3558 2118 
z
M 5677 5082 
Q 5677 5056 5648 4966 
Q 5619 4877 5619 4826 
L 5613 3162 
L 5613 2003 
Q 5619 1779 5632 1645 
L 5178 1606 
L 5197 2266 
L 5190 2970 
L 4378 2970 
L 4390 1696 
L 3942 1683 
L 3974 3885 
Q 3962 4474 3955 4771 
Q 3949 5069 3949 5082 
L 4045 5082 
Q 4218 5082 4317 5062 
Q 4416 5043 4416 4973 
Q 4416 4954 4400 4886 
Q 4384 4819 4384 4762 
L 4371 4077 
L 4378 3334 
L 5197 3334 
L 5203 4467 
Q 5203 4678 5193 4860 
Q 5184 5043 5171 5190 
L 5235 5190 
Q 5427 5190 5552 5171 
Q 5677 5152 5677 5082 
z
" transform="scale(0.015625)"/>
      <path id="AppleGothic-c158" d="M 5594 -416 
L 1645 -422 
L 1651 954 
L 1632 1248 
Q 1824 1248 1984 1219 
Q 2144 1190 2144 1152 
Q 2144 1139 2112 1056 
Q 2080 973 2080 902 
L 2080 -70 
L 3693 -83 
Q 4275 -83 4752 -70 
Q 5229 -58 5594 -45 
L 5594 -416 
z
M 5395 5107 
Q 5395 5094 5369 5004 
Q 5344 4915 5344 4838 
L 5357 781 
L 4941 749 
Q 4934 787 4934 841 
Q 4934 896 4934 992 
Q 4934 1050 4931 1107 
Q 4928 1165 4941 1261 
L 4941 1466 
Q 4941 1645 4941 1779 
Q 4941 1914 4941 2026 
Q 4941 2138 4937 2237 
Q 4934 2336 4928 2438 
Q 4691 2438 4307 2419 
Q 4115 2413 4000 2409 
Q 3885 2406 3853 2406 
L 3853 2771 
L 4928 2778 
L 4928 3686 
L 3840 3686 
L 3840 4032 
Q 3891 4026 4022 4019 
Q 4154 4013 4269 4013 
L 4928 4026 
L 4928 4890 
L 4915 5190 
L 5274 5171 
Q 5395 5171 5395 5107 
z
M 4026 2093 
Q 4026 2074 3987 2048 
Q 3942 2022 3920 2012 
Q 3898 2003 3891 1997 
Q 3821 1946 3785 1904 
Q 3750 1862 3725 1830 
Q 3629 1882 3549 1933 
Q 3469 1984 3405 2022 
Q 3219 2157 3052 2310 
Q 2886 2464 2739 2650 
Q 2637 2771 2553 2899 
Q 2470 3027 2400 3155 
Q 2374 3200 2348 3257 
Q 2323 3315 2291 3386 
Q 2227 3251 2150 3136 
Q 1946 2829 1632 2483 
Q 1485 2323 1328 2176 
Q 1171 2029 1005 1894 
Q 954 1850 883 1795 
Q 813 1741 723 1683 
L 512 1811 
Q 480 1837 409 1865 
Q 339 1894 339 1914 
L 358 1946 
Q 506 2035 627 2115 
Q 749 2195 838 2266 
Q 1382 2682 1677 3123 
Q 1907 3482 2044 3907 
Q 2182 4333 2182 4749 
Q 2291 4749 2464 4704 
Q 2650 4653 2650 4595 
Q 2650 4570 2624 4525 
Q 2592 4474 2576 4435 
Q 2560 4397 2554 4371 
Q 2547 4326 2537 4230 
Q 2528 4134 2528 4026 
Q 2528 3885 2569 3731 
Q 2611 3578 2701 3411 
Q 2829 3168 3072 2861 
Q 3315 2554 3686 2310 
Q 3750 2278 3824 2233 
Q 3898 2189 3994 2138 
L 4026 2093 
z
" transform="scale(0.015625)"/>
     </defs>
     <use xlink:href="#AppleGothic-c18c"/>
     <use xlink:href="#AppleGothic-c15c" x="99.999985"/>
     <use xlink:href="#AppleGothic-c778" x="199.999969"/>
     <use xlink:href="#AppleGothic-d130" x="299.999954"/>
     <use xlink:href="#AppleGothic-b799" x="399.999939"/>
     <use xlink:href="#AppleGothic-c158" x="499.999924"/>
    </g>
   </g>
   <g id="text_8">
    <!-- 7.1% -->
    <g transform="translate(174.748823 219.847976)scale(0.1 -0.1)">
     <use xlink:href="#AppleGothic-37"/>
     <use xlink:href="#AppleGothic-2e" x="67.999985"/>
     <use xlink:href="#AppleGothic-31" x="102.499969"/>
     <use xlink:href="#AppleGothic-25" x="170.499954"/>
    </g>
   </g>
   <g id="text_9">
    <!-- 공부/업무 -->
    <g transform="translate(145.678474 285.483153)scale(0.1 -0.1)">
     <defs>
      <path id="AppleGothic-acf5" d="M 4870 570 
Q 4870 960 4352 1165 
Q 3904 1325 3187 1325 
Q 2387 1325 1961 1120 
Q 1536 915 1536 608 
Q 1536 186 2144 6 
Q 2349 -58 2611 -86 
Q 2874 -115 3200 -115 
Q 4051 -115 4460 41 
Q 4870 198 4870 570 
z
M 5357 576 
Q 5357 314 5213 112 
Q 5069 -90 4800 -227 
Q 4531 -365 4147 -435 
Q 3763 -506 3277 -506 
Q 2362 -506 1779 -288 
Q 1050 -13 1050 608 
Q 1050 1158 1734 1453 
Q 2304 1690 3168 1690 
Q 3629 1690 4000 1619 
Q 4371 1549 4678 1414 
Q 5357 1101 5357 576 
z
M 6042 2195 
Q 5971 2195 5811 2195 
Q 5651 2195 5389 2202 
Q 5126 2208 4838 2211 
Q 4550 2214 4211 2221 
Q 3885 2227 3645 2230 
Q 3405 2234 3251 2234 
L 3110 2234 
Q 2637 2234 2288 2234 
Q 1939 2234 1715 2227 
Q 1261 2221 899 2211 
Q 538 2202 352 2195 
L 352 2650 
L 1453 2605 
L 2765 2598 
L 2752 3616 
L 2790 3616 
Q 2995 3616 3145 3600 
Q 3296 3584 3296 3514 
Q 3296 3482 3267 3398 
Q 3238 3315 3238 3270 
L 3238 2592 
L 4704 2605 
Q 5107 2605 5424 2611 
Q 5741 2618 6042 2637 
L 6042 2195 
z
M 5382 4877 
Q 5370 4691 5363 4570 
Q 5350 4422 5324 4227 
Q 5299 4032 5261 3776 
Q 5248 3667 5222 3545 
Q 5197 3424 5165 3277 
Q 5152 3226 5139 3165 
Q 5126 3104 5101 3027 
L 4666 3053 
L 4794 3674 
Q 4826 3846 4851 4076 
Q 4877 4307 4877 4461 
Q 4506 4474 4054 4480 
Q 3603 4486 3168 4486 
L 909 4480 
L 909 4902 
Q 1299 4890 1772 4883 
Q 2246 4877 2714 4877 
L 5382 4877 
z
" transform="scale(0.015625)"/>
      <path id="AppleGothic-bd80" d="M 4563 3130 
L 4563 4038 
L 1760 4045 
L 1760 3123 
L 4563 3130 
z
M 6010 1613 
Q 5798 1613 5472 1619 
Q 5146 1626 4704 1638 
Q 4269 1651 3942 1657 
Q 3616 1664 3392 1664 
L 3392 -589 
L 2931 -589 
Q 2938 -538 2947 -355 
Q 2957 -173 2957 224 
L 2950 1664 
L 1914 1670 
Q 1549 1670 1145 1664 
Q 742 1658 397 1645 
L 397 2042 
Q 512 2035 611 2035 
Q 710 2035 800 2029 
Q 2016 1990 2957 1990 
L 3187 1990 
Q 3654 1990 4000 1990 
Q 4346 1990 4576 1997 
Q 5037 2003 5421 2009 
Q 5805 2016 6010 2022 
L 6010 1613 
z
M 5043 5011 
Q 4992 4890 4992 4794 
L 4986 4109 
L 5005 2816 
L 3878 2829 
L 1318 2816 
L 1325 4749 
Q 1325 4902 1321 4976 
Q 1318 5050 1306 5114 
L 1677 5082 
Q 1792 5082 1792 5011 
Q 1792 4986 1776 4925 
Q 1760 4864 1760 4851 
L 1760 4352 
L 3130 4333 
L 4563 4352 
L 4557 5082 
L 4902 5075 
Q 5043 5075 5043 5011 
z
" transform="scale(0.015625)"/>
      <path id="AppleGothic-c5c5" d="M 4928 26 
L 4928 800 
Q 4819 794 4729 794 
Q 4640 794 4570 794 
Q 4070 781 3731 774 
Q 3392 768 3200 768 
Q 2771 768 2489 761 
Q 2208 755 1965 736 
L 1965 -32 
L 3283 -45 
Q 3507 -45 3769 -35 
Q 4032 -26 4346 -13 
Q 4550 -6 4928 26 
z
M 3187 3392 
Q 3187 3846 2861 4128 
Q 2566 4371 2144 4371 
Q 1715 4371 1414 4128 
Q 1082 3846 1082 3392 
Q 1082 2963 1363 2720 
Q 1645 2477 2106 2477 
Q 2630 2477 2918 2765 
Q 3187 3014 3187 3392 
z
M 5395 1651 
Q 5395 1613 5389 1600 
Q 5357 1485 5357 1453 
L 5382 -461 
L 4947 -499 
L 4922 -365 
L 3296 -365 
Q 2848 -365 2550 -371 
Q 2253 -378 1990 -397 
L 1958 -525 
L 1523 -557 
Q 1530 -410 1533 -176 
Q 1536 58 1536 474 
Q 1536 800 1536 1021 
Q 1536 1242 1530 1357 
Q 1523 1472 1520 1568 
Q 1517 1664 1504 1734 
L 1683 1741 
Q 1830 1741 1916 1725 
Q 2003 1709 2003 1658 
Q 2003 1651 1984 1584 
Q 1965 1517 1965 1478 
L 1965 1101 
Q 2035 1094 2150 1094 
Q 2266 1094 2413 1088 
Q 2566 1082 2700 1082 
Q 2835 1082 2944 1082 
L 4928 1120 
L 4915 1734 
Q 4992 1734 5072 1734 
Q 5152 1734 5229 1728 
Q 5395 1715 5395 1651 
z
M 3616 3386 
Q 3616 2816 3238 2477 
Q 2829 2099 2106 2099 
Q 1382 2099 979 2534 
Q 640 2893 640 3386 
Q 640 3968 1056 4346 
Q 1472 4723 2106 4723 
Q 2790 4723 3206 4358 
Q 3616 3994 3616 3386 
z
M 5414 5082 
Q 5414 5075 5382 4988 
Q 5350 4902 5350 4806 
L 5357 3366 
L 5357 2541 
Q 5363 2426 5366 2320 
Q 5370 2214 5376 2112 
L 4915 2074 
Q 4915 2214 4918 2380 
Q 4922 2547 4928 2752 
Q 4934 2957 4937 3075 
Q 4941 3194 4941 3226 
L 4352 3238 
Q 4224 3238 4083 3232 
Q 3942 3226 3827 3213 
L 3827 3616 
Q 3872 3610 3942 3610 
Q 4013 3610 4109 3603 
L 4397 3603 
Q 4640 3603 4752 3606 
Q 4864 3610 4928 3622 
L 4928 4762 
L 4915 5190 
Q 4998 5190 5088 5187 
Q 5178 5184 5248 5171 
Q 5318 5158 5366 5139 
Q 5414 5120 5414 5082 
z
" transform="scale(0.015625)"/>
      <path id="AppleGothic-bb34" d="M 4563 3962 
L 4550 4602 
Q 4230 4602 3974 4602 
Q 3718 4602 3520 4608 
Q 2733 4621 2304 4627 
Q 1875 4634 1798 4634 
Q 1786 4467 1779 4268 
Q 1773 4070 1773 3878 
L 1786 3270 
L 3213 3258 
L 4550 3277 
L 4563 3962 
z
M 6035 1715 
Q 5888 1722 5776 1725 
Q 5664 1728 5574 1734 
Q 4947 1754 4723 1754 
L 3475 1747 
L 3475 -429 
L 2970 -435 
L 2989 813 
L 2982 1747 
L 1651 1754 
Q 1286 1754 969 1741 
Q 653 1728 365 1715 
L 365 2157 
Q 435 2157 604 2153 
Q 774 2150 1043 2144 
Q 1312 2138 1609 2134 
Q 1907 2131 2246 2125 
Q 2579 2118 2816 2118 
Q 3053 2118 3200 2118 
Q 3501 2118 3795 2118 
Q 4090 2118 4390 2125 
Q 4685 2131 4960 2131 
Q 5235 2131 5485 2138 
Q 5741 2144 5875 2147 
Q 6010 2150 6035 2150 
L 6035 1715 
z
M 5037 4998 
L 5018 3981 
L 5018 2886 
L 2938 2899 
Q 2630 2899 2393 2899 
Q 2157 2899 1984 2893 
Q 1805 2893 1635 2889 
Q 1466 2886 1299 2880 
L 1312 3936 
L 1306 5011 
L 3200 4986 
L 5037 4998 
z
" transform="scale(0.015625)"/>
     </defs>
     <use xlink:href="#AppleGothic-acf5"/>
     <use xlink:href="#AppleGothic-bd80" x="99.999985"/>
     <use xlink:href="#AppleGothic-2f" x="199.999969"/>
     <use xlink:href="#AppleGothic-c5c5" x="249.999954"/>
     <use xlink:href="#AppleGothic-bb34" x="349.999939"/>
    </g>
   </g>
   <g id="text_10">
    <!-- 7.1% -->
    <g transform="translate(197.826895 236.439972)scale(0.1 -0.1)">
     <use xlink:href="#AppleGothic-37"/>
     <use xlink:href="#AppleGothic-2e" x="67.999985"/>
     <use xlink:href="#AppleGothic-31" x="102.499969"/>
     <use xlink:href="#AppleGothic-25" x="170.499954"/>
    </g>
   </g>
   <g id="text_11">
    <!-- 기타 -->
    <g transform="translate(195.827687 292.898592)scale(0.1 -0.1)">
     <defs>
      <path id="AppleGothic-ae30" d="M 5427 5094 
Q 5427 5069 5408 4982 
Q 5389 4896 5389 4832 
L 5363 2362 
L 5382 -493 
L 4909 -518 
Q 4915 -371 4915 -195 
Q 4915 -19 4922 198 
Q 4934 646 4941 1299 
Q 4947 1632 4950 1872 
Q 4954 2112 4954 2259 
Q 4954 3808 4934 4346 
Q 4934 4614 4928 4822 
Q 4922 5030 4915 5184 
L 5114 5190 
Q 5261 5190 5344 5174 
Q 5427 5158 5427 5094 
z
M 3578 4486 
Q 3565 4051 3478 3635 
Q 3392 3219 3209 2819 
Q 3027 2419 2729 2041 
Q 2432 1664 1997 1306 
Q 1786 1139 1555 992 
Q 1325 845 1075 717 
Q 698 525 653 525 
Q 627 557 611 579 
Q 595 602 582 614 
Q 544 653 505 688 
Q 467 723 422 749 
Q 410 762 390 778 
Q 371 794 352 819 
Q 346 826 342 832 
Q 339 838 326 851 
Q 326 877 384 893 
Q 442 909 461 922 
Q 480 922 569 957 
Q 659 992 819 1069 
Q 1043 1171 1238 1283 
Q 1434 1395 1613 1523 
Q 2118 1888 2409 2301 
Q 2701 2714 2886 3187 
Q 2950 3354 2995 3514 
Q 3040 3674 3066 3840 
Q 3072 3898 3078 3962 
Q 3085 4026 3098 4090 
L 1766 4083 
Q 1318 4083 1046 4076 
Q 774 4070 589 4058 
L 589 4474 
Q 685 4467 800 4467 
Q 915 4467 1043 4461 
L 1466 4461 
L 3578 4486 
z
" transform="scale(0.015625)"/>
      <path id="AppleGothic-d0c0" d="M 6022 2618 
L 6016 2202 
L 5146 2202 
L 5152 -493 
L 4653 -493 
Q 4653 -378 4653 -205 
Q 4653 -32 4659 198 
Q 4666 429 4666 720 
Q 4666 1011 4672 1357 
Q 4678 1709 4681 1968 
Q 4685 2227 4685 2400 
Q 4685 3238 4685 3763 
Q 4685 4288 4678 4518 
Q 4666 4979 4659 5190 
L 4762 5190 
Q 4934 5190 5068 5164 
Q 5203 5139 5203 5075 
Q 5203 5043 5180 4963 
Q 5158 4883 5158 4838 
L 5152 2611 
L 6022 2618 
z
M 4288 1222 
L 2605 1024 
Q 2278 992 1948 966 
Q 1619 941 1274 928 
Q 1037 915 710 909 
L 742 2714 
L 730 4538 
L 2253 4512 
L 3859 4525 
L 3859 4134 
L 2470 4154 
L 1190 4141 
L 1190 3034 
Q 1389 3021 1747 3014 
Q 1933 3008 2096 3008 
Q 2259 3008 2406 3008 
L 3744 3027 
L 3744 2630 
Q 3456 2643 3107 2649 
Q 2758 2656 2432 2656 
Q 2150 2656 1833 2646 
Q 1517 2637 1190 2630 
L 1190 1325 
Q 1344 1331 1465 1334 
Q 1587 1338 1690 1344 
Q 2259 1376 2682 1421 
Q 2893 1446 3174 1478 
Q 3456 1510 3821 1555 
Q 3910 1568 4028 1581 
Q 4147 1594 4288 1613 
L 4288 1222 
z
" transform="scale(0.015625)"/>
     </defs>
     <use xlink:href="#AppleGothic-ae30"/>
     <use xlink:href="#AppleGothic-d0c0" x="99.999985"/>
    </g>
   </g>
   <g id="text_12">
    <!-- 0.0% -->
    <g transform="translate(211.544647 240.484757)scale(0.1 -0.1)">
     <defs>
      <path id="AppleGothic-30" d="M 2227 -83 
Q 1414 -83 934 576 
Q 461 1229 461 2387 
Q 461 3552 973 4218 
Q 1453 4858 2221 4858 
Q 3027 4858 3482 4173 
Q 3955 3494 3955 2394 
Q 3955 1248 3462 582 
Q 2976 -83 2227 -83 
z
M 2176 346 
Q 2861 346 3200 992 
Q 3462 1536 3462 2400 
Q 3462 3315 3162 3859 
Q 2822 4429 2214 4429 
Q 1574 4429 1248 3821 
Q 960 3283 960 2374 
Q 960 1478 1248 941 
Q 1574 346 2176 346 
z
" transform="scale(0.015625)"/>
     </defs>
     <use xlink:href="#AppleGothic-30"/>
     <use xlink:href="#AppleGothic-2e" x="67.999985"/>
     <use xlink:href="#AppleGothic-30" x="102.499969"/>
     <use xlink:href="#AppleGothic-25" x="170.499954"/>
    </g>
   </g>
   <g id="text_13">
    <!-- Noise-직전 상황-14개 -->
    <g transform="translate(175.002188 35.472)scale(0.12 -0.12)">
     <defs>
      <path id="AppleGothic-4e" d="M 320 0 
L 320 5018 
L 781 5018 
L 3866 768 
L 3866 5018 
L 4326 5018 
L 4326 0 
L 3866 0 
L 781 4243 
L 781 0 
L 320 0 
z
" transform="scale(0.015625)"/>
      <path id="AppleGothic-6f" d="M 1888 -83 
Q 1229 -83 730 397 
Q 198 902 198 1709 
Q 198 2470 666 2982 
Q 1146 3501 1850 3501 
Q 2547 3501 3027 2982 
Q 3501 2470 3501 1715 
Q 3501 922 2989 403 
Q 2515 -83 1888 -83 
z
M 1843 339 
Q 2304 339 2662 723 
Q 3008 1114 3008 1715 
Q 3008 2336 2637 2726 
Q 2298 3085 1850 3085 
Q 1389 3085 1062 2714 
Q 704 2304 704 1709 
Q 704 1107 1056 704 
Q 1382 339 1843 339 
z
" transform="scale(0.015625)"/>
      <path id="AppleGothic-69" d="M 256 3424 
L 717 3424 
L 717 0 
L 256 0 
L 256 3424 
z
M 480 4870 
Q 614 4870 704 4780 
Q 794 4691 794 4525 
Q 794 4358 710 4268 
Q 627 4179 480 4179 
Q 333 4179 253 4281 
Q 173 4384 173 4518 
Q 173 4730 269 4800 
Q 365 4870 480 4870 
z
" transform="scale(0.015625)"/>
      <path id="AppleGothic-73" d="M 224 294 
L 224 851 
Q 621 531 1030 403 
Q 1152 371 1267 355 
Q 1382 339 1504 339 
Q 1894 339 2150 518 
Q 2413 710 2413 947 
Q 2413 1075 2317 1210 
Q 2182 1376 1600 1510 
Q 909 1683 678 1798 
Q 230 2054 230 2515 
Q 230 2944 602 3219 
Q 979 3501 1542 3501 
Q 1798 3501 2003 3456 
Q 2208 3411 2387 3337 
Q 2566 3264 2720 3155 
L 2720 2598 
Q 2451 2822 2156 2953 
Q 1862 3085 1536 3085 
Q 1210 3085 973 2938 
Q 730 2790 730 2554 
Q 730 2240 1306 2054 
Q 1574 1978 1836 1901 
Q 2099 1824 2368 1747 
Q 2950 1498 2950 992 
Q 2950 563 2547 237 
Q 2138 -83 1530 -83 
Q 1261 -83 1005 -26 
Q 595 64 224 294 
z
" transform="scale(0.015625)"/>
      <path id="AppleGothic-65" d="M 3296 1850 
L 691 1850 
Q 691 1114 1033 726 
Q 1376 339 1933 339 
Q 2355 339 2746 608 
Q 2854 678 2976 784 
Q 3098 890 3238 1030 
L 3238 474 
Q 3085 358 2953 272 
Q 2822 186 2707 128 
Q 2304 -83 1901 -83 
Q 1203 -83 717 397 
Q 192 902 192 1709 
Q 192 2470 666 2982 
Q 1146 3501 1850 3501 
Q 2534 3501 2938 3002 
Q 3296 2547 3296 1850 
z
M 755 2240 
L 2758 2240 
Q 2682 2675 2429 2889 
Q 2176 3104 1818 3104 
Q 1421 3104 1146 2854 
Q 890 2624 755 2240 
z
" transform="scale(0.015625)"/>
      <path id="AppleGothic-2d" d="M 256 1958 
L 2349 1958 
L 2349 1491 
L 256 1491 
L 256 1958 
z
" transform="scale(0.015625)"/>
      <path id="AppleGothic-c9c1" d="M 5421 -397 
Q 5421 -499 5318 -525 
Q 5248 -531 5206 -531 
Q 5165 -531 5133 -538 
Q 4922 -538 4922 -454 
L 4934 390 
L 4934 1139 
L 1286 1107 
L 1286 1517 
L 3424 1504 
L 5414 1523 
L 5408 499 
L 5421 -397 
z
M 4346 2374 
Q 4339 2368 4339 2362 
Q 4326 2336 4269 2278 
L 4032 2042 
Q 3923 2106 3843 2154 
Q 3763 2202 3699 2246 
Q 3296 2515 3033 2800 
Q 2771 3085 2605 3424 
Q 2592 3456 2576 3491 
Q 2560 3526 2541 3571 
Q 2509 3482 2470 3408 
Q 2432 3334 2400 3283 
Q 2208 2957 1897 2662 
Q 1587 2368 1184 2144 
Q 1114 2106 1030 2064 
Q 947 2022 838 1978 
L 493 2240 
Q 454 2266 442 2285 
Q 435 2285 429 2291 
Q 442 2304 448 2304 
Q 486 2330 499 2336 
Q 1229 2541 1734 3085 
Q 2278 3674 2278 4403 
L 826 4403 
L 826 4794 
Q 922 4794 1146 4790 
Q 1370 4787 1715 4781 
Q 2061 4774 2249 4774 
Q 2438 4774 2477 4774 
L 4141 4794 
L 4141 4403 
L 2746 4403 
Q 2778 4179 2803 4070 
Q 2899 3706 3123 3379 
Q 3411 2982 3866 2675 
Q 3942 2624 4041 2569 
Q 4141 2515 4269 2445 
Q 4269 2445 4320 2413 
Q 4346 2406 4346 2374 
z
M 5459 5062 
Q 5459 5037 5436 4969 
Q 5414 4902 5414 4877 
Q 5402 4627 5395 4288 
Q 5389 3949 5389 3475 
L 5402 1920 
Q 5402 1882 5395 1856 
Q 5389 1830 5363 1814 
Q 5338 1798 5283 1785 
Q 5229 1773 5126 1766 
Q 4922 1766 4922 1837 
L 4947 3565 
Q 4947 3878 4947 4121 
Q 4947 4365 4941 4538 
Q 4934 4717 4934 4880 
Q 4934 5043 4922 5190 
L 4979 5190 
Q 5190 5190 5324 5168 
Q 5459 5146 5459 5062 
z
" transform="scale(0.015625)"/>
      <path id="AppleGothic-c804" d="M 3981 2138 
L 3648 1830 
Q 3616 1850 3587 1869 
Q 3558 1888 3533 1901 
Q 3226 2112 2854 2522 
Q 2643 2739 2496 3066 
Q 2445 3162 2381 3334 
Q 2304 3142 2246 3027 
Q 2144 2842 2022 2666 
Q 1901 2490 1741 2323 
Q 1504 2067 1146 1798 
Q 1088 1754 1011 1706 
Q 934 1658 838 1594 
Q 832 1613 557 1792 
Q 429 1882 429 1901 
Q 1126 2195 1626 2842 
Q 2170 3546 2170 4256 
Q 2138 4262 2102 4265 
Q 2067 4269 2035 4269 
Q 1786 4288 1530 4288 
L 806 4269 
L 806 4672 
Q 992 4659 1328 4646 
Q 1664 4634 2163 4634 
L 2336 4634 
Q 2662 4634 2902 4637 
Q 3142 4640 3309 4646 
Q 3475 4653 3606 4659 
Q 3738 4666 3846 4666 
L 3846 4269 
L 3264 4282 
Q 3046 4282 2758 4262 
Q 2733 4262 2697 4259 
Q 2662 4256 2611 4250 
Q 2611 3917 2675 3667 
Q 2771 3270 3024 2960 
Q 3277 2650 3558 2426 
Q 3635 2355 3737 2294 
Q 3840 2234 3968 2163 
L 3981 2138 
z
M 5587 -13 
L 5562 -410 
L 4634 -403 
Q 4256 -403 3792 -406 
Q 3328 -410 2752 -416 
Q 1619 -435 1440 -435 
L 1446 230 
L 1421 1274 
L 1536 1274 
Q 1722 1274 1840 1254 
Q 1958 1235 1958 1184 
Q 1958 1165 1932 1081 
Q 1907 998 1907 941 
L 1907 -32 
L 2893 -45 
Q 2950 -45 3043 -45 
Q 3136 -45 3270 -38 
Q 3398 -32 3497 -32 
Q 3597 -32 3667 -32 
L 5587 -13 
z
M 5421 5075 
Q 5421 5056 5401 4995 
Q 5382 4934 5382 4883 
L 5370 2893 
Q 5370 2566 5370 2288 
Q 5370 2010 5376 1763 
Q 5382 1517 5385 1296 
Q 5389 1075 5402 864 
L 4928 864 
L 4941 2042 
L 4941 3059 
L 3757 3059 
L 3757 3475 
L 4218 3462 
L 4941 3482 
L 4941 4698 
Q 4941 5088 4915 5190 
L 4941 5190 
Q 5139 5190 5280 5171 
Q 5421 5152 5421 5075 
z
" transform="scale(0.015625)"/>
      <path id="AppleGothic-c0c1" d="M 5312 538 
Q 5312 -26 4698 -237 
Q 4237 -403 3264 -403 
Q 2381 -403 1837 -173 
Q 1235 77 1235 538 
Q 1235 1120 1843 1363 
Q 2074 1453 2426 1497 
Q 2778 1542 3258 1542 
Q 3686 1542 4019 1500 
Q 4352 1459 4595 1382 
Q 5312 1146 5312 538 
z
M 3942 2413 
Q 3942 2394 3866 2330 
Q 3648 2170 3635 2144 
Q 3546 2195 3469 2240 
Q 3392 2285 3334 2323 
Q 2970 2566 2717 2848 
Q 2464 3130 2278 3456 
Q 2253 3507 2221 3574 
Q 2189 3642 2144 3731 
Q 2093 3616 2051 3517 
Q 2010 3418 1971 3341 
Q 1843 3117 1692 2918 
Q 1542 2720 1357 2534 
Q 1229 2406 1094 2297 
Q 960 2189 819 2086 
Q 768 2054 713 2019 
Q 659 1984 589 1939 
Q 538 1965 416 2042 
Q 365 2093 291 2125 
Q 218 2157 218 2176 
L 230 2202 
Q 307 2246 364 2278 
Q 422 2310 474 2342 
Q 762 2534 1014 2777 
Q 1267 3021 1472 3322 
Q 1613 3514 1709 3718 
Q 1805 3923 1869 4141 
Q 1952 4435 1952 4736 
L 1946 4909 
Q 2016 4909 2099 4902 
Q 2182 4896 2278 4883 
Q 2477 4858 2477 4794 
Q 2477 4774 2419 4713 
Q 2362 4653 2362 4506 
Q 2362 4371 2403 4211 
Q 2445 4051 2573 3770 
Q 2746 3386 3091 3040 
Q 3213 2918 3353 2809 
Q 3494 2701 3661 2592 
Q 3910 2438 3930 2438 
L 3942 2413 
z
M 6010 2784 
L 5933 2784 
Q 5606 2803 5530 2803 
L 5114 2771 
L 5107 2342 
Q 5107 2080 5110 1949 
Q 5114 1818 5120 1734 
L 4653 1722 
Q 4666 1914 4672 2272 
Q 4678 2630 4678 3046 
Q 4678 3482 4678 3808 
Q 4678 4134 4672 4358 
Q 4672 4582 4669 4790 
Q 4666 4998 4659 5190 
L 4730 5190 
Q 4915 5190 5046 5171 
Q 5178 5152 5178 5094 
Q 5158 5030 5139 4969 
Q 5120 4909 5120 4845 
L 5107 4294 
L 5120 3162 
L 5504 3149 
Q 5690 3149 5814 3155 
Q 5939 3162 6010 3174 
L 6010 2784 
z
M 4858 544 
Q 4858 928 4333 1094 
Q 4141 1158 3872 1184 
Q 3603 1210 3258 1210 
Q 2464 1210 2118 1088 
Q 1683 928 1683 544 
Q 1715 282 2121 122 
Q 2528 -38 3270 -38 
Q 4058 -38 4416 70 
Q 4858 192 4858 544 
z
" transform="scale(0.015625)"/>
      <path id="AppleGothic-d669" d="M 4749 416 
Q 4749 742 4192 870 
Q 4032 902 3814 918 
Q 3597 934 3322 934 
Q 1914 934 1914 416 
Q 1914 102 2464 -13 
Q 2611 -45 2825 -61 
Q 3040 -77 3322 -77 
Q 3923 -77 4205 -13 
Q 4749 102 4749 416 
z
M 3200 3046 
Q 3200 3290 2854 3366 
Q 2650 3418 2349 3418 
Q 1990 3418 1818 3373 
Q 1459 3296 1459 3046 
Q 1459 2842 1728 2765 
Q 1901 2714 2208 2714 
L 2496 2714 
Q 2778 2714 2950 2765 
Q 3200 2829 3200 3046 
z
M 5178 416 
Q 5178 -102 4461 -314 
Q 4237 -384 3952 -413 
Q 3667 -442 3322 -442 
Q 2982 -442 2704 -410 
Q 2426 -378 2202 -307 
Q 1472 -83 1472 429 
Q 1472 947 2195 1152 
Q 2624 1267 3322 1267 
Q 3674 1267 3955 1235 
Q 4237 1203 4461 1146 
Q 5178 934 5178 416 
z
M 4371 1798 
Q 4192 1773 4048 1757 
Q 3904 1741 3782 1728 
Q 3392 1683 3033 1664 
Q 2675 1645 2330 1645 
Q 1798 1645 1050 1587 
Q 979 1581 892 1574 
Q 806 1568 698 1555 
Q 646 1555 560 1526 
Q 474 1498 454 1498 
Q 416 1498 390 1539 
Q 365 1581 352 1645 
Q 339 1709 332 1785 
Q 326 1862 326 1939 
L 2144 1971 
L 2138 2406 
Q 1920 2419 1737 2457 
Q 1555 2496 1402 2566 
Q 1062 2733 1062 3046 
Q 1062 3482 1568 3622 
Q 1824 3706 2349 3706 
Q 2874 3706 3123 3622 
Q 3610 3482 3610 3046 
Q 3610 2650 3110 2496 
Q 2976 2470 2841 2451 
Q 2707 2432 2566 2406 
L 2560 2010 
Q 2752 2022 2960 2035 
Q 3168 2048 3411 2074 
L 4320 2163 
L 4371 1798 
z
M 6010 2682 
L 5530 2701 
L 5126 2694 
L 5126 1421 
L 4685 1389 
L 4698 3149 
Q 4698 3699 4698 4054 
Q 4698 4410 4691 4570 
Q 4685 4736 4681 4886 
Q 4678 5037 4666 5184 
L 4755 5184 
Q 4966 5184 5059 5152 
Q 5152 5120 5152 5062 
Q 5152 5037 5129 4963 
Q 5107 4890 5107 4858 
L 5107 4141 
L 5107 3398 
Q 5114 3302 5117 3219 
Q 5120 3136 5126 3066 
L 5523 3059 
Q 5875 3059 6010 3078 
L 6010 2682 
z
M 4083 3949 
Q 3974 3955 3888 3955 
Q 3802 3955 3731 3955 
Q 3232 3968 2877 3974 
Q 2522 3981 2291 3981 
L 2163 3981 
Q 1664 3981 1312 3974 
Q 960 3968 640 3949 
L 640 4333 
Q 909 4320 1254 4307 
Q 1600 4294 2016 4294 
L 2259 4294 
Q 2771 4294 3238 4307 
Q 3706 4320 4083 4333 
L 4083 3949 
z
M 3053 4646 
L 2336 4659 
L 1677 4646 
L 1677 4998 
L 2310 4986 
L 3053 4998 
L 3053 4646 
z
" transform="scale(0.015625)"/>
      <path id="AppleGothic-ac1c" d="M 5658 5101 
Q 5658 5094 5648 5065 
Q 5638 5037 5626 4973 
Q 5594 4845 5594 4806 
L 5587 -467 
L 5158 -506 
L 5171 2163 
L 4256 2138 
L 4256 -186 
L 3853 -224 
Q 3853 19 3853 393 
Q 3853 768 3859 1274 
Q 3866 1786 3866 2301 
Q 3866 2816 3872 3354 
Q 3878 3898 3881 4211 
Q 3885 4525 3885 4634 
Q 3885 4883 3866 5050 
L 3898 5050 
Q 4051 5050 4188 5034 
Q 4326 5018 4326 4966 
Q 4326 4954 4294 4874 
Q 4262 4794 4262 4717 
Q 4262 4704 4262 4592 
Q 4262 4480 4256 4275 
Q 4250 4070 4250 3910 
Q 4250 3750 4250 3642 
L 4256 2483 
L 5178 2502 
L 5190 4250 
L 5190 4717 
Q 5190 4902 5187 4998 
Q 5184 5094 5171 5190 
L 5248 5190 
Q 5478 5190 5568 5171 
Q 5658 5152 5658 5101 
z
M 2989 4410 
Q 2989 4205 2966 4009 
Q 2944 3814 2899 3610 
Q 2829 3264 2691 2931 
Q 2554 2598 2362 2266 
Q 2074 1760 1651 1350 
Q 1338 1056 1011 845 
Q 774 685 730 685 
Q 704 698 691 707 
Q 678 717 666 723 
Q 634 749 608 771 
Q 582 794 563 819 
Q 525 870 457 905 
Q 390 941 390 954 
L 403 986 
Q 448 986 666 1114 
Q 992 1293 1280 1549 
Q 1485 1722 1657 1930 
Q 1830 2138 1978 2381 
Q 2291 2893 2464 3526 
Q 2490 3629 2515 3760 
Q 2541 3891 2560 4051 
L 1696 4058 
L 627 4026 
L 627 4403 
Q 723 4397 838 4397 
Q 954 4397 1082 4390 
L 1491 4390 
L 2989 4410 
z
" transform="scale(0.015625)"/>
     </defs>
     <use xlink:href="#AppleGothic-4e"/>
     <use xlink:href="#AppleGothic-6f" x="72.599991"/>
     <use xlink:href="#AppleGothic-69" x="130.899979"/>
     <use xlink:href="#AppleGothic-73" x="146.799973"/>
     <use xlink:href="#AppleGothic-65" x="196.399963"/>
     <use xlink:href="#AppleGothic-2d" x="251.299957"/>
     <use xlink:href="#AppleGothic-c9c1" x="301.299942"/>
     <use xlink:href="#AppleGothic-c804" x="401.299927"/>
     <use xlink:href="#AppleGothic-20" x="501.299911"/>
     <use xlink:href="#AppleGothic-c0c1" x="533.299896"/>
     <use xlink:href="#AppleGothic-d669" x="633.299881"/>
     <use xlink:href="#AppleGothic-2d" x="733.299866"/>
     <use xlink:href="#AppleGothic-31" x="783.29985"/>
     <use xlink:href="#AppleGothic-34" x="851.299835"/>
     <use xlink:href="#AppleGothic-ac1c" x="919.29982"/>
    </g>
   </g>
  </g>
 </g>
</svg>
