<?xml version="1.0" encoding="utf-8" standalone="no"?>
<!DOCTYPE svg PUBLIC "-//W3C//DTD SVG 1.1//EN"
  "http://www.w3.org/Graphics/SVG/1.1/DTD/svg11.dtd">
<svg xmlns:xlink="http://www.w3.org/1999/xlink" width="2160pt" height="756pt" viewBox="0 0 2160 756" xmlns="http://www.w3.org/2000/svg" version="1.1">
 <metadata>
  <rdf:RDF xmlns:dc="http://purl.org/dc/elements/1.1/" xmlns:cc="http://creativecommons.org/ns#" xmlns:rdf="http://www.w3.org/1999/02/22-rdf-syntax-ns#">
   <cc:Work>
    <dc:type rdf:resource="http://purl.org/dc/dcmitype/StillImage"/>
    <dc:date>2023-06-28T14:10:45.274560</dc:date>
    <dc:format>image/svg+xml</dc:format>
    <dc:creator>
     <cc:Agent>
      <dc:title>Matplotlib v3.5.2, https://matplotlib.org/</dc:title>
     </cc:Agent>
    </dc:creator>
   </cc:Work>
  </rdf:RDF>
 </metadata>
 <defs>
  <style type="text/css">*{stroke-linejoin: round; stroke-linecap: butt}</style>
 </defs>
 <g id="figure_1">
  <g id="patch_1">
   <path d="M 0 756 
L 2160 756 
L 2160 0 
L 0 0 
z
" style="fill: #ffffff"/>
  </g>
  <g id="axes_1">
   <g id="patch_2">
    <path d="M 270 672.84 
L 1944 672.84 
L 1944 90.72 
L 270 90.72 
z
" style="fill: #ffffff"/>
   </g>
   <g id="matplotlib.axis_1">
    <g id="xtick_1">
     <g id="line2d_1">
      <defs>
       <path id="m10d7043933" d="M 0 0 
L 0 3.5 
" style="stroke: #000000; stroke-width: 0.8"/>
      </defs>
      <g>
       <use xlink:href="#m10d7043933" x="311.85" y="672.84" style="stroke: #000000; stroke-width: 0.8"/>
      </g>
     </g>
     <g id="text_1">
      <!-- 1 -->
      <g transform="translate(303.35 699.441563)scale(0.25 -0.25)">
       <defs>
        <path id="AppleGothic-31" d="M 2342 4774 
L 2752 4774 
L 2752 0 
L 2285 0 
L 2285 3526 
L 1158 3526 
L 1158 3885 
L 1414 3885 
Q 1990 3885 2214 4205 
Q 2342 4410 2342 4774 
z
" transform="scale(0.015625)"/>
       </defs>
       <use xlink:href="#AppleGothic-31"/>
      </g>
     </g>
    </g>
    <g id="xtick_2">
     <g id="line2d_2">
      <g>
       <use xlink:href="#m10d7043933" x="395.55" y="672.84" style="stroke: #000000; stroke-width: 0.8"/>
      </g>
     </g>
     <g id="text_2">
      <!-- 2 -->
      <g transform="translate(387.05 699.441563)scale(0.25 -0.25)">
       <defs>
        <path id="AppleGothic-32" d="M 1101 429 
L 3942 429 
L 3942 0 
L 653 0 
L 653 205 
Q 653 1018 1344 1664 
Q 1670 1894 1990 2124 
Q 2310 2355 2637 2592 
Q 3334 3098 3334 3597 
Q 3334 3994 3014 4218 
Q 2867 4326 2694 4377 
Q 2522 4429 2317 4429 
Q 2016 4429 1741 4352 
Q 1325 4224 883 3910 
L 883 4435 
Q 1325 4659 1667 4758 
Q 2010 4858 2317 4858 
Q 2963 4858 3405 4525 
Q 3840 4198 3840 3622 
Q 3840 2995 3168 2438 
Q 2848 2214 2531 2000 
Q 2214 1786 1894 1562 
Q 1178 1024 1101 429 
z
" transform="scale(0.015625)"/>
       </defs>
       <use xlink:href="#AppleGothic-32"/>
      </g>
     </g>
    </g>
    <g id="xtick_3">
     <g id="line2d_3">
      <g>
       <use xlink:href="#m10d7043933" x="479.25" y="672.84" style="stroke: #000000; stroke-width: 0.8"/>
      </g>
     </g>
     <g id="text_3">
      <!-- 3 -->
      <g transform="translate(470.75 699.441563)scale(0.25 -0.25)">
       <defs>
        <path id="AppleGothic-33" d="M 550 333 
L 550 870 
Q 883 621 1235 483 
Q 1587 346 1971 346 
Q 2522 346 2861 666 
Q 3219 992 3219 1421 
Q 3219 1869 2842 2099 
Q 2515 2304 1965 2304 
L 992 2304 
L 992 2701 
L 1658 2701 
Q 2298 2701 2662 2928 
Q 3027 3155 3027 3584 
Q 3027 3936 2752 4173 
Q 2458 4429 1978 4429 
Q 1786 4429 1597 4393 
Q 1408 4358 1222 4282 
Q 890 4141 531 3872 
L 531 4422 
Q 736 4531 912 4608 
Q 1088 4685 1254 4736 
Q 1626 4858 2022 4858 
Q 2650 4858 3066 4531 
Q 3488 4211 3488 3642 
Q 3488 3168 3168 2861 
Q 2976 2675 2643 2554 
Q 2874 2522 3053 2448 
Q 3232 2374 3366 2266 
Q 3718 1971 3718 1434 
Q 3718 813 3219 365 
Q 2714 -83 1965 -83 
Q 1549 -83 1126 70 
Q 1024 102 880 166 
Q 736 230 550 333 
z
" transform="scale(0.015625)"/>
       </defs>
       <use xlink:href="#AppleGothic-33"/>
      </g>
     </g>
    </g>
    <g id="xtick_4">
     <g id="line2d_4">
      <g>
       <use xlink:href="#m10d7043933" x="562.95" y="672.84" style="stroke: #000000; stroke-width: 0.8"/>
      </g>
     </g>
     <g id="text_4">
      <!-- 4 -->
      <g transform="translate(554.45 699.441563)scale(0.25 -0.25)">
       <defs>
        <path id="AppleGothic-34" d="M 2662 4774 
L 3130 4774 
L 3130 1811 
L 4000 1811 
L 4000 1382 
L 3130 1382 
L 3130 0 
L 2662 0 
L 2662 1382 
L 352 1382 
L 352 1811 
L 2662 4774 
z
M 2662 1811 
L 2662 4166 
L 838 1811 
L 2662 1811 
z
" transform="scale(0.015625)"/>
       </defs>
       <use xlink:href="#AppleGothic-34"/>
      </g>
     </g>
    </g>
    <g id="xtick_5">
     <g id="line2d_5">
      <g>
       <use xlink:href="#m10d7043933" x="646.65" y="672.84" style="stroke: #000000; stroke-width: 0.8"/>
      </g>
     </g>
     <g id="text_5">
      <!-- 5 -->
      <g transform="translate(638.15 699.441563)scale(0.25 -0.25)">
       <defs>
        <path id="AppleGothic-35" d="M 621 4768 
L 3488 4768 
L 3488 4339 
L 1088 4339 
L 1088 2707 
Q 1184 2771 1293 2819 
Q 1402 2867 1510 2912 
Q 1862 3040 2259 3040 
Q 2989 3040 3424 2605 
Q 3827 2202 3827 1581 
Q 3827 870 3296 397 
Q 2765 -83 2010 -83 
Q 1651 -83 1248 45 
Q 1158 77 1001 137 
Q 845 198 621 301 
L 621 838 
Q 928 640 1203 525 
Q 1408 435 1613 390 
Q 1818 346 2010 346 
Q 2528 346 2906 666 
Q 3322 1011 3322 1536 
Q 3322 1990 3021 2291 
Q 2701 2611 2144 2611 
Q 1856 2611 1587 2528 
Q 1318 2445 1088 2272 
L 621 2272 
L 621 4768 
z
" transform="scale(0.015625)"/>
       </defs>
       <use xlink:href="#AppleGothic-35"/>
      </g>
     </g>
    </g>
    <g id="xtick_6">
     <g id="line2d_6">
      <g>
       <use xlink:href="#m10d7043933" x="730.35" y="672.84" style="stroke: #000000; stroke-width: 0.8"/>
      </g>
     </g>
     <g id="text_6">
      <!-- 6 -->
      <g transform="translate(721.85 699.441563)scale(0.25 -0.25)">
       <defs>
        <path id="AppleGothic-36" d="M 3699 4557 
L 3699 4013 
Q 3584 4102 3475 4163 
Q 3366 4224 3258 4275 
Q 3085 4358 2918 4393 
Q 2752 4429 2586 4429 
Q 2470 4429 2352 4409 
Q 2234 4390 2118 4339 
Q 1670 4154 1395 3738 
Q 1011 3149 1011 2189 
Q 1312 2490 1568 2656 
Q 2022 2931 2534 2931 
Q 3162 2931 3584 2566 
Q 4038 2163 4038 1491 
Q 4038 806 3558 358 
Q 3078 -83 2394 -83 
Q 1670 -83 1146 454 
Q 518 1088 518 2253 
Q 518 3411 1120 4134 
Q 1715 4858 2605 4858 
Q 2938 4858 3226 4762 
Q 3309 4730 3427 4682 
Q 3546 4634 3699 4557 
z
M 1062 1702 
Q 1152 1152 1498 768 
Q 1882 346 2419 346 
Q 2899 346 3213 659 
Q 3539 973 3539 1459 
Q 3539 1920 3226 2214 
Q 2918 2502 2496 2502 
Q 1990 2502 1542 2176 
Q 1414 2080 1292 1965 
Q 1171 1850 1062 1702 
z
" transform="scale(0.015625)"/>
       </defs>
       <use xlink:href="#AppleGothic-36"/>
      </g>
     </g>
    </g>
    <g id="xtick_7">
     <g id="line2d_7">
      <g>
       <use xlink:href="#m10d7043933" x="814.05" y="672.84" style="stroke: #000000; stroke-width: 0.8"/>
      </g>
     </g>
     <g id="text_7">
      <!-- 7 -->
      <g transform="translate(805.55 699.441563)scale(0.25 -0.25)">
       <defs>
        <path id="AppleGothic-37" d="M 595 4774 
L 3802 4774 
L 3802 4410 
L 1734 0 
L 1235 0 
L 3277 4352 
L 595 4352 
L 595 4774 
z
" transform="scale(0.015625)"/>
       </defs>
       <use xlink:href="#AppleGothic-37"/>
      </g>
     </g>
    </g>
    <g id="xtick_8">
     <g id="line2d_8">
      <g>
       <use xlink:href="#m10d7043933" x="897.75" y="672.84" style="stroke: #000000; stroke-width: 0.8"/>
      </g>
     </g>
     <g id="text_8">
      <!-- 8 -->
      <g transform="translate(889.25 699.441563)scale(0.25 -0.25)">
       <defs>
        <path id="AppleGothic-38" d="M 2957 2605 
Q 3219 2528 3404 2445 
Q 3590 2362 3706 2272 
Q 4192 1926 4192 1370 
Q 4192 749 3642 333 
Q 3098 -83 2285 -83 
Q 1434 -83 947 326 
Q 512 691 512 1229 
Q 512 1798 998 2125 
Q 1146 2227 1341 2304 
Q 1536 2381 1779 2451 
Q 1574 2534 1430 2617 
Q 1286 2701 1197 2784 
Q 819 3104 819 3603 
Q 819 4173 1261 4512 
Q 1702 4858 2381 4858 
Q 3014 4858 3437 4570 
Q 3898 4262 3898 3738 
Q 3898 3373 3670 3081 
Q 3443 2790 2957 2605 
z
M 2406 2752 
Q 2624 2835 2781 2915 
Q 2938 2995 3040 3066 
Q 3398 3322 3398 3667 
Q 3398 3994 3104 4205 
Q 2822 4429 2362 4429 
Q 1894 4429 1613 4205 
Q 1325 3994 1325 3635 
Q 1325 3322 1581 3098 
Q 1696 3002 1901 2912 
Q 2106 2822 2406 2752 
z
M 2368 2304 
Q 2061 2202 1840 2106 
Q 1619 2010 1472 1920 
Q 1011 1626 1011 1235 
Q 1011 845 1376 595 
Q 1728 346 2310 346 
Q 2938 346 3315 640 
Q 3693 934 3693 1338 
Q 3693 1741 3238 1997 
Q 3104 2067 2886 2147 
Q 2669 2227 2368 2304 
z
" transform="scale(0.015625)"/>
       </defs>
       <use xlink:href="#AppleGothic-38"/>
      </g>
     </g>
    </g>
    <g id="xtick_9">
     <g id="line2d_9">
      <g>
       <use xlink:href="#m10d7043933" x="981.45" y="672.84" style="stroke: #000000; stroke-width: 0.8"/>
      </g>
     </g>
     <g id="text_9">
      <!-- 9 -->
      <g transform="translate(972.95 699.441563)scale(0.25 -0.25)">
       <defs>
        <path id="AppleGothic-39" d="M 928 211 
L 928 762 
Q 1050 672 1155 601 
Q 1261 531 1363 480 
Q 1702 320 2016 320 
Q 2291 320 2541 435 
Q 2739 525 2908 675 
Q 3078 826 3213 1037 
Q 3456 1408 3552 1843 
Q 3616 2144 3616 2573 
Q 3315 2272 3066 2125 
Q 2605 1850 2093 1850 
Q 1459 1850 1037 2214 
Q 589 2598 589 3270 
Q 589 3987 1082 4416 
Q 1549 4832 2234 4832 
Q 2970 4832 3494 4301 
Q 4122 3661 4122 2528 
Q 4122 1325 3475 582 
Q 2874 -109 2035 -109 
Q 1722 -109 1357 19 
Q 1254 51 1148 102 
Q 1043 154 928 211 
z
M 3578 3066 
Q 3462 3718 3053 4077 
Q 2675 4403 2227 4403 
Q 1715 4403 1402 4083 
Q 1082 3750 1082 3302 
Q 1082 2861 1370 2566 
Q 1658 2278 2125 2278 
Q 2573 2278 2915 2473 
Q 3258 2669 3578 3066 
z
" transform="scale(0.015625)"/>
       </defs>
       <use xlink:href="#AppleGothic-39"/>
      </g>
     </g>
    </g>
    <g id="xtick_10">
     <g id="line2d_10">
      <g>
       <use xlink:href="#m10d7043933" x="1065.15" y="672.84" style="stroke: #000000; stroke-width: 0.8"/>
      </g>
     </g>
     <g id="text_10">
      <!-- 10 -->
      <g transform="translate(1048.15 699.441563)scale(0.25 -0.25)">
       <defs>
        <path id="AppleGothic-30" d="M 2227 -83 
Q 1414 -83 934 576 
Q 461 1229 461 2387 
Q 461 3552 973 4218 
Q 1453 4858 2221 4858 
Q 3027 4858 3482 4173 
Q 3955 3494 3955 2394 
Q 3955 1248 3462 582 
Q 2976 -83 2227 -83 
z
M 2176 346 
Q 2861 346 3200 992 
Q 3462 1536 3462 2400 
Q 3462 3315 3162 3859 
Q 2822 4429 2214 4429 
Q 1574 4429 1248 3821 
Q 960 3283 960 2374 
Q 960 1478 1248 941 
Q 1574 346 2176 346 
z
" transform="scale(0.015625)"/>
       </defs>
       <use xlink:href="#AppleGothic-31"/>
       <use xlink:href="#AppleGothic-30" x="67.999985"/>
      </g>
     </g>
    </g>
    <g id="xtick_11">
     <g id="line2d_11">
      <g>
       <use xlink:href="#m10d7043933" x="1148.85" y="672.84" style="stroke: #000000; stroke-width: 0.8"/>
      </g>
     </g>
     <g id="text_11">
      <!-- 11 -->
      <g transform="translate(1131.85 699.441563)scale(0.25 -0.25)">
       <use xlink:href="#AppleGothic-31"/>
       <use xlink:href="#AppleGothic-31" x="67.999985"/>
      </g>
     </g>
    </g>
    <g id="xtick_12">
     <g id="line2d_12">
      <g>
       <use xlink:href="#m10d7043933" x="1232.55" y="672.84" style="stroke: #000000; stroke-width: 0.8"/>
      </g>
     </g>
     <g id="text_12">
      <!-- 12 -->
      <g transform="translate(1215.55 699.441563)scale(0.25 -0.25)">
       <use xlink:href="#AppleGothic-31"/>
       <use xlink:href="#AppleGothic-32" x="67.999985"/>
      </g>
     </g>
    </g>
    <g id="xtick_13">
     <g id="line2d_13">
      <g>
       <use xlink:href="#m10d7043933" x="1316.25" y="672.84" style="stroke: #000000; stroke-width: 0.8"/>
      </g>
     </g>
     <g id="text_13">
      <!-- 13 -->
      <g transform="translate(1299.25 699.441563)scale(0.25 -0.25)">
       <use xlink:href="#AppleGothic-31"/>
       <use xlink:href="#AppleGothic-33" x="67.999985"/>
      </g>
     </g>
    </g>
    <g id="xtick_14">
     <g id="line2d_14">
      <g>
       <use xlink:href="#m10d7043933" x="1399.95" y="672.84" style="stroke: #000000; stroke-width: 0.8"/>
      </g>
     </g>
     <g id="text_14">
      <!-- 14 -->
      <g transform="translate(1382.95 699.441563)scale(0.25 -0.25)">
       <use xlink:href="#AppleGothic-31"/>
       <use xlink:href="#AppleGothic-34" x="67.999985"/>
      </g>
     </g>
    </g>
    <g id="xtick_15">
     <g id="line2d_15">
      <g>
       <use xlink:href="#m10d7043933" x="1483.65" y="672.84" style="stroke: #000000; stroke-width: 0.8"/>
      </g>
     </g>
     <g id="text_15">
      <!-- 15 -->
      <g transform="translate(1466.65 699.441563)scale(0.25 -0.25)">
       <use xlink:href="#AppleGothic-31"/>
       <use xlink:href="#AppleGothic-35" x="67.999985"/>
      </g>
     </g>
    </g>
    <g id="xtick_16">
     <g id="line2d_16">
      <g>
       <use xlink:href="#m10d7043933" x="1567.35" y="672.84" style="stroke: #000000; stroke-width: 0.8"/>
      </g>
     </g>
     <g id="text_16">
      <!-- 16 -->
      <g transform="translate(1550.35 699.441563)scale(0.25 -0.25)">
       <use xlink:href="#AppleGothic-31"/>
       <use xlink:href="#AppleGothic-36" x="67.999985"/>
      </g>
     </g>
    </g>
    <g id="xtick_17">
     <g id="line2d_17">
      <g>
       <use xlink:href="#m10d7043933" x="1651.05" y="672.84" style="stroke: #000000; stroke-width: 0.8"/>
      </g>
     </g>
     <g id="text_17">
      <!-- 17 -->
      <g transform="translate(1634.05 699.441563)scale(0.25 -0.25)">
       <use xlink:href="#AppleGothic-31"/>
       <use xlink:href="#AppleGothic-37" x="67.999985"/>
      </g>
     </g>
    </g>
    <g id="xtick_18">
     <g id="line2d_18">
      <g>
       <use xlink:href="#m10d7043933" x="1734.75" y="672.84" style="stroke: #000000; stroke-width: 0.8"/>
      </g>
     </g>
     <g id="text_18">
      <!-- 18 -->
      <g transform="translate(1717.75 699.441563)scale(0.25 -0.25)">
       <use xlink:href="#AppleGothic-31"/>
       <use xlink:href="#AppleGothic-38" x="67.999985"/>
      </g>
     </g>
    </g>
    <g id="xtick_19">
     <g id="line2d_19">
      <g>
       <use xlink:href="#m10d7043933" x="1818.45" y="672.84" style="stroke: #000000; stroke-width: 0.8"/>
      </g>
     </g>
     <g id="text_19">
      <!-- 19 -->
      <g transform="translate(1801.45 699.441563)scale(0.25 -0.25)">
       <use xlink:href="#AppleGothic-31"/>
       <use xlink:href="#AppleGothic-39" x="67.999985"/>
      </g>
     </g>
    </g>
    <g id="xtick_20">
     <g id="line2d_20">
      <g>
       <use xlink:href="#m10d7043933" x="1902.15" y="672.84" style="stroke: #000000; stroke-width: 0.8"/>
      </g>
     </g>
     <g id="text_20">
      <!-- 20 -->
      <g transform="translate(1885.15 699.441563)scale(0.25 -0.25)">
       <use xlink:href="#AppleGothic-32"/>
       <use xlink:href="#AppleGothic-30" x="67.999985"/>
      </g>
     </g>
    </g>
    <g id="text_21">
     <!-- 피험자 -->
     <g transform="translate(1062 731.264219)scale(0.3 -0.3)">
      <defs>
       <path id="AppleGothic-d53c" d="M 4563 1261 
Q 4429 1229 4304 1209 
Q 4179 1190 4070 1178 
Q 3379 1082 2579 1082 
L 896 966 
Q 870 966 828 956 
Q 787 947 745 937 
Q 704 928 672 921 
Q 640 915 627 915 
Q 531 915 486 1088 
Q 435 1274 435 1389 
L 806 1376 
L 1651 1440 
Q 1638 1555 1632 1657 
Q 1626 1760 1619 1843 
Q 1594 2016 1578 2153 
Q 1562 2291 1549 2394 
Q 1517 2624 1491 2809 
Q 1466 2995 1446 3142 
Q 1427 3277 1389 3443 
L 1786 3456 
Q 1920 3456 1920 3366 
Q 1920 3219 1933 3043 
Q 1946 2867 1971 2656 
Q 2022 2176 2051 1878 
Q 2080 1581 2080 1466 
Q 2176 1466 2285 1469 
Q 2394 1472 2490 1472 
Q 2605 1472 2720 1488 
Q 2835 1504 2944 1530 
Q 2970 1811 3021 2208 
Q 3059 2586 3081 2867 
Q 3104 3149 3104 3347 
L 3104 3482 
Q 3283 3482 3456 3462 
Q 3629 3443 3629 3373 
Q 3629 3347 3600 3289 
Q 3571 3232 3565 3194 
L 3462 2362 
L 3354 1555 
L 3904 1574 
Q 4070 1574 4320 1613 
Q 4365 1619 4413 1628 
Q 4461 1638 4531 1651 
L 4563 1261 
z
M 5459 5069 
Q 5459 5037 5436 4957 
Q 5414 4877 5414 4838 
Q 5408 4659 5401 4444 
Q 5395 4230 5392 3964 
Q 5389 3699 5389 3376 
Q 5389 3053 5389 2656 
L 5408 -576 
L 4909 -602 
Q 4915 -461 4915 -349 
Q 4915 -237 4922 -134 
Q 4960 1235 4960 2157 
Q 4960 2957 4957 3488 
Q 4954 4019 4947 4307 
Q 4941 4595 4937 4812 
Q 4934 5030 4922 5190 
Q 5018 5190 5114 5187 
Q 5210 5184 5286 5171 
Q 5363 5158 5411 5132 
Q 5459 5107 5459 5069 
z
M 4275 4077 
L 2541 4096 
Q 2195 4096 1920 4093 
Q 1645 4090 1440 4083 
Q 1235 4077 1004 4070 
Q 774 4064 506 4058 
L 506 4474 
Q 550 4474 1254 4454 
Q 1965 4435 2554 4435 
Q 2899 4435 3161 4438 
Q 3424 4442 3610 4448 
Q 3802 4454 3965 4460 
Q 4128 4467 4275 4480 
L 4275 4077 
z
" transform="scale(0.015625)"/>
       <path id="AppleGothic-d5d8" d="M 4941 0 
L 4941 1018 
Q 4883 1018 4755 1018 
Q 4627 1018 4435 1024 
Q 4243 1030 4099 1030 
Q 3955 1030 3859 1030 
L 2022 1011 
L 2022 -26 
L 3494 -26 
Q 3891 -26 4227 -16 
Q 4563 -6 4909 0 
L 4941 0 
z
M 3149 2605 
Q 3149 2963 2810 3098 
Q 2598 3194 2259 3194 
Q 1946 3194 1728 3104 
Q 1376 2970 1376 2611 
Q 1376 2330 1638 2176 
Q 1894 2016 2266 2016 
Q 2618 2016 2874 2163 
Q 3149 2317 3149 2605 
z
M 5402 -499 
L 4947 -518 
L 4941 -384 
Q 4646 -378 4281 -374 
Q 3917 -371 3514 -371 
L 2035 -378 
L 2029 -544 
L 1562 -563 
L 1581 410 
L 1562 1408 
L 3123 1395 
L 5376 1408 
L 5402 -499 
z
M 3571 2605 
Q 3571 2150 3241 1916 
Q 2912 1683 2259 1683 
Q 1619 1683 1276 1920 
Q 934 2157 934 2605 
Q 934 3181 1472 3398 
Q 1798 3533 2259 3533 
Q 2752 3533 3040 3411 
Q 3571 3200 3571 2605 
z
M 5408 5050 
Q 5408 5043 5401 5014 
Q 5395 4986 5382 4934 
Q 5357 4838 5357 4787 
L 5382 1568 
L 4934 1542 
L 4941 2138 
L 4941 2842 
L 3795 2829 
L 3795 3238 
L 4256 3226 
L 4941 3226 
L 4941 4179 
Q 4941 4589 4931 4816 
Q 4922 5043 4909 5190 
L 4960 5190 
Q 5139 5190 5273 5164 
Q 5408 5139 5408 5050 
z
M 3853 3808 
Q 3392 3814 2854 3827 
Q 2592 3834 2429 3837 
Q 2266 3840 2202 3840 
Q 1792 3840 1379 3833 
Q 966 3827 550 3808 
L 550 4192 
Q 883 4179 1276 4172 
Q 1670 4166 2029 4166 
L 3853 4192 
L 3853 3808 
z
M 3027 4576 
L 2176 4595 
L 1478 4576 
L 1478 4960 
L 2176 4941 
L 3027 4960 
L 3027 4576 
z
" transform="scale(0.015625)"/>
       <path id="AppleGothic-c790" d="M 6010 2067 
L 5139 2067 
L 5126 1037 
L 5139 -531 
L 4653 -531 
L 4672 4717 
Q 4672 4960 4665 5056 
Q 4659 5152 4646 5190 
L 4832 5197 
Q 4966 5197 5078 5174 
Q 5190 5152 5190 5101 
Q 5190 5075 5164 4998 
Q 5139 4922 5139 4883 
L 5126 3968 
L 5139 2470 
L 6010 2483 
L 6010 2067 
z
M 4218 1158 
Q 4211 1120 4195 1107 
Q 4179 1094 4144 1072 
Q 4109 1050 4057 1008 
Q 4006 966 3930 883 
Q 3923 870 3885 832 
Q 3814 877 3760 909 
Q 3706 941 3661 973 
Q 3392 1158 3174 1369 
Q 2957 1581 2790 1818 
Q 2720 1914 2643 2045 
Q 2566 2176 2477 2349 
Q 2445 2406 2406 2486 
Q 2368 2566 2317 2662 
Q 2285 2592 2259 2534 
Q 2234 2477 2208 2426 
Q 2061 2157 1901 1926 
Q 1741 1696 1568 1510 
Q 1446 1382 1289 1235 
Q 1133 1088 928 922 
Q 858 864 736 768 
Q 685 819 666 832 
Q 582 915 531 934 
Q 326 1011 326 1050 
Q 326 1056 358 1088 
Q 371 1101 387 1110 
Q 403 1120 416 1133 
Q 538 1222 627 1292 
Q 717 1363 787 1414 
Q 1197 1741 1402 2003 
Q 1766 2458 1942 2922 
Q 2118 3386 2118 3936 
L 2106 4218 
L 1568 4224 
L 646 4198 
L 646 4640 
Q 960 4627 1347 4620 
Q 1734 4614 2144 4614 
L 2330 4614 
Q 2803 4614 3212 4627 
Q 3622 4640 4000 4659 
L 4000 4230 
L 3296 4237 
L 2592 4218 
Q 2579 4122 2576 4042 
Q 2573 3962 2566 3898 
Q 2554 3712 2547 3561 
Q 2541 3411 2541 3296 
Q 2592 2995 2778 2656 
Q 2861 2502 2969 2342 
Q 3078 2182 3213 2003 
Q 3334 1850 3472 1715 
Q 3610 1581 3757 1466 
Q 3808 1434 3872 1389 
Q 3936 1344 4019 1293 
Q 4026 1286 4128 1235 
Q 4218 1184 4218 1158 
z
" transform="scale(0.015625)"/>
      </defs>
      <use xlink:href="#AppleGothic-d53c"/>
      <use xlink:href="#AppleGothic-d5d8" x="99.999985"/>
      <use xlink:href="#AppleGothic-c790" x="199.999969"/>
     </g>
    </g>
   </g>
   <g id="matplotlib.axis_2">
    <g id="ytick_1">
     <g id="line2d_21">
      <path d="M 270 621.447138 
L 1944 621.447138 
" clip-path="url(#p14920c8b0e)" style="fill: none; stroke: #b0b0b0; stroke-width: 0.8; stroke-linecap: square"/>
     </g>
     <g id="line2d_22">
      <defs>
       <path id="m0b1d4d35aa" d="M 0 0 
L -3.5 0 
" style="stroke: #000000; stroke-width: 0.8"/>
      </defs>
      <g>
       <use xlink:href="#m0b1d4d35aa" x="270" y="621.447138" style="stroke: #000000; stroke-width: 0.8"/>
      </g>
     </g>
     <g id="text_22">
      <!-- 40 -->
      <g transform="translate(229 631.247919)scale(0.25 -0.25)">
       <use xlink:href="#AppleGothic-34"/>
       <use xlink:href="#AppleGothic-30" x="67.999985"/>
      </g>
     </g>
    </g>
    <g id="ytick_2">
     <g id="line2d_23">
      <path d="M 270 496.782827 
L 1944 496.782827 
" clip-path="url(#p14920c8b0e)" style="fill: none; stroke: #b0b0b0; stroke-width: 0.8; stroke-linecap: square"/>
     </g>
     <g id="line2d_24">
      <g>
       <use xlink:href="#m0b1d4d35aa" x="270" y="496.782827" style="stroke: #000000; stroke-width: 0.8"/>
      </g>
     </g>
     <g id="text_23">
      <!-- 60 -->
      <g transform="translate(229 506.583608)scale(0.25 -0.25)">
       <use xlink:href="#AppleGothic-36"/>
       <use xlink:href="#AppleGothic-30" x="67.999985"/>
      </g>
     </g>
    </g>
    <g id="ytick_3">
     <g id="line2d_25">
      <path d="M 270 372.118516 
L 1944 372.118516 
" clip-path="url(#p14920c8b0e)" style="fill: none; stroke: #b0b0b0; stroke-width: 0.8; stroke-linecap: square"/>
     </g>
     <g id="line2d_26">
      <g>
       <use xlink:href="#m0b1d4d35aa" x="270" y="372.118516" style="stroke: #000000; stroke-width: 0.8"/>
      </g>
     </g>
     <g id="text_24">
      <!-- 80 -->
      <g transform="translate(229 381.919297)scale(0.25 -0.25)">
       <use xlink:href="#AppleGothic-38"/>
       <use xlink:href="#AppleGothic-30" x="67.999985"/>
      </g>
     </g>
    </g>
    <g id="ytick_4">
     <g id="line2d_27">
      <path d="M 270 247.454205 
L 1944 247.454205 
" clip-path="url(#p14920c8b0e)" style="fill: none; stroke: #b0b0b0; stroke-width: 0.8; stroke-linecap: square"/>
     </g>
     <g id="line2d_28">
      <g>
       <use xlink:href="#m0b1d4d35aa" x="270" y="247.454205" style="stroke: #000000; stroke-width: 0.8"/>
      </g>
     </g>
     <g id="text_25">
      <!-- 100 -->
      <g transform="translate(212 257.254986)scale(0.25 -0.25)">
       <use xlink:href="#AppleGothic-31"/>
       <use xlink:href="#AppleGothic-30" x="67.999985"/>
       <use xlink:href="#AppleGothic-30" x="135.999969"/>
      </g>
     </g>
    </g>
    <g id="ytick_5">
     <g id="line2d_29">
      <path d="M 270 122.789894 
L 1944 122.789894 
" clip-path="url(#p14920c8b0e)" style="fill: none; stroke: #b0b0b0; stroke-width: 0.8; stroke-linecap: square"/>
     </g>
     <g id="line2d_30">
      <g>
       <use xlink:href="#m0b1d4d35aa" x="270" y="122.789894" style="stroke: #000000; stroke-width: 0.8"/>
      </g>
     </g>
     <g id="text_26">
      <!-- 120 -->
      <g transform="translate(212 132.590675)scale(0.25 -0.25)">
       <use xlink:href="#AppleGothic-31"/>
       <use xlink:href="#AppleGothic-32" x="67.999985"/>
       <use xlink:href="#AppleGothic-30" x="135.999969"/>
      </g>
     </g>
    </g>
    <g id="text_27">
     <!-- 설문 응답 시간(초) -->
     <g transform="translate(202.839062 511.38)rotate(-90)scale(0.3 -0.3)">
      <defs>
       <path id="AppleGothic-c124" d="M 5440 -352 
L 3334 -339 
L 1568 -358 
L 1587 256 
L 1568 934 
L 4883 928 
L 4883 1434 
L 3322 1446 
L 1536 1427 
L 1536 1798 
Q 1734 1792 1977 1785 
Q 2221 1779 2515 1773 
Q 2803 1766 3004 1766 
Q 3206 1766 3322 1766 
L 5357 1779 
L 5338 1139 
L 5357 557 
L 3373 570 
L 2022 563 
L 2022 26 
L 3392 13 
Q 3846 13 4380 25 
Q 4915 38 5440 58 
L 5440 -352 
z
M 3866 2554 
Q 3859 2547 3859 2541 
Q 3827 2502 3776 2467 
Q 3725 2432 3635 2336 
Q 3622 2323 3603 2294 
Q 3584 2266 3552 2234 
Q 3456 2285 3382 2329 
Q 3309 2374 3258 2419 
Q 2931 2650 2714 2925 
Q 2624 3034 2544 3171 
Q 2464 3309 2387 3469 
Q 2362 3520 2333 3584 
Q 2304 3648 2272 3738 
Q 2182 3533 2019 3273 
Q 1856 3014 1626 2752 
Q 1466 2579 1312 2435 
Q 1158 2291 1011 2182 
Q 960 2150 899 2108 
Q 838 2067 768 2022 
Q 710 2061 665 2093 
Q 621 2125 576 2157 
Q 403 2278 403 2298 
Q 435 2310 457 2329 
Q 480 2349 499 2362 
Q 570 2400 624 2435 
Q 678 2470 717 2502 
Q 1235 2867 1587 3354 
Q 1914 3808 2035 4403 
Q 2054 4499 2073 4624 
Q 2093 4749 2106 4909 
Q 2259 4909 2432 4890 
Q 2598 4870 2598 4806 
Q 2598 4774 2569 4720 
Q 2541 4666 2541 4653 
Q 2534 4608 2531 4515 
Q 2528 4422 2528 4333 
Q 2573 4045 2678 3792 
Q 2784 3539 2950 3322 
Q 3187 3002 3507 2790 
Q 3731 2630 3789 2630 
L 3866 2554 
z
M 5434 5075 
Q 5434 5050 5418 4989 
Q 5402 4928 5402 4909 
Q 5395 4787 5388 4444 
Q 5382 4102 5382 3622 
L 5382 2701 
Q 5389 2573 5392 2457 
Q 5395 2342 5402 2234 
Q 5402 2131 5341 2108 
Q 5280 2086 5114 2086 
Q 4909 2086 4909 2170 
L 4928 2797 
L 4922 3411 
L 3706 3392 
L 3706 3834 
L 4806 3802 
Q 4883 3802 4915 3834 
Q 4934 3859 4934 3974 
L 4915 5190 
L 5037 5190 
Q 5203 5190 5318 5168 
Q 5434 5146 5434 5075 
z
" transform="scale(0.015625)"/>
       <path id="AppleGothic-bb38" d="M 4621 3443 
L 4621 4518 
L 3462 4531 
L 1741 4518 
L 1741 3443 
L 3213 3430 
L 4621 3443 
z
M 5376 -384 
Q 5248 -378 5053 -378 
Q 4858 -378 4589 -371 
Q 4320 -365 4089 -365 
Q 3859 -365 3667 -365 
L 1331 -384 
L 1344 269 
L 1312 1126 
L 1485 1133 
Q 1651 1133 1760 1110 
Q 1869 1088 1869 1024 
Q 1869 1005 1859 973 
Q 1850 941 1840 905 
Q 1830 870 1820 841 
Q 1811 813 1811 806 
L 1779 448 
L 1779 0 
L 3245 -6 
Q 3469 -6 3798 3 
Q 4128 13 4576 26 
Q 4723 32 4921 38 
Q 5120 45 5376 58 
L 5376 -384 
z
M 6010 1984 
Q 5901 1990 5811 1993 
Q 5722 1997 5651 1997 
Q 5344 2003 5104 2006 
Q 4864 2010 4678 2010 
L 3507 2010 
L 3514 525 
L 3027 512 
L 3040 2003 
L 1779 2003 
Q 1581 2003 1350 1996 
Q 1120 1990 851 1978 
Q 762 1971 650 1964 
Q 538 1958 397 1946 
L 397 2368 
Q 666 2362 1466 2349 
Q 1875 2342 2310 2342 
Q 2746 2342 3213 2342 
Q 4083 2342 4761 2358 
Q 5440 2374 6010 2400 
L 6010 1984 
z
M 5088 3085 
L 3226 3098 
L 1299 3078 
L 1318 3885 
L 1299 4902 
Q 1651 4890 2089 4883 
Q 2528 4877 2989 4877 
L 3200 4877 
Q 3616 4877 4102 4883 
Q 4589 4890 5088 4909 
L 5069 4026 
L 5088 3085 
z
" transform="scale(0.015625)"/>
       <path id="AppleGothic-20" transform="scale(0.015625)"/>
       <path id="AppleGothic-c751" d="M 4838 422 
Q 4838 826 4346 960 
Q 4013 1062 3200 1062 
Q 2445 1062 2074 941 
Q 1581 787 1581 429 
Q 1581 109 2035 -58 
Q 2438 -192 3194 -192 
Q 4013 -192 4425 -29 
Q 4838 134 4838 422 
z
M 4768 3923 
Q 4768 4314 4320 4467 
Q 3949 4595 3187 4595 
Q 2483 4595 2080 4461 
Q 1562 4294 1562 3917 
Q 1562 3552 2061 3386 
Q 2477 3258 3194 3258 
Q 4019 3258 4393 3421 
Q 4768 3584 4768 3923 
z
M 5306 435 
Q 5306 -122 4602 -384 
Q 4058 -570 3194 -570 
Q 2310 -570 1766 -365 
Q 1114 -109 1114 429 
Q 1114 986 1779 1229 
Q 2298 1421 3206 1421 
Q 4179 1421 4666 1235 
Q 5306 1005 5306 435 
z
M 6010 1978 
L 3232 1984 
Q 2995 1984 2764 1984 
Q 2534 1984 2304 1978 
Q 2080 1971 1725 1964 
Q 1370 1958 890 1946 
Q 762 1939 640 1939 
Q 518 1939 397 1933 
L 397 2336 
Q 493 2330 627 2330 
Q 762 2330 934 2323 
Q 1293 2323 1817 2320 
Q 2342 2317 2912 2310 
L 3226 2310 
Q 3603 2310 4051 2320 
Q 4499 2330 5024 2342 
Q 5402 2355 6010 2381 
L 6010 1978 
z
M 5242 3923 
Q 5242 3360 4550 3085 
Q 4006 2880 3162 2880 
Q 2266 2880 1741 3110 
Q 1126 3386 1126 3923 
Q 1126 4493 1747 4742 
Q 2010 4851 2365 4902 
Q 2720 4954 3187 4954 
Q 3680 4954 4048 4899 
Q 4416 4845 4672 4723 
Q 5242 4474 5242 3923 
z
" transform="scale(0.015625)"/>
       <path id="AppleGothic-b2f5" d="M 4685 64 
L 4685 794 
L 3232 800 
Q 2790 800 2470 793 
Q 2150 787 1843 768 
L 1843 51 
L 2893 38 
L 4685 64 
z
M 5203 1709 
Q 5203 1702 5174 1616 
Q 5146 1530 5146 1421 
L 5139 666 
Q 5139 358 5145 57 
Q 5152 -243 5165 -486 
L 4698 -506 
L 4678 -339 
L 3142 -320 
Q 2829 -320 2489 -326 
Q 2150 -333 1862 -346 
L 1837 -493 
L 1376 -506 
L 1389 1363 
Q 1382 1414 1382 1465 
Q 1382 1517 1376 1587 
L 1376 1734 
L 1414 1734 
Q 1658 1734 1770 1715 
Q 1882 1696 1882 1651 
Q 1882 1632 1862 1568 
Q 1843 1504 1843 1453 
L 1843 1152 
L 4685 1184 
L 4678 1792 
Q 4858 1792 5030 1773 
Q 5203 1754 5203 1709 
z
M 4134 2400 
Q 3981 2368 3798 2345 
Q 3616 2323 3392 2298 
Q 3168 2272 2969 2265 
Q 2771 2259 2586 2259 
Q 2438 2259 2240 2252 
Q 2042 2246 1779 2234 
Q 1523 2221 1350 2214 
Q 1178 2208 1094 2208 
L 646 2214 
L 659 3405 
L 646 4659 
L 3603 4666 
L 3603 4243 
L 2298 4256 
L 1126 4250 
L 1114 3398 
L 1120 2611 
L 1664 2605 
L 1766 2605 
L 1862 2605 
L 1952 2605 
L 2022 2605 
Q 2157 2605 2297 2611 
Q 2438 2618 2547 2637 
Q 2771 2662 3001 2684 
Q 3232 2707 3475 2739 
Q 3802 2778 3962 2794 
Q 4122 2810 4128 2810 
L 4134 2400 
z
M 6080 2886 
L 5120 2886 
L 5126 2035 
L 4659 2010 
L 4666 2240 
L 4666 2669 
Q 4672 2822 4675 2944 
Q 4678 3066 4678 3142 
L 4666 5178 
L 4730 5178 
Q 4934 5178 5062 5155 
Q 5190 5133 5190 5056 
Q 5190 5030 5164 4950 
Q 5139 4870 5139 4826 
L 5120 4083 
L 5120 3290 
L 6080 3290 
L 6080 2886 
z
" transform="scale(0.015625)"/>
       <path id="AppleGothic-c2dc" d="M 5459 5062 
Q 5459 5043 5440 4969 
Q 5421 4896 5421 4826 
L 5402 2349 
L 5414 -531 
L 4909 -557 
Q 4915 -410 4915 -278 
Q 4915 -147 4922 -19 
Q 4928 218 4941 1190 
Q 4960 2150 4960 2253 
Q 4960 3923 4941 4416 
Q 4934 4915 4922 5190 
Q 5146 5190 5302 5158 
Q 5459 5126 5459 5062 
z
M 4250 1478 
Q 4250 1459 4224 1434 
Q 4211 1421 4179 1395 
Q 4147 1370 4109 1338 
L 3917 1178 
Q 3866 1210 3821 1242 
Q 3776 1274 3738 1306 
Q 3290 1658 2899 2227 
Q 2707 2496 2534 2918 
Q 2515 2976 2483 3072 
Q 2451 3168 2400 3309 
Q 2221 2688 1754 2054 
Q 1267 1389 710 1114 
Q 698 1120 653 1155 
Q 608 1190 518 1254 
Q 486 1280 444 1312 
Q 403 1344 346 1395 
Q 346 1421 371 1427 
Q 397 1440 406 1449 
Q 416 1459 422 1466 
Q 467 1466 710 1645 
Q 896 1773 1056 1920 
Q 1216 2067 1350 2234 
Q 1549 2464 1696 2729 
Q 1843 2995 1952 3296 
Q 2061 3610 2125 4000 
Q 2157 4205 2173 4381 
Q 2189 4557 2189 4717 
Q 2323 4717 2534 4678 
Q 2752 4653 2752 4576 
Q 2752 4544 2710 4470 
Q 2669 4397 2669 4378 
L 2630 4032 
Q 2656 3923 2681 3814 
Q 2707 3706 2739 3597 
Q 2790 3430 2857 3248 
Q 2925 3066 3021 2867 
Q 3264 2349 3757 1894 
Q 3840 1818 3949 1728 
Q 4058 1638 4198 1530 
L 4237 1491 
L 4250 1478 
z
" transform="scale(0.015625)"/>
       <path id="AppleGothic-ac04" d="M 5363 -422 
L 4947 -422 
Q 4819 -422 4630 -425 
Q 4442 -429 4179 -435 
Q 3667 -454 3597 -454 
L 2221 -448 
Q 1875 -448 1641 -451 
Q 1408 -454 1235 -461 
Q 1222 -410 1222 -282 
L 1222 -173 
L 1229 1203 
L 1581 1190 
L 1651 1197 
Q 1702 1197 1702 1158 
L 1677 1075 
Q 1677 1050 1670 1030 
Q 1645 954 1645 896 
L 1670 -90 
L 2086 -77 
L 3302 -83 
Q 3821 -83 4333 -73 
Q 4845 -64 5363 -58 
L 5363 -422 
z
M 6093 2362 
L 5094 2362 
L 5075 710 
L 4666 717 
L 4666 1824 
Q 4672 2266 4675 2614 
Q 4678 2963 4678 3232 
L 4672 4800 
Q 4672 4922 4672 4992 
Q 4672 5062 4672 5100 
Q 4672 5139 4669 5158 
Q 4666 5178 4659 5197 
Q 4864 5197 4985 5174 
Q 5107 5152 5107 5114 
L 5088 4806 
L 5088 2726 
L 6093 2726 
L 6093 2362 
z
M 3258 4634 
Q 3258 4192 3123 3763 
Q 2893 2989 2291 2413 
Q 1843 1978 1242 1664 
Q 787 1427 659 1427 
Q 595 1472 547 1510 
Q 499 1549 461 1581 
Q 314 1709 314 1747 
L 320 1766 
L 339 1754 
Q 518 1754 966 1958 
Q 1267 2093 1526 2272 
Q 1786 2451 2010 2675 
Q 2342 3008 2547 3424 
Q 2624 3578 2678 3728 
Q 2733 3878 2765 4026 
Q 2771 4090 2777 4144 
Q 2784 4198 2797 4262 
L 538 4250 
L 538 4634 
L 1818 4614 
L 3258 4634 
z
" transform="scale(0.015625)"/>
       <path id="AppleGothic-28" d="M 2227 5261 
L 2650 5261 
Q 2342 4768 2169 4473 
Q 1997 4179 1958 4083 
Q 1606 3283 1606 2272 
Q 1606 1587 1754 1018 
Q 1882 570 2138 102 
Q 2150 70 2275 -131 
Q 2400 -333 2630 -717 
L 2227 -717 
Q 2099 -531 1980 -355 
Q 1862 -179 1734 0 
Q 1581 243 1469 483 
Q 1357 723 1274 954 
Q 1069 1587 1069 2272 
Q 1069 2963 1261 3558 
Q 1338 3789 1450 4022 
Q 1562 4256 1715 4499 
Q 1843 4691 1971 4880 
Q 2099 5069 2227 5261 
z
" transform="scale(0.015625)"/>
       <path id="AppleGothic-cd08" d="M 6029 326 
Q 5920 333 5827 333 
Q 5734 333 5645 333 
Q 4986 346 4368 355 
Q 3750 365 3162 365 
Q 2682 365 2198 358 
Q 1715 352 1235 339 
Q 1062 333 848 326 
Q 634 320 378 307 
L 378 742 
Q 544 736 729 729 
Q 915 723 1097 720 
Q 1280 717 1449 717 
Q 1619 717 1754 717 
L 2925 723 
L 2938 1306 
L 2925 2061 
L 3066 2061 
Q 3258 2061 3360 2045 
Q 3462 2029 3462 1958 
Q 3462 1920 3427 1840 
Q 3392 1760 3392 1741 
L 3379 1254 
L 3392 723 
L 4704 723 
L 6029 755 
L 6029 326 
z
M 5498 2400 
Q 5485 2374 5485 2374 
Q 5472 2362 5469 2349 
Q 5466 2336 5453 2323 
Q 5408 2285 5318 2157 
Q 5306 2131 5283 2102 
Q 5261 2074 5229 2029 
Q 5107 2048 4992 2067 
Q 4704 2131 4432 2240 
Q 4160 2349 3910 2515 
Q 3558 2733 3347 2970 
Q 3315 3014 3273 3062 
Q 3232 3110 3187 3181 
Q 3149 3091 3110 3053 
Q 2899 2726 2419 2426 
Q 2253 2310 2045 2220 
Q 1837 2131 1587 2061 
Q 1504 2035 1405 2016 
Q 1306 1997 1178 1971 
Q 1146 2003 1120 2028 
Q 1094 2054 1075 2074 
Q 960 2195 922 2227 
Q 851 2272 826 2304 
Q 819 2310 819 2313 
Q 819 2317 813 2323 
Q 813 2330 838 2336 
Q 864 2342 886 2342 
Q 909 2342 934 2349 
Q 1101 2381 1232 2409 
Q 1363 2438 1466 2470 
Q 2042 2630 2381 2899 
Q 2630 3098 2784 3341 
Q 2867 3501 2925 3725 
L 1024 3706 
L 1024 4109 
Q 1171 4102 1388 4096 
Q 1606 4090 1894 4083 
Q 2182 4077 2489 4077 
Q 2797 4077 3130 4077 
Q 3597 4077 3945 4080 
Q 4294 4083 4531 4090 
Q 4774 4096 4963 4102 
Q 5152 4109 5299 4115 
L 5299 3706 
L 3398 3725 
L 3571 3366 
Q 3744 3142 4070 2918 
Q 4397 2694 4890 2554 
Q 4966 2534 5065 2515 
Q 5165 2496 5293 2470 
Q 5395 2458 5446 2448 
Q 5498 2438 5498 2400 
z
M 3910 4678 
L 3136 4698 
L 2323 4678 
L 2323 5050 
L 3117 5037 
L 3910 5050 
L 3910 4678 
z
" transform="scale(0.015625)"/>
       <path id="AppleGothic-29" d="M 2221 2272 
Q 2221 1587 2016 960 
Q 1862 499 1555 6 
Q 1427 -179 1305 -355 
Q 1184 -531 1062 -717 
L 659 -717 
Q 781 -512 902 -310 
Q 1024 -109 1152 96 
Q 1280 333 1376 557 
Q 1472 781 1530 1005 
Q 1683 1562 1683 2272 
Q 1683 2650 1641 2973 
Q 1600 3296 1517 3584 
Q 1459 3802 1356 4029 
Q 1254 4256 1120 4499 
Q 992 4691 873 4880 
Q 755 5069 640 5261 
L 1062 5261 
Q 1190 5069 1315 4880 
Q 1440 4691 1568 4506 
Q 1722 4256 1837 4022 
Q 1952 3789 2022 3565 
Q 2221 2976 2221 2272 
z
" transform="scale(0.015625)"/>
      </defs>
      <use xlink:href="#AppleGothic-c124"/>
      <use xlink:href="#AppleGothic-bb38" x="99.999985"/>
      <use xlink:href="#AppleGothic-20" x="199.999969"/>
      <use xlink:href="#AppleGothic-c751" x="231.999954"/>
      <use xlink:href="#AppleGothic-b2f5" x="331.999939"/>
      <use xlink:href="#AppleGothic-20" x="431.999924"/>
      <use xlink:href="#AppleGothic-c2dc" x="463.999908"/>
      <use xlink:href="#AppleGothic-ac04" x="563.999893"/>
      <use xlink:href="#AppleGothic-28" x="663.999878"/>
      <use xlink:href="#AppleGothic-cd08" x="713.999863"/>
      <use xlink:href="#AppleGothic-29" x="813.999847"/>
     </g>
    </g>
   </g>
   <g id="patch_3">
    <path d="M 290.925 576.723816 
L 332.775 576.723816 
L 332.775 501.769399 
L 290.925 501.769399 
L 290.925 576.723816 
z
" clip-path="url(#p14920c8b0e)" style="fill: #add8e6; stroke: #000000; stroke-linejoin: miter"/>
   </g>
   <g id="line2d_31">
    <path d="M 311.85 576.723816 
L 311.85 635.783534 
" clip-path="url(#p14920c8b0e)" style="fill: none; stroke: #000000; stroke-linecap: square"/>
   </g>
   <g id="line2d_32">
    <path d="M 311.85 501.769399 
L 311.85 402.661272 
" clip-path="url(#p14920c8b0e)" style="fill: none; stroke: #000000; stroke-linecap: square"/>
   </g>
   <g id="line2d_33">
    <path d="M 301.3875 635.783534 
L 322.3125 635.783534 
" clip-path="url(#p14920c8b0e)" style="fill: none; stroke: #000000; stroke-linecap: square"/>
   </g>
   <g id="line2d_34">
    <path d="M 301.3875 402.661272 
L 322.3125 402.661272 
" clip-path="url(#p14920c8b0e)" style="fill: none; stroke: #000000; stroke-linecap: square"/>
   </g>
   <g id="patch_4">
    <path d="M 374.625 601.345018 
L 416.475 601.345018 
L 416.475 500.366926 
L 374.625 500.366926 
L 374.625 601.345018 
z
" clip-path="url(#p14920c8b0e)" style="fill: #add8e6; stroke: #000000; stroke-linejoin: miter"/>
   </g>
   <g id="line2d_35">
    <path d="M 395.55 601.345018 
L 395.55 645.133357 
" clip-path="url(#p14920c8b0e)" style="fill: none; stroke: #000000; stroke-linecap: square"/>
   </g>
   <g id="line2d_36">
    <path d="M 395.55 500.366926 
L 395.55 402.661272 
" clip-path="url(#p14920c8b0e)" style="fill: none; stroke: #000000; stroke-linecap: square"/>
   </g>
   <g id="line2d_37">
    <path d="M 385.0875 645.133357 
L 406.0125 645.133357 
" clip-path="url(#p14920c8b0e)" style="fill: none; stroke: #000000; stroke-linecap: square"/>
   </g>
   <g id="line2d_38">
    <path d="M 385.0875 402.661272 
L 406.0125 402.661272 
" clip-path="url(#p14920c8b0e)" style="fill: none; stroke: #000000; stroke-linecap: square"/>
   </g>
   <g id="patch_5">
    <path d="M 458.325 587.943604 
L 500.175 587.943604 
L 500.175 520.936537 
L 458.325 520.936537 
L 458.325 587.943604 
z
" clip-path="url(#p14920c8b0e)" style="fill: #add8e6; stroke: #000000; stroke-linejoin: miter"/>
   </g>
   <g id="line2d_39">
    <path d="M 479.25 587.943604 
L 479.25 623.317102 
" clip-path="url(#p14920c8b0e)" style="fill: none; stroke: #000000; stroke-linecap: square"/>
   </g>
   <g id="line2d_40">
    <path d="M 479.25 520.936537 
L 479.25 442.553852 
" clip-path="url(#p14920c8b0e)" style="fill: none; stroke: #000000; stroke-linecap: square"/>
   </g>
   <g id="line2d_41">
    <path d="M 468.7875 623.317102 
L 489.7125 623.317102 
" clip-path="url(#p14920c8b0e)" style="fill: none; stroke: #000000; stroke-linecap: square"/>
   </g>
   <g id="line2d_42">
    <path d="M 468.7875 442.553852 
L 489.7125 442.553852 
" clip-path="url(#p14920c8b0e)" style="fill: none; stroke: #000000; stroke-linecap: square"/>
   </g>
   <g id="patch_6">
    <path d="M 542.025 622.693781 
L 583.875 622.693781 
L 583.875 566.594841 
L 542.025 566.594841 
L 542.025 622.693781 
z
" clip-path="url(#p14920c8b0e)" style="fill: #add8e6; stroke: #000000; stroke-linejoin: miter"/>
   </g>
   <g id="line2d_43">
    <path d="M 562.95 622.693781 
L 562.95 645.756678 
" clip-path="url(#p14920c8b0e)" style="fill: none; stroke: #000000; stroke-linecap: square"/>
   </g>
   <g id="line2d_44">
    <path d="M 562.95 566.594841 
L 562.95 489.302968 
" clip-path="url(#p14920c8b0e)" style="fill: none; stroke: #000000; stroke-linecap: square"/>
   </g>
   <g id="line2d_45">
    <path d="M 552.4875 645.756678 
L 573.4125 645.756678 
" clip-path="url(#p14920c8b0e)" style="fill: none; stroke: #000000; stroke-linecap: square"/>
   </g>
   <g id="line2d_46">
    <path d="M 552.4875 489.302968 
L 573.4125 489.302968 
" clip-path="url(#p14920c8b0e)" style="fill: none; stroke: #000000; stroke-linecap: square"/>
   </g>
   <g id="patch_7">
    <path d="M 625.725 616.772226 
L 667.575 616.772226 
L 667.575 561.919929 
L 625.725 561.919929 
L 625.725 616.772226 
z
" clip-path="url(#p14920c8b0e)" style="fill: #add8e6; stroke: #000000; stroke-linejoin: miter"/>
   </g>
   <g id="line2d_47">
    <path d="M 646.65 616.772226 
L 646.65 646.38 
" clip-path="url(#p14920c8b0e)" style="fill: none; stroke: #000000; stroke-linecap: square"/>
   </g>
   <g id="line2d_48">
    <path d="M 646.65 561.919929 
L 646.65 481.82311 
" clip-path="url(#p14920c8b0e)" style="fill: none; stroke: #000000; stroke-linecap: square"/>
   </g>
   <g id="line2d_49">
    <path d="M 636.1875 646.38 
L 657.1125 646.38 
" clip-path="url(#p14920c8b0e)" style="fill: none; stroke: #000000; stroke-linecap: square"/>
   </g>
   <g id="line2d_50">
    <path d="M 636.1875 481.82311 
L 657.1125 481.82311 
" clip-path="url(#p14920c8b0e)" style="fill: none; stroke: #000000; stroke-linecap: square"/>
   </g>
   <g id="patch_8">
    <path d="M 709.425 592.151025 
L 751.275 592.151025 
L 751.275 511.119223 
L 709.425 511.119223 
L 709.425 592.151025 
z
" clip-path="url(#p14920c8b0e)" style="fill: #add8e6; stroke: #000000; stroke-linejoin: miter"/>
   </g>
   <g id="line2d_51">
    <path d="M 730.35 592.151025 
L 730.35 637.030177 
" clip-path="url(#p14920c8b0e)" style="fill: none; stroke: #000000; stroke-linecap: square"/>
   </g>
   <g id="line2d_52">
    <path d="M 730.35 511.119223 
L 730.35 390.818163 
" clip-path="url(#p14920c8b0e)" style="fill: none; stroke: #000000; stroke-linecap: square"/>
   </g>
   <g id="line2d_53">
    <path d="M 719.8875 637.030177 
L 740.8125 637.030177 
" clip-path="url(#p14920c8b0e)" style="fill: none; stroke: #000000; stroke-linecap: square"/>
   </g>
   <g id="line2d_54">
    <path d="M 719.8875 390.818163 
L 740.8125 390.818163 
" clip-path="url(#p14920c8b0e)" style="fill: none; stroke: #000000; stroke-linecap: square"/>
   </g>
   <g id="patch_9">
    <path d="M 793.125 606.799081 
L 834.975 606.799081 
L 834.975 497.406148 
L 793.125 497.406148 
L 793.125 606.799081 
z
" clip-path="url(#p14920c8b0e)" style="fill: #add8e6; stroke: #000000; stroke-linejoin: miter"/>
   </g>
   <g id="line2d_55">
    <path d="M 814.05 606.799081 
L 814.05 638.900141 
" clip-path="url(#p14920c8b0e)" style="fill: none; stroke: #000000; stroke-linecap: square"/>
   </g>
   <g id="line2d_56">
    <path d="M 814.05 497.406148 
L 814.05 334.719223 
" clip-path="url(#p14920c8b0e)" style="fill: none; stroke: #000000; stroke-linecap: square"/>
   </g>
   <g id="line2d_57">
    <path d="M 803.5875 638.900141 
L 824.5125 638.900141 
" clip-path="url(#p14920c8b0e)" style="fill: none; stroke: #000000; stroke-linecap: square"/>
   </g>
   <g id="line2d_58">
    <path d="M 803.5875 334.719223 
L 824.5125 334.719223 
" clip-path="url(#p14920c8b0e)" style="fill: none; stroke: #000000; stroke-linecap: square"/>
   </g>
   <g id="patch_10">
    <path d="M 876.825 605.084947 
L 918.675 605.084947 
L 918.675 552.881767 
L 876.825 552.881767 
L 876.825 605.084947 
z
" clip-path="url(#p14920c8b0e)" style="fill: #add8e6; stroke: #000000; stroke-linejoin: miter"/>
   </g>
   <g id="line2d_59">
    <path d="M 897.75 605.084947 
L 897.75 632.666926 
" clip-path="url(#p14920c8b0e)" style="fill: none; stroke: #000000; stroke-linecap: square"/>
   </g>
   <g id="line2d_60">
    <path d="M 897.75 552.881767 
L 897.75 483.069753 
" clip-path="url(#p14920c8b0e)" style="fill: none; stroke: #000000; stroke-linecap: square"/>
   </g>
   <g id="line2d_61">
    <path d="M 887.2875 632.666926 
L 908.2125 632.666926 
" clip-path="url(#p14920c8b0e)" style="fill: none; stroke: #000000; stroke-linecap: square"/>
   </g>
   <g id="line2d_62">
    <path d="M 887.2875 483.069753 
L 908.2125 483.069753 
" clip-path="url(#p14920c8b0e)" style="fill: none; stroke: #000000; stroke-linecap: square"/>
   </g>
   <g id="patch_11">
    <path d="M 960.525 596.514276 
L 1002.375 596.514276 
L 1002.375 522.962332 
L 960.525 522.962332 
L 960.525 596.514276 
z
" clip-path="url(#p14920c8b0e)" style="fill: #add8e6; stroke: #000000; stroke-linejoin: miter"/>
   </g>
   <g id="line2d_63">
    <path d="M 981.45 596.514276 
L 981.45 636.406855 
" clip-path="url(#p14920c8b0e)" style="fill: none; stroke: #000000; stroke-linecap: square"/>
   </g>
   <g id="line2d_64">
    <path d="M 981.45 522.962332 
L 981.45 441.307208 
" clip-path="url(#p14920c8b0e)" style="fill: none; stroke: #000000; stroke-linecap: square"/>
   </g>
   <g id="line2d_65">
    <path d="M 970.9875 636.406855 
L 991.9125 636.406855 
" clip-path="url(#p14920c8b0e)" style="fill: none; stroke: #000000; stroke-linecap: square"/>
   </g>
   <g id="line2d_66">
    <path d="M 970.9875 441.307208 
L 991.9125 441.307208 
" clip-path="url(#p14920c8b0e)" style="fill: none; stroke: #000000; stroke-linecap: square"/>
   </g>
   <g id="patch_12">
    <path d="M 1044.225 516.105795 
L 1086.075 516.105795 
L 1086.075 352.172226 
L 1044.225 352.172226 
L 1044.225 516.105795 
z
" clip-path="url(#p14920c8b0e)" style="fill: #add8e6; stroke: #000000; stroke-linejoin: miter"/>
   </g>
   <g id="line2d_67">
    <path d="M 1065.15 516.105795 
L 1065.15 576.567986 
" clip-path="url(#p14920c8b0e)" style="fill: none; stroke: #000000; stroke-linecap: square"/>
   </g>
   <g id="line2d_68">
    <path d="M 1065.15 352.172226 
L 1065.15 117.18 
" clip-path="url(#p14920c8b0e)" style="fill: none; stroke: #000000; stroke-linecap: square"/>
   </g>
   <g id="line2d_69">
    <path d="M 1054.6875 576.567986 
L 1075.6125 576.567986 
" clip-path="url(#p14920c8b0e)" style="fill: none; stroke: #000000; stroke-linecap: square"/>
   </g>
   <g id="line2d_70">
    <path d="M 1054.6875 117.18 
L 1075.6125 117.18 
" clip-path="url(#p14920c8b0e)" style="fill: none; stroke: #000000; stroke-linecap: square"/>
   </g>
   <g id="patch_13">
    <path d="M 1127.925 531.065512 
L 1169.775 531.065512 
L 1169.775 414.504382 
L 1127.925 414.504382 
L 1127.925 531.065512 
z
" clip-path="url(#p14920c8b0e)" style="fill: #add8e6; stroke: #000000; stroke-linejoin: miter"/>
   </g>
   <g id="line2d_71">
    <path d="M 1148.85 531.065512 
L 1148.85 616.460565 
" clip-path="url(#p14920c8b0e)" style="fill: none; stroke: #000000; stroke-linecap: square"/>
   </g>
   <g id="line2d_72">
    <path d="M 1148.85 414.504382 
L 1148.85 249.947491 
" clip-path="url(#p14920c8b0e)" style="fill: none; stroke: #000000; stroke-linecap: square"/>
   </g>
   <g id="line2d_73">
    <path d="M 1138.3875 616.460565 
L 1159.3125 616.460565 
" clip-path="url(#p14920c8b0e)" style="fill: none; stroke: #000000; stroke-linecap: square"/>
   </g>
   <g id="line2d_74">
    <path d="M 1138.3875 249.947491 
L 1159.3125 249.947491 
" clip-path="url(#p14920c8b0e)" style="fill: none; stroke: #000000; stroke-linecap: square"/>
   </g>
   <g id="patch_14">
    <path d="M 1211.625 532.312155 
L 1253.475 532.312155 
L 1253.475 409.517809 
L 1211.625 409.517809 
L 1211.625 532.312155 
z
" clip-path="url(#p14920c8b0e)" style="fill: #add8e6; stroke: #000000; stroke-linejoin: miter"/>
   </g>
   <g id="line2d_75">
    <path d="M 1232.55 532.312155 
L 1232.55 602.12417 
" clip-path="url(#p14920c8b0e)" style="fill: none; stroke: #000000; stroke-linecap: square"/>
   </g>
   <g id="line2d_76">
    <path d="M 1232.55 409.517809 
L 1232.55 279.243604 
" clip-path="url(#p14920c8b0e)" style="fill: none; stroke: #000000; stroke-linecap: square"/>
   </g>
   <g id="line2d_77">
    <path d="M 1222.0875 602.12417 
L 1243.0125 602.12417 
" clip-path="url(#p14920c8b0e)" style="fill: none; stroke: #000000; stroke-linecap: square"/>
   </g>
   <g id="line2d_78">
    <path d="M 1222.0875 279.243604 
L 1243.0125 279.243604 
" clip-path="url(#p14920c8b0e)" style="fill: none; stroke: #000000; stroke-linecap: square"/>
   </g>
   <g id="patch_15">
    <path d="M 1295.325 588.255265 
L 1337.175 588.255265 
L 1337.175 376.637597 
L 1295.325 376.637597 
L 1295.325 588.255265 
z
" clip-path="url(#p14920c8b0e)" style="fill: #add8e6; stroke: #000000; stroke-linejoin: miter"/>
   </g>
   <g id="line2d_79">
    <path d="M 1316.25 588.255265 
L 1316.25 630.796961 
" clip-path="url(#p14920c8b0e)" style="fill: none; stroke: #000000; stroke-linecap: square"/>
   </g>
   <g id="line2d_80">
    <path d="M 1316.25 376.637597 
L 1316.25 158.319223 
" clip-path="url(#p14920c8b0e)" style="fill: none; stroke: #000000; stroke-linecap: square"/>
   </g>
   <g id="line2d_81">
    <path d="M 1305.7875 630.796961 
L 1326.7125 630.796961 
" clip-path="url(#p14920c8b0e)" style="fill: none; stroke: #000000; stroke-linecap: square"/>
   </g>
   <g id="line2d_82">
    <path d="M 1305.7875 158.319223 
L 1326.7125 158.319223 
" clip-path="url(#p14920c8b0e)" style="fill: none; stroke: #000000; stroke-linecap: square"/>
   </g>
   <g id="patch_16">
    <path d="M 1379.025 570.958092 
L 1420.875 570.958092 
L 1420.875 468.733357 
L 1379.025 468.733357 
L 1379.025 570.958092 
z
" clip-path="url(#p14920c8b0e)" style="fill: #add8e6; stroke: #000000; stroke-linejoin: miter"/>
   </g>
   <g id="line2d_83">
    <path d="M 1399.95 570.958092 
L 1399.95 618.33053 
" clip-path="url(#p14920c8b0e)" style="fill: none; stroke: #000000; stroke-linecap: square"/>
   </g>
   <g id="line2d_84">
    <path d="M 1399.95 468.733357 
L 1399.95 325.992721 
" clip-path="url(#p14920c8b0e)" style="fill: none; stroke: #000000; stroke-linecap: square"/>
   </g>
   <g id="line2d_85">
    <path d="M 1389.4875 618.33053 
L 1410.4125 618.33053 
" clip-path="url(#p14920c8b0e)" style="fill: none; stroke: #000000; stroke-linecap: square"/>
   </g>
   <g id="line2d_86">
    <path d="M 1389.4875 325.992721 
L 1410.4125 325.992721 
" clip-path="url(#p14920c8b0e)" style="fill: none; stroke: #000000; stroke-linecap: square"/>
   </g>
   <g id="patch_17">
    <path d="M 1462.725 564.724876 
L 1504.575 564.724876 
L 1504.575 402.037951 
L 1462.725 402.037951 
L 1462.725 564.724876 
z
" clip-path="url(#p14920c8b0e)" style="fill: #add8e6; stroke: #000000; stroke-linejoin: miter"/>
   </g>
   <g id="line2d_87">
    <path d="M 1483.65 564.724876 
L 1483.65 627.057032 
" clip-path="url(#p14920c8b0e)" style="fill: none; stroke: #000000; stroke-linecap: square"/>
   </g>
   <g id="line2d_88">
    <path d="M 1483.65 402.037951 
L 1483.65 160.189187 
" clip-path="url(#p14920c8b0e)" style="fill: none; stroke: #000000; stroke-linecap: square"/>
   </g>
   <g id="line2d_89">
    <path d="M 1473.1875 627.057032 
L 1494.1125 627.057032 
" clip-path="url(#p14920c8b0e)" style="fill: none; stroke: #000000; stroke-linecap: square"/>
   </g>
   <g id="line2d_90">
    <path d="M 1473.1875 160.189187 
L 1494.1125 160.189187 
" clip-path="url(#p14920c8b0e)" style="fill: none; stroke: #000000; stroke-linecap: square"/>
   </g>
   <g id="patch_18">
    <path d="M 1546.425 573.763039 
L 1588.275 573.763039 
L 1588.275 435.229823 
L 1546.425 435.229823 
L 1546.425 573.763039 
z
" clip-path="url(#p14920c8b0e)" style="fill: #add8e6; stroke: #000000; stroke-linejoin: miter"/>
   </g>
   <g id="line2d_91">
    <path d="M 1567.35 573.763039 
L 1567.35 632.043604 
" clip-path="url(#p14920c8b0e)" style="fill: none; stroke: #000000; stroke-linecap: square"/>
   </g>
   <g id="line2d_92">
    <path d="M 1567.35 435.229823 
L 1567.35 253.68742 
" clip-path="url(#p14920c8b0e)" style="fill: none; stroke: #000000; stroke-linecap: square"/>
   </g>
   <g id="line2d_93">
    <path d="M 1556.8875 632.043604 
L 1577.8125 632.043604 
" clip-path="url(#p14920c8b0e)" style="fill: none; stroke: #000000; stroke-linecap: square"/>
   </g>
   <g id="line2d_94">
    <path d="M 1556.8875 253.68742 
L 1577.8125 253.68742 
" clip-path="url(#p14920c8b0e)" style="fill: none; stroke: #000000; stroke-linecap: square"/>
   </g>
   <g id="patch_19">
    <path d="M 1630.125 578.28212 
L 1671.975 578.28212 
L 1671.975 488.991307 
L 1630.125 488.991307 
L 1630.125 578.28212 
z
" clip-path="url(#p14920c8b0e)" style="fill: #add8e6; stroke: #000000; stroke-linejoin: miter"/>
   </g>
   <g id="line2d_95">
    <path d="M 1651.05 578.28212 
L 1651.05 624.563746 
" clip-path="url(#p14920c8b0e)" style="fill: none; stroke: #000000; stroke-linecap: square"/>
   </g>
   <g id="line2d_96">
    <path d="M 1651.05 488.991307 
L 1651.05 373.365159 
" clip-path="url(#p14920c8b0e)" style="fill: none; stroke: #000000; stroke-linecap: square"/>
   </g>
   <g id="line2d_97">
    <path d="M 1640.5875 624.563746 
L 1661.5125 624.563746 
" clip-path="url(#p14920c8b0e)" style="fill: none; stroke: #000000; stroke-linecap: square"/>
   </g>
   <g id="line2d_98">
    <path d="M 1640.5875 373.365159 
L 1661.5125 373.365159 
" clip-path="url(#p14920c8b0e)" style="fill: none; stroke: #000000; stroke-linecap: square"/>
   </g>
   <g id="patch_20">
    <path d="M 1713.825 547.895194 
L 1755.675 547.895194 
L 1755.675 443.488834 
L 1713.825 443.488834 
L 1713.825 547.895194 
z
" clip-path="url(#p14920c8b0e)" style="fill: #add8e6; stroke: #000000; stroke-linejoin: miter"/>
   </g>
   <g id="line2d_99">
    <path d="M 1734.75 547.895194 
L 1734.75 603.994134 
" clip-path="url(#p14920c8b0e)" style="fill: none; stroke: #000000; stroke-linecap: square"/>
   </g>
   <g id="line2d_100">
    <path d="M 1734.75 443.488834 
L 1734.75 342.822403 
" clip-path="url(#p14920c8b0e)" style="fill: none; stroke: #000000; stroke-linecap: square"/>
   </g>
   <g id="line2d_101">
    <path d="M 1724.2875 603.994134 
L 1745.2125 603.994134 
" clip-path="url(#p14920c8b0e)" style="fill: none; stroke: #000000; stroke-linecap: square"/>
   </g>
   <g id="line2d_102">
    <path d="M 1724.2875 342.822403 
L 1745.2125 342.822403 
" clip-path="url(#p14920c8b0e)" style="fill: none; stroke: #000000; stroke-linecap: square"/>
   </g>
   <g id="patch_21">
    <path d="M 1797.525 532.312155 
L 1839.375 532.312155 
L 1839.375 311.033004 
L 1797.525 311.033004 
L 1797.525 532.312155 
z
" clip-path="url(#p14920c8b0e)" style="fill: #add8e6; stroke: #000000; stroke-linejoin: miter"/>
   </g>
   <g id="line2d_103">
    <path d="M 1818.45 532.312155 
L 1818.45 592.774346 
" clip-path="url(#p14920c8b0e)" style="fill: none; stroke: #000000; stroke-linecap: square"/>
   </g>
   <g id="line2d_104">
    <path d="M 1818.45 311.033004 
L 1818.45 198.211802 
" clip-path="url(#p14920c8b0e)" style="fill: none; stroke: #000000; stroke-linecap: square"/>
   </g>
   <g id="line2d_105">
    <path d="M 1807.9875 592.774346 
L 1828.9125 592.774346 
" clip-path="url(#p14920c8b0e)" style="fill: none; stroke: #000000; stroke-linecap: square"/>
   </g>
   <g id="line2d_106">
    <path d="M 1807.9875 198.211802 
L 1828.9125 198.211802 
" clip-path="url(#p14920c8b0e)" style="fill: none; stroke: #000000; stroke-linecap: square"/>
   </g>
   <g id="patch_22">
    <path d="M 1881.225 552.881767 
L 1923.075 552.881767 
L 1923.075 428.217456 
L 1881.225 428.217456 
L 1881.225 552.881767 
z
" clip-path="url(#p14920c8b0e)" style="fill: #add8e6; stroke: #000000; stroke-linejoin: miter"/>
   </g>
   <g id="line2d_107">
    <path d="M 1902.15 552.881767 
L 1902.15 612.720636 
" clip-path="url(#p14920c8b0e)" style="fill: none; stroke: #000000; stroke-linecap: square"/>
   </g>
   <g id="line2d_108">
    <path d="M 1902.15 428.217456 
L 1902.15 299.813216 
" clip-path="url(#p14920c8b0e)" style="fill: none; stroke: #000000; stroke-linecap: square"/>
   </g>
   <g id="line2d_109">
    <path d="M 1891.6875 612.720636 
L 1912.6125 612.720636 
" clip-path="url(#p14920c8b0e)" style="fill: none; stroke: #000000; stroke-linecap: square"/>
   </g>
   <g id="line2d_110">
    <path d="M 1891.6875 299.813216 
L 1912.6125 299.813216 
" clip-path="url(#p14920c8b0e)" style="fill: none; stroke: #000000; stroke-linecap: square"/>
   </g>
   <g id="line2d_111">
    <path d="M 290.925 552.570106 
L 332.775 552.570106 
" clip-path="url(#p14920c8b0e)" style="fill: none; stroke: #ff7f0e; stroke-linecap: square"/>
   </g>
   <g id="line2d_112">
    <path d="M 374.625 563.478233 
L 416.475 563.478233 
" clip-path="url(#p14920c8b0e)" style="fill: none; stroke: #ff7f0e; stroke-linecap: square"/>
   </g>
   <g id="line2d_113">
    <path d="M 458.325 567.529823 
L 500.175 567.529823 
" clip-path="url(#p14920c8b0e)" style="fill: none; stroke: #ff7f0e; stroke-linecap: square"/>
   </g>
   <g id="line2d_114">
    <path d="M 542.025 597.137597 
L 583.875 597.137597 
" clip-path="url(#p14920c8b0e)" style="fill: none; stroke: #ff7f0e; stroke-linecap: square"/>
   </g>
   <g id="line2d_115">
    <path d="M 625.725 595.267633 
L 667.575 595.267633 
" clip-path="url(#p14920c8b0e)" style="fill: none; stroke: #ff7f0e; stroke-linecap: square"/>
   </g>
   <g id="line2d_116">
    <path d="M 709.425 560.361625 
L 751.275 560.361625 
" clip-path="url(#p14920c8b0e)" style="fill: none; stroke: #ff7f0e; stroke-linecap: square"/>
   </g>
   <g id="line2d_117">
    <path d="M 793.125 569.711449 
L 834.975 569.711449 
" clip-path="url(#p14920c8b0e)" style="fill: none; stroke: #ff7f0e; stroke-linecap: square"/>
   </g>
   <g id="line2d_118">
    <path d="M 876.825 584.982827 
L 918.675 584.982827 
" clip-path="url(#p14920c8b0e)" style="fill: none; stroke: #ff7f0e; stroke-linecap: square"/>
   </g>
   <g id="line2d_119">
    <path d="M 960.525 572.828057 
L 1002.375 572.828057 
" clip-path="url(#p14920c8b0e)" style="fill: none; stroke: #ff7f0e; stroke-linecap: square"/>
   </g>
   <g id="line2d_120">
    <path d="M 1044.225 442.553852 
L 1086.075 442.553852 
" clip-path="url(#p14920c8b0e)" style="fill: none; stroke: #ff7f0e; stroke-linecap: square"/>
   </g>
   <g id="line2d_121">
    <path d="M 1127.925 490.549611 
L 1169.775 490.549611 
" clip-path="url(#p14920c8b0e)" style="fill: none; stroke: #ff7f0e; stroke-linecap: square"/>
   </g>
   <g id="line2d_122">
    <path d="M 1211.625 474.343251 
L 1253.475 474.343251 
" clip-path="url(#p14920c8b0e)" style="fill: none; stroke: #ff7f0e; stroke-linecap: square"/>
   </g>
   <g id="line2d_123">
    <path d="M 1295.325 531.377173 
L 1337.175 531.377173 
" clip-path="url(#p14920c8b0e)" style="fill: none; stroke: #ff7f0e; stroke-linecap: square"/>
   </g>
   <g id="line2d_124">
    <path d="M 1379.025 535.428763 
L 1420.875 535.428763 
" clip-path="url(#p14920c8b0e)" style="fill: none; stroke: #ff7f0e; stroke-linecap: square"/>
   </g>
   <g id="line2d_125">
    <path d="M 1462.725 517.352438 
L 1504.575 517.352438 
" clip-path="url(#p14920c8b0e)" style="fill: none; stroke: #ff7f0e; stroke-linecap: square"/>
   </g>
   <g id="line2d_126">
    <path d="M 1546.425 533.870459 
L 1588.275 533.870459 
" clip-path="url(#p14920c8b0e)" style="fill: none; stroke: #ff7f0e; stroke-linecap: square"/>
   </g>
   <g id="line2d_127">
    <path d="M 1630.125 538.545371 
L 1671.975 538.545371 
" clip-path="url(#p14920c8b0e)" style="fill: none; stroke: #ff7f0e; stroke-linecap: square"/>
   </g>
   <g id="line2d_128">
    <path d="M 1713.825 514.23583 
L 1755.675 514.23583 
" clip-path="url(#p14920c8b0e)" style="fill: none; stroke: #ff7f0e; stroke-linecap: square"/>
   </g>
   <g id="line2d_129">
    <path d="M 1797.525 430.08742 
L 1839.375 430.08742 
" clip-path="url(#p14920c8b0e)" style="fill: none; stroke: #ff7f0e; stroke-linecap: square"/>
   </g>
   <g id="line2d_130">
    <path d="M 1881.225 503.639364 
L 1923.075 503.639364 
" clip-path="url(#p14920c8b0e)" style="fill: none; stroke: #ff7f0e; stroke-linecap: square"/>
   </g>
   <g id="patch_23">
    <path d="M 270 672.84 
L 270 90.72 
" style="fill: none; stroke: #000000; stroke-width: 0.8; stroke-linejoin: miter; stroke-linecap: square"/>
   </g>
   <g id="patch_24">
    <path d="M 1944 672.84 
L 1944 90.72 
" style="fill: none; stroke: #000000; stroke-width: 0.8; stroke-linejoin: miter; stroke-linecap: square"/>
   </g>
   <g id="patch_25">
    <path d="M 270 672.84 
L 1944 672.84 
" style="fill: none; stroke: #000000; stroke-width: 0.8; stroke-linejoin: miter; stroke-linecap: square"/>
   </g>
   <g id="patch_26">
    <path d="M 270 90.72 
L 1944 90.72 
" style="fill: none; stroke: #000000; stroke-width: 0.8; stroke-linejoin: miter; stroke-linecap: square"/>
   </g>
  </g>
 </g>
 <defs>
  <clipPath id="p14920c8b0e">
   <rect x="270" y="90.72" width="1674" height="582.12"/>
  </clipPath>
 </defs>
</svg>
